<?xml version="1.0" encoding="UTF-8" standalone="no"?>
<svg width="300px" height="300px" viewBox="0 0 300 300" version="1.1" xmlns="http://www.w3.org/2000/svg" xmlns:xlink="http://www.w3.org/1999/xlink">
    <defs></defs>
    <g id="Page-1" stroke="none" stroke-width="1" fill="none" fill-rule="evenodd">
        <g id="Flag_of_Northern_Ireland" transform="translate(-150.000000, 0.000000)">
            <rect id="rect1433" fill="#FFFFFF" x="0" y="-7.6293945e-06" width="600" height="300" rx="5.5511257e-15"></rect>
            <rect id="use3168" fill="#CC0000" x="0" y="119.99999" width="600" height="60" rx="5.5511257e-15"></rect>
            <g id="use6771" transform="translate(300.000000, 149.999995) rotate(90.000000) translate(-300.000000, -149.999995) translate(150.000000, 119.999995)" fill="#CC0000">
                <rect id="use3168" x="0" y="-1e-05" width="300" height="60" rx="5.5511257e-15"></rect>
            </g>
            <path d="M322.00318,91.631 C323.92865,88.618611 322.77727,86.673251 319.86504,86.072147 C319.86504,86.072147 310.57347,89.05058 300.53833,89.377487 C290.50318,89.704392 278.58069,86.853713 278.58069,86.853713 C276.44247,88.195386 276.96424,91.379345 278.02479,93.366981 C278.02479,93.366981 288.52987,96.857063 300.48917,96.514418 C308.08522,96.296784 315.28322,94.358564 319.32118,93.073797 C321.64062,92.335815 322.00429,91.665217 322.00318,91.631 L322.00318,91.631 Z" id="path5103" stroke="#000000" stroke-width="0.32597154" fill="#EBEAE3"></path>
            <path d="M299.999994,223.469833 L280.714164,183.404039 L236.373255,186.734917 L261.428335,149.999997 L236.373255,113.265081 L280.714164,116.595956 L299.999994,76.5301653 L319.285832,116.595956 L363.626741,113.265077 L338.571661,149.999997 L363.626741,186.734914 L319.285832,183.404039 L299.999994,223.469833 L299.999994,223.469833 Z" id="path3244" stroke="#161111" fill="#FFFFFF"></path>
            <path d="M299.71195,76.392216 C323.93915,80.385706 323.07389,81.517197 323.07389,81.517197 L329.39692,62.614667 C329.39692,62.614667 330.06249,58.887408 328.33198,56.624429 C326.60147,54.36145 321.74272,55.626054 321.74272,55.626054 C321.74272,55.626054 321.07714,52.564378 318.94728,51.832235 C316.81742,51.100097 308.89699,54.69424 306.43433,55.49294 C303.97168,56.291637 302.70707,57.090338 299.24604,57.023776 C295.78502,56.957218 289.5951,53.89554 288.46362,53.296517 C287.33213,52.697494 285.66818,52.098471 284.13734,52.165028 C282.60649,52.231587 281.0091,52.630935 280.2104,53.695868 C279.4117,54.760796 279.4117,56.091963 279.4117,56.091963 C279.4117,56.091963 278.1471,55.293266 276.15035,55.293266 C274.15361,55.293266 273.02212,55.559496 272.09029,56.624429 C271.15849,57.689358 269.96043,60.684478 269.96043,60.684478 L272.22342,65.809459 L272.35653,72.86463 L277.08217,80.31915 L299.71195,76.392216 L299.71195,76.392216 Z" id="path34974" stroke="#000000" stroke-width="0.81492889" fill="#B02320"></path>
            <path d="M322.29625,87.071738 C322.29625,87.071738 323.51613,88.526202 323.46921,89.042298 C323.42229,89.558398 322.90619,90.027579 322.90619,90.027579 C322.90619,90.027579 323.28155,90.402924 323.1877,90.96594 C323.09387,91.528955 322.34318,91.575877 322.34318,91.575877 C322.34318,91.575877 322.48393,92.091975 322.01475,92.326566 C321.54557,92.561155 319.62193,92.983418 319.62193,92.983418 C319.62193,92.983418 310.23831,90.309085 300.19785,90.309085 C290.15737,90.309085 278.33402,93.546435 278.33402,93.546435 C278.33402,93.546435 277.11415,93.124173 277.06722,92.326566 C277.02032,91.528955 277.20799,90.96594 277.20799,90.96594 C277.20799,90.96594 276.54011,91.035516 276.36346,90.449841 C276.11639,89.630674 276.4573,88.995382 276.4573,88.995382 C276.4573,88.995382 275.99214,89.145158 276.50421,88.057018 C276.87955,87.259412 277.44258,86.977904 277.44258,86.977904 C277.44258,86.977904 287.95222,83.224455 299.91634,83.177539 C311.88044,83.13062 322.29625,86.9779 322.29625,87.071738 L322.29625,87.071738 Z" id="path30012" stroke="#000000" stroke-width="0.32597154" fill="#EBEAE3"></path>
            <path d="M272.64293,63.434622 C272.64293,63.434622 272.24227,62.072423 273.12369,60.870482 C274.00513,59.668541 275.60771,59.748669 276.08848,59.989057 C276.56927,60.229446 276.48914,60.790354 277.13019,60.950612 C277.77122,61.11087 278.25199,60.630093 278.25199,60.630093" id="path41763" stroke="#000000" stroke-width="0.7171374"></path>
            <path d="M331.14018,66.623912 L327.5013,74.152629 L326.07085,74.403585 C326.07085,74.403585 325.19814,73.87932 322.70802,74.052245 C320.92622,74.177723 320.39921,74.629446 320.39921,74.629446 L323.63656,67.125826 C323.63656,67.125826 323.88889,68.73804 324.26395,69.685588 C324.74077,70.890184 326.54766,72.019494 326.54766,72.019494 C326.54766,72.019494 326.79805,70.578581 326.32181,68.832336 C325.79479,66.899968 324.5651,64.29001 324.5651,64.29001 L331.14018,66.623912 L331.14018,66.623912 Z" id="path17396" stroke="#000000" stroke-width="0.74973458" fill-opacity="0.94117647" fill="#FFCC00"></path>
            <rect id="rect5511" stroke="#121116" stroke-width="0.7311542" fill="#121116" x="297.80765" y="43.225334" width="4.07269" height="17.308931"></rect>
            <path d="M272.84965,75.147177 L275.46533,80.743525 C275.46533,80.743525 286.59688,76.40458 299.73644,76.485437 C319.4453,76.607095 325.04164,80.561033 325.04164,80.561033 L327.96148,73.626432 L325.77162,74.90386 L323.5209,76.302945 L320.96605,77.276224 L317.86373,77.032903 L315.12638,75.025522 L313.7273,72.105686 L311.41576,74.23473 L307.34017,75.147181 L303.3254,74.113072 L299.79726,69.672496 C299.79726,69.672496 297.16907,74.60852 293.83593,74.90386 C289.03038,75.32967 286.23221,72.592327 286.23221,72.592327 C286.23221,72.592327 284.44572,76.6071 281.48748,77.337054 C276.80359,78.492818 272.91048,75.147177 272.84965,75.147177 L272.84965,75.147177 Z" id="path24185" stroke="#000000" stroke-width="0.6193459" fill="#F6CA1F"></path>
            <g id="g5431" transform="translate(261.955934, 37.065590)">
                <g id="g3168" transform="translate(51.381273, 1.548365)">
                    <path d="M4.442354,2.41528657 C4.44238008,3.59117696 3.50324286,4.54509047 2.34324685,4.54742443 C1.18325083,4.54976165 0.240384497,3.59963267 0.235804596,2.42375205 C0.231224695,1.24787144 1.16665888,0.290228814 2.32663859,0.2832791 C3.48661831,0.276326125 4.43315509,1.22269339 4.44228881,2.39854793" id="path2193" stroke="#1E1E1E" stroke-width="0.731154309" fill="#EEEEEE"></path>
                    <path d="M1.35945804,3.51014694 C1.35945804,3.51014694 3.05937059,3.48133105 3.23224311,2.78984098 C3.40511563,2.0983509 3.11699585,1.20517894 3.11699585,1.20517894 C3.11699585,1.20517894 3.92373319,2.09835416 3.69323867,2.78984424 C3.46274089,3.48133431 3.23662091,3.6600678 2.6560003,3.79826672 C2.26259495,3.89190206 1.67639045,3.74064472 1.35945804,3.51014694 L1.35945804,3.51014694 Z" id="path2195" fill="#A3AFB8"></path>
                </g>
                <g id="g3172" transform="translate(46.271444, 3.936981)">
                    <path d="M4.442354,2.41528657 C4.44238008,3.59117696 3.50324286,4.54509047 2.34324685,4.54742443 C1.18325083,4.54976165 0.240384497,3.59963267 0.235804596,2.42375205 C0.231224695,1.24787144 1.16665888,0.290228814 2.32663859,0.2832791 C3.48661831,0.276326125 4.43315509,1.22269339 4.44228881,2.39854793" id="path3174" stroke="#1E1E1E" stroke-width="0.731154309" fill="#EEEEEE"></path>
                    <path d="M1.35945804,3.51014694 C1.35945804,3.51014694 3.05937059,3.48133105 3.23224311,2.78984098 C3.40511563,2.0983509 3.11699585,1.20517894 3.11699585,1.20517894 C3.11699585,1.20517894 3.92373319,2.09835416 3.69323867,2.78984424 C3.46274089,3.48133431 3.23662091,3.6600678 2.6560003,3.79826672 C2.26259495,3.89190206 1.67639045,3.74064472 1.35945804,3.51014694 L1.35945804,3.51014694 Z" id="path3176" fill="#A3AFB8"></path>
                </g>
                <g id="g3178" transform="translate(57.313732, 0.147561)">
                    <path d="M4.442354,2.41528657 C4.44238008,3.59117696 3.50324286,4.54509047 2.34324685,4.54742443 C1.18325083,4.54976165 0.240384497,3.59963267 0.235804596,2.42375205 C0.231224695,1.24787144 1.16665888,0.290228814 2.32663859,0.2832791 C3.48661831,0.276326125 4.43315509,1.22269339 4.44228881,2.39854793" id="path3180" stroke="#1E1E1E" stroke-width="0.731154309" fill="#EEEEEE"></path>
                    <path d="M1.35945804,3.51014694 C1.35945804,3.51014694 3.05937059,3.48133105 3.23224311,2.78984098 C3.40511563,2.0983509 3.11699585,1.20517894 3.11699585,1.20517894 C3.11699585,1.20517894 3.92373319,2.09835416 3.69323867,2.78984424 C3.46274089,3.48133431 3.23662091,3.6600678 2.6560003,3.79826672 C2.26259495,3.89190206 1.67639045,3.74064472 1.35945804,3.51014694 L1.35945804,3.51014694 Z" id="path3182" fill="#A3AFB8"></path>
                </g>
                <g id="g3184" transform="translate(63.996150, 1.492194)">
                    <path d="M4.442354,2.41528657 C4.44238008,3.59117696 3.50324286,4.54509047 2.34324685,4.54742443 C1.18325083,4.54976165 0.240384497,3.59963267 0.235804596,2.42375205 C0.231224695,1.24787144 1.16665888,0.290228814 2.32663859,0.2832791 C3.48661831,0.276326125 4.43315509,1.22269339 4.44228881,2.39854793" id="path3186" stroke="#1E1E1E" stroke-width="0.731154309" fill="#EEEEEE"></path>
                    <path d="M1.35945804,3.51014694 C1.35945804,3.51014694 3.05937059,3.48133105 3.23224311,2.78984098 C3.40511563,2.0983509 3.11699585,1.20517894 3.11699585,1.20517894 C3.11699585,1.20517894 3.92373319,2.09835416 3.69323867,2.78984424 C3.46274089,3.48133431 3.23662091,3.6600678 2.6560003,3.79826672 C2.26259495,3.89190206 1.67639045,3.74064472 1.35945804,3.51014694 L1.35945804,3.51014694 Z" id="path3188" fill="#A3AFB8"></path>
                </g>
                <g id="g3190" transform="translate(69.089456, 5.689078)">
                    <path d="M4.442354,2.41528657 C4.44238008,3.59117696 3.50324286,4.54509047 2.34324685,4.54742443 C1.18325083,4.54976165 0.240384497,3.59963267 0.235804596,2.42375205 C0.231224695,1.24787144 1.16665888,0.290228814 2.32663859,0.2832791 C3.48661831,0.276326125 4.43315509,1.22269339 4.44228881,2.39854793" id="path3192" stroke="#1E1E1E" stroke-width="0.731154309" fill="#EEEEEE"></path>
                    <path d="M1.35945804,3.51014694 C1.35945804,3.51014694 3.05937059,3.48133105 3.23224311,2.78984098 C3.40511563,2.0983509 3.11699585,1.20517894 3.11699585,1.20517894 C3.11699585,1.20517894 3.92373319,2.09835416 3.69323867,2.78984424 C3.46274089,3.48133431 3.23662091,3.6600678 2.6560003,3.79826672 C2.26259495,3.89190206 1.67639045,3.74064472 1.35945804,3.51014694 L1.35945804,3.51014694 Z" id="path3194" fill="#A3AFB8"></path>
                </g>
                <g id="g3196" transform="translate(71.289765, 12.575228)">
                    <path d="M4.442354,2.41528657 C4.44238008,3.59117696 3.50324286,4.54509047 2.34324685,4.54742443 C1.18325083,4.54976165 0.240384497,3.59963267 0.235804596,2.42375205 C0.231224695,1.24787144 1.16665888,0.290228814 2.32663859,0.2832791 C3.48661831,0.276326125 4.43315509,1.22269339 4.44228881,2.39854793" id="path3199" stroke="#1E1E1E" stroke-width="0.731154309" fill="#EEEEEE"></path>
                    <path d="M1.35945804,3.51014694 C1.35945804,3.51014694 3.05937059,3.48133105 3.23224311,2.78984098 C3.40511563,2.0983509 3.11699585,1.20517894 3.11699585,1.20517894 C3.11699585,1.20517894 3.92373319,2.09835416 3.69323867,2.78984424 C3.46274089,3.48133431 3.23662091,3.6600678 2.6560003,3.79826672 C2.26259495,3.89190206 1.67639045,3.74064472 1.35945804,3.51014694 L1.35945804,3.51014694 Z" id="path3201" fill="#A3AFB8"></path>
                </g>
                <g id="g3203" transform="translate(70.474836, 19.542871)">
                    <path d="M4.442354,2.41528657 C4.44238008,3.59117696 3.50324286,4.54509047 2.34324685,4.54742443 C1.18325083,4.54976165 0.240384497,3.59963267 0.235804596,2.42375205 C0.231224695,1.24787144 1.16665888,0.290228814 2.32663859,0.2832791 C3.48661831,0.276326125 4.43315509,1.22269339 4.44228881,2.39854793" id="path3205" stroke="#1E1E1E" stroke-width="0.731154309" fill="#EEEEEE"></path>
                    <path d="M1.35945804,3.51014694 C1.35945804,3.51014694 3.05937059,3.48133105 3.23224311,2.78984098 C3.40511563,2.0983509 3.11699585,1.20517894 3.11699585,1.20517894 C3.11699585,1.20517894 3.92373319,2.09835416 3.69323867,2.78984424 C3.46274089,3.48133431 3.23662091,3.6600678 2.6560003,3.79826672 C2.26259495,3.89190206 1.67639045,3.74064472 1.35945804,3.51014694 L1.35945804,3.51014694 Z" id="path3207" fill="#A3AFB8"></path>
                </g>
                <g id="g3209" transform="translate(67.378105, 25.654839)">
                    <path d="M4.442354,2.41528657 C4.44238008,3.59117696 3.50324286,4.54509047 2.34324685,4.54742443 C1.18325083,4.54976165 0.240384497,3.59963267 0.235804596,2.42375205 C0.231224695,1.24787144 1.16665888,0.290228814 2.32663859,0.2832791 C3.48661831,0.276326125 4.43315509,1.22269339 4.44228881,2.39854793" id="path3211" stroke="#1E1E1E" stroke-width="0.731154309" fill="#EEEEEE"></path>
                    <path d="M1.35945804,3.51014694 C1.35945804,3.51014694 3.05937059,3.48133105 3.23224311,2.78984098 C3.40511563,2.0983509 3.11699585,1.20517894 3.11699585,1.20517894 C3.11699585,1.20517894 3.92373319,2.09835416 3.69323867,2.78984424 C3.46274089,3.48133431 3.23662091,3.6600678 2.6560003,3.79826672 C2.26259495,3.89190206 1.67639045,3.74064472 1.35945804,3.51014694 L1.35945804,3.51014694 Z" id="path3213" fill="#A3AFB8"></path>
                </g>
                <g id="g3215" transform="translate(41.300377, 5.770571)">
                    <path d="M4.442354,2.41528657 C4.44238008,3.59117696 3.50324286,4.54509047 2.34324685,4.54742443 C1.18325083,4.54976165 0.240384497,3.59963267 0.235804596,2.42375205 C0.231224695,1.24787144 1.16665888,0.290228814 2.32663859,0.2832791 C3.48661831,0.276326125 4.43315509,1.22269339 4.44228881,2.39854793" id="path3217" stroke="#1E1E1E" stroke-width="0.731154309" fill="#EEEEEE"></path>
                    <path d="M1.35945804,3.51014694 C1.35945804,3.51014694 3.05937059,3.48133105 3.23224311,2.78984098 C3.40511563,2.0983509 3.11699585,1.20517894 3.11699585,1.20517894 C3.11699585,1.20517894 3.92373319,2.09835416 3.69323867,2.78984424 C3.46274089,3.48133431 3.23662091,3.6600678 2.6560003,3.79826672 C2.26259495,3.89190206 1.67639045,3.74064472 1.35945804,3.51014694 L1.35945804,3.51014694 Z" id="path3219" fill="#A3AFB8"></path>
                </g>
                <g id="g3221" transform="translate(35.673282, 5.620694)">
                    <path d="M3.71496296,2.01980755 C3.71498477,3.00315765 2.92962188,3.80087736 1.95956361,3.80282915 C0.989505339,3.80478367 0.201023939,3.01022881 0.197193951,2.02688689 C0.193363963,1.04354497 0.975630152,0.242706748 1.94567479,0.23689498 C2.91571943,0.231080486 3.70727027,1.02248958 3.71490844,2.00580969" id="path3223" stroke="#1E1E1E" stroke-width="0.731154295" fill="#EEEEEE"></path>
                    <path d="M1.13686038,2.93539548 C1.13686038,2.93539548 2.55842925,2.91129791 2.70299563,2.33303242 C2.847562,1.75476693 2.60661895,1.00784294 2.60661895,1.00784294 C2.60661895,1.00784294 3.28126112,1.75476965 3.08850777,2.33303514 C2.8957517,2.91130063 2.7066566,3.0607683 2.22110681,3.17633853 C1.89211766,3.25464202 1.40189827,3.12815155 1.13686038,2.93539548 L1.13686038,2.93539548 Z" id="path3225" fill="#A3AFB8"></path>
                </g>
                <g id="g3227" transform="translate(35.693649, 7.836654)">
                    <path d="M3.71496296,2.01980755 C3.71498477,3.00315765 2.92962188,3.80087736 1.95956361,3.80282915 C0.989505339,3.80478367 0.201023939,3.01022881 0.197193951,2.02688689 C0.193363963,1.04354497 0.975630152,0.242706748 1.94567479,0.23689498 C2.91571943,0.231080486 3.70727027,1.02248958 3.71490844,2.00580969" id="path3229" stroke="#1E1E1E" stroke-width="0.731154295" fill="#EEEEEE"></path>
                    <path d="M1.13686038,2.93539548 C1.13686038,2.93539548 2.55842925,2.91129791 2.70299563,2.33303242 C2.847562,1.75476693 2.60661895,1.00784294 2.60661895,1.00784294 C2.60661895,1.00784294 3.28126112,1.75476965 3.08850777,2.33303514 C2.8957517,2.91130063 2.7066566,3.0607683 2.22110681,3.17633853 C1.89211766,3.25464202 1.40189827,3.12815155 1.13686038,2.93539548 L1.13686038,2.93539548 Z" id="path3231" fill="#A3AFB8"></path>
                </g>
                <g id="g3233" transform="translate(35.815888, 11.096370)">
                    <path d="M3.71496296,2.01980755 C3.71498477,3.00315765 2.92962188,3.80087736 1.95956361,3.80282915 C0.989505339,3.80478367 0.201023939,3.01022881 0.197193951,2.02688689 C0.193363963,1.04354497 0.975630152,0.242706748 1.94567479,0.23689498 C2.91571943,0.231080486 3.70727027,1.02248958 3.71490844,2.00580969" id="path3235" stroke="#1E1E1E" stroke-width="0.731154295" fill="#EEEEEE"></path>
                    <path d="M1.13686038,2.93539548 C1.13686038,2.93539548 2.55842925,2.91129791 2.70299563,2.33303242 C2.847562,1.75476693 2.60661895,1.00784294 2.60661895,1.00784294 C2.60661895,1.00784294 3.28126112,1.75476965 3.08850777,2.33303514 C2.8957517,2.91130063 2.7066566,3.0607683 2.22110681,3.17633853 C1.89211766,3.25464202 1.40189827,3.12815155 1.13686038,2.93539548 L1.13686038,2.93539548 Z" id="path3237" fill="#A3AFB8"></path>
                </g>
                <g id="g3239" transform="translate(35.695344, 14.395302)">
                    <path d="M4.01754502,2.18431996 C4.0175686,3.24776348 3.16823826,4.11045711 2.11916918,4.11256787 C1.0701001,4.11468159 0.217397248,3.25541059 0.21325531,2.19197592 C0.209113371,1.12854124 1.05509479,0.262475103 2.10414912,0.256189969 C3.15320346,0.249901887 4.00922576,1.10577089 4.01748606,2.16918199" id="path3241" stroke="#1E1E1E" stroke-width="0.731154327" fill="#EEEEEE"></path>
                    <path d="M1.22945714,3.17448212 C1.22945714,3.17448212 2.76681216,3.14842181 2.9231534,2.52305685 C3.07949464,1.8976919 2.81892689,1.08993129 2.81892689,1.08993129 C2.81892689,1.08993129 3.54851835,1.89769485 3.34006534,2.5230598 C3.13160937,3.14842476 2.92711256,3.3100665 2.40201496,3.43504987 C2.04622979,3.51973114 1.51608226,3.38293809 1.22945714,3.17448212 L1.22945714,3.17448212 Z" id="path3243" fill="#A3AFB8"></path>
                </g>
                <g id="g3245" transform="translate(35.473635, 18.809435)">
                    <path d="M4.442354,2.41528657 C4.44238008,3.59117696 3.50324286,4.54509047 2.34324685,4.54742443 C1.18325083,4.54976165 0.240384497,3.59963267 0.235804596,2.42375205 C0.231224695,1.24787144 1.16665888,0.290228814 2.32663859,0.2832791 C3.48661831,0.276326125 4.43315509,1.22269339 4.44228881,2.39854793" id="path3247" stroke="#1E1E1E" stroke-width="0.731154309" fill="#EEEEEE"></path>
                    <path d="M1.35945804,3.51014694 C1.35945804,3.51014694 3.05937059,3.48133105 3.23224311,2.78984098 C3.40511563,2.0983509 3.11699585,1.20517894 3.11699585,1.20517894 C3.11699585,1.20517894 3.92373319,2.09835416 3.69323867,2.78984424 C3.46274089,3.48133431 3.23662091,3.6600678 2.6560003,3.79826672 C2.26259495,3.89190206 1.67639045,3.74064472 1.35945804,3.51014694 L1.35945804,3.51014694 Z" id="path3249" fill="#A3AFB8"></path>
                </g>
                <g id="g3251" transform="translate(35.533243, 28.489327)">
                    <path d="M4.17206342,2.26833087 C4.17208791,3.37267539 3.29009155,4.26854899 2.20067434,4.27074094 C1.11125712,4.27293595 0.225758542,3.38061662 0.221457301,2.27628128 C0.217156059,1.17194595 1.09567468,0.272570132 2.18507659,0.266043266 C3.27447851,0.259513339 4.1634242,1.14829984 4.17200219,2.25261068" id="path3253" stroke="#1E1E1E" stroke-width="0.731154331" fill="#EEEEEE"></path>
                    <path d="M1.27674317,3.29657556 C1.27674317,3.29657556 2.87322625,3.26951295 3.03558051,2.62009589 C3.19793478,1.97067884 2.92734536,1.13185103 2.92734536,1.13185103 C2.92734536,1.13185103 3.68499757,1.9706819 3.46852726,2.62009895 C3.25205388,3.26951601 3.03969195,3.43737463 2.49439862,3.56716498 C2.12492963,3.65510317 1.57439215,3.51304893 1.27674317,3.29657556 L1.27674317,3.29657556 Z" id="path3255" fill="#A3AFB8"></path>
                </g>
                <g id="g3257" transform="translate(29.571847, 5.713991)">
                    <path d="M4.442354,2.41528657 C4.44238008,3.59117696 3.50324286,4.54509047 2.34324685,4.54742443 C1.18325083,4.54976165 0.240384497,3.59963267 0.235804596,2.42375205 C0.231224695,1.24787144 1.16665888,0.290228814 2.32663859,0.2832791 C3.48661831,0.276326125 4.43315509,1.22269339 4.44228881,2.39854793" id="path3259" stroke="#1E1E1E" stroke-width="0.731154309" fill="#EEEEEE"></path>
                    <path d="M1.35945804,3.51014694 C1.35945804,3.51014694 3.05937059,3.48133105 3.23224311,2.78984098 C3.40511563,2.0983509 3.11699585,1.20517894 3.11699585,1.20517894 C3.11699585,1.20517894 3.92373319,2.09835416 3.69323867,2.78984424 C3.46274089,3.48133431 3.23662091,3.6600678 2.6560003,3.79826672 C2.26259495,3.89190206 1.67639045,3.74064472 1.35945804,3.51014694 L1.35945804,3.51014694 Z" id="path3261" fill="#A3AFB8"></path>
                </g>
                <g id="g3263" transform="translate(24.357222, 3.657519)">
                    <path d="M4.442354,2.41528657 C4.44238008,3.59117696 3.50324286,4.54509047 2.34324685,4.54742443 C1.18325083,4.54976165 0.240384497,3.59963267 0.235804596,2.42375205 C0.231224695,1.24787144 1.16665888,0.290228814 2.32663859,0.2832791 C3.48661831,0.276326125 4.43315509,1.22269339 4.44228881,2.39854793" id="path3265" stroke="#1E1E1E" stroke-width="0.731154309" fill="#EEEEEE"></path>
                    <path d="M1.35945804,3.51014694 C1.35945804,3.51014694 3.05937059,3.48133105 3.23224311,2.78984098 C3.40511563,2.0983509 3.11699585,1.20517894 3.11699585,1.20517894 C3.11699585,1.20517894 3.92373319,2.09835416 3.69323867,2.78984424 C3.46274089,3.48133431 3.23662091,3.6600678 2.6560003,3.79826672 C2.26259495,3.89190206 1.67639045,3.74064472 1.35945804,3.51014694 L1.35945804,3.51014694 Z" id="path3267" fill="#A3AFB8"></path>
                </g>
                <g id="g3269" transform="translate(19.362932, 1.307265)">
                    <path d="M4.442354,2.41528657 C4.44238008,3.59117696 3.50324286,4.54509047 2.34324685,4.54742443 C1.18325083,4.54976165 0.240384497,3.59963267 0.235804596,2.42375205 C0.231224695,1.24787144 1.16665888,0.290228814 2.32663859,0.2832791 C3.48661831,0.276326125 4.43315509,1.22269339 4.44228881,2.39854793" id="path3271" stroke="#1E1E1E" stroke-width="0.731154309" fill="#EEEEEE"></path>
                    <path d="M1.35945804,3.51014694 C1.35945804,3.51014694 3.05937059,3.48133105 3.23224311,2.78984098 C3.40511563,2.0983509 3.11699585,1.20517894 3.11699585,1.20517894 C3.11699585,1.20517894 3.92373319,2.09835416 3.69323867,2.78984424 C3.46274089,3.48133431 3.23662091,3.6600678 2.6560003,3.79826672 C2.26259495,3.89190206 1.67639045,3.74064472 1.35945804,3.51014694 L1.35945804,3.51014694 Z" id="path3273" fill="#A3AFB8"></path>
                </g>
                <g id="g3275" transform="translate(13.634189, 0.058693)">
                    <path d="M4.442354,2.41528657 C4.44238008,3.59117696 3.50324286,4.54509047 2.34324685,4.54742443 C1.18325083,4.54976165 0.240384497,3.59963267 0.235804596,2.42375205 C0.231224695,1.24787144 1.16665888,0.290228814 2.32663859,0.2832791 C3.48661831,0.276326125 4.43315509,1.22269339 4.44228881,2.39854793" id="path3277" stroke="#1E1E1E" stroke-width="0.731154309" fill="#EEEEEE"></path>
                    <path d="M1.35945804,3.51014694 C1.35945804,3.51014694 3.05937059,3.48133105 3.23224311,2.78984098 C3.40511563,2.0983509 3.11699585,1.20517894 3.11699585,1.20517894 C3.11699585,1.20517894 3.92373319,2.09835416 3.69323867,2.78984424 C3.46274089,3.48133431 3.23662091,3.6600678 2.6560003,3.79826672 C2.26259495,3.89190206 1.67639045,3.74064472 1.35945804,3.51014694 L1.35945804,3.51014694 Z" id="path3279" fill="#A3AFB8"></path>
                </g>
                <g id="g3281" transform="translate(6.877209, 1.674492)">
                    <path d="M4.442354,2.41528657 C4.44238008,3.59117696 3.50324286,4.54509047 2.34324685,4.54742443 C1.18325083,4.54976165 0.240384497,3.59963267 0.235804596,2.42375205 C0.231224695,1.24787144 1.16665888,0.290228814 2.32663859,0.2832791 C3.48661831,0.276326125 4.43315509,1.22269339 4.44228881,2.39854793" id="path3283" stroke="#1E1E1E" stroke-width="0.731154309" fill="#EEEEEE"></path>
                    <path d="M1.35945804,3.51014694 C1.35945804,3.51014694 3.05937059,3.48133105 3.23224311,2.78984098 C3.40511563,2.0983509 3.11699585,1.20517894 3.11699585,1.20517894 C3.11699585,1.20517894 3.92373319,2.09835416 3.69323867,2.78984424 C3.46274089,3.48133431 3.23662091,3.6600678 2.6560003,3.79826672 C2.26259495,3.89190206 1.67639045,3.74064472 1.35945804,3.51014694 L1.35945804,3.51014694 Z" id="path3285" fill="#A3AFB8"></path>
                </g>
                <g id="g3287" transform="translate(2.103257, 6.448445)">
                    <path d="M4.442354,2.41528657 C4.44238008,3.59117696 3.50324286,4.54509047 2.34324685,4.54742443 C1.18325083,4.54976165 0.240384497,3.59963267 0.235804596,2.42375205 C0.231224695,1.24787144 1.16665888,0.290228814 2.32663859,0.2832791 C3.48661831,0.276326125 4.43315509,1.22269339 4.44228881,2.39854793" id="path3289" stroke="#1E1E1E" stroke-width="0.731154309" fill="#EEEEEE"></path>
                    <path d="M1.35945804,3.51014694 C1.35945804,3.51014694 3.05937059,3.48133105 3.23224311,2.78984098 C3.40511563,2.0983509 3.11699585,1.20517894 3.11699585,1.20517894 C3.11699585,1.20517894 3.92373319,2.09835416 3.69323867,2.78984424 C3.46274089,3.48133431 3.23662091,3.6600678 2.6560003,3.79826672 C2.26259495,3.89190206 1.67639045,3.74064472 1.35945804,3.51014694 L1.35945804,3.51014694 Z" id="path3291" fill="#A3AFB8"></path>
                </g>
                <g id="g3293" transform="translate(0.120228, 13.131980)">
                    <path d="M4.442354,2.41528657 C4.44238008,3.59117696 3.50324286,4.54509047 2.34324685,4.54742443 C1.18325083,4.54976165 0.240384497,3.59963267 0.235804596,2.42375205 C0.231224695,1.24787144 1.16665888,0.290228814 2.32663859,0.2832791 C3.48661831,0.276326125 4.43315509,1.22269339 4.44228881,2.39854793" id="path3295" stroke="#1E1E1E" stroke-width="0.731154309" fill="#EEEEEE"></path>
                    <path d="M1.35945804,3.51014694 C1.35945804,3.51014694 3.05937059,3.48133105 3.23224311,2.78984098 C3.40511563,2.0983509 3.11699585,1.20517894 3.11699585,1.20517894 C3.11699585,1.20517894 3.92373319,2.09835416 3.69323867,2.78984424 C3.46274089,3.48133431 3.23662091,3.6600678 2.6560003,3.79826672 C2.26259495,3.89190206 1.67639045,3.74064472 1.35945804,3.51014694 L1.35945804,3.51014694 Z" id="path3297" fill="#A3AFB8"></path>
                </g>
                <g id="g3299" transform="translate(1.001574, 20.109296)">
                    <path d="M4.442354,2.41528657 C4.44238008,3.59117696 3.50324286,4.54509047 2.34324685,4.54742443 C1.18325083,4.54976165 0.240384497,3.59963267 0.235804596,2.42375205 C0.231224695,1.24787144 1.16665888,0.290228814 2.32663859,0.2832791 C3.48661831,0.276326125 4.43315509,1.22269339 4.44228881,2.39854793" id="path3301" stroke="#1E1E1E" stroke-width="0.731154309" fill="#EEEEEE"></path>
                    <path d="M1.35945804,3.51014694 C1.35945804,3.51014694 3.05937059,3.48133105 3.23224311,2.78984098 C3.40511563,2.0983509 3.11699585,1.20517894 3.11699585,1.20517894 C3.11699585,1.20517894 3.92373319,2.09835416 3.69323867,2.78984424 C3.46274089,3.48133431 3.23662091,3.6600678 2.6560003,3.79826672 C2.26259495,3.89190206 1.67639045,3.74064472 1.35945804,3.51014694 L1.35945804,3.51014694 Z" id="path3303" fill="#A3AFB8"></path>
                </g>
                <g id="g3305" transform="translate(4.233175, 26.425603)">
                    <path d="M4.442354,2.41528657 C4.44238008,3.59117696 3.50324286,4.54509047 2.34324685,4.54742443 C1.18325083,4.54976165 0.240384497,3.59963267 0.235804596,2.42375205 C0.231224695,1.24787144 1.16665888,0.290228814 2.32663859,0.2832791 C3.48661831,0.276326125 4.43315509,1.22269339 4.44228881,2.39854793" id="path3307" stroke="#1E1E1E" stroke-width="0.731154309" fill="#EEEEEE"></path>
                    <path d="M1.35945804,3.51014694 C1.35945804,3.51014694 3.05937059,3.48133105 3.23224311,2.78984098 C3.40511563,2.0983509 3.11699585,1.20517894 3.11699585,1.20517894 C3.11699585,1.20517894 3.92373319,2.09835416 3.69323867,2.78984424 C3.46274089,3.48133431 3.23662091,3.6600678 2.6560003,3.79826672 C2.26259495,3.89190206 1.67639045,3.74064472 1.35945804,3.51014694 L1.35945804,3.51014694 Z" id="path3309" fill="#A3AFB8"></path>
                </g>
                <g id="g3313" transform="translate(10.983176, 37.020591) rotate(-14.999999) translate(-10.983176, -37.020591) translate(9.552053, 34.738789)">
                    <path d="M2.78619991,2.41528678 C2.78621626,3.59117727 2.19719881,4.54509086 1.46966094,4.54742482 C0.742123061,4.54976203 0.150766747,3.59963297 0.147894279,2.42375226 C0.145021811,1.24787155 0.731716754,0.290228839 1.45924441,0.283279124 C2.18677206,0.276326149 2.78043044,1.2226935 2.78615902,2.39854813" id="path3315" stroke="#1E1E1E" stroke-width="0.770596971" fill="#EEEEEE"></path>
                    <path d="M0.852638456,3.51014724 C0.852638456,3.51014724 1.91880657,3.48133135 2.02723048,2.78984122 C2.1356544,2.09835108 1.95494856,1.20517904 1.95494856,1.20517904 C1.95494856,1.20517904 2.46092613,2.09835434 2.31636228,2.78984448 C2.17179638,3.48133461 2.0299762,3.66006811 1.66581677,3.79826704 C1.41907688,3.89190239 1.05141529,3.74064504 0.852638456,3.51014724 L0.852638456,3.51014724 Z" id="path3317" fill="#A3AFB8"></path>
                </g>
                <g id="g3319" transform="translate(65.365217, 36.750430) rotate(13.866224) translate(-65.365217, -36.750430) translate(63.934094, 34.468629)">
                    <path d="M2.78620008,2.4152867 C2.78621644,3.59117716 2.19719895,4.54509072 1.46966103,4.54742468 C0.742123108,4.5497619 0.150766756,3.59963286 0.147894288,2.42375219 C0.14502182,1.24787151 0.7317168,0.29022883 1.4592445,0.283279115 C2.1867722,0.276326141 2.78043061,1.22269346 2.78615919,2.39854806" id="path3321" stroke="#1E1E1E" stroke-width="0.770596968" fill="#EEEEEE"></path>
                    <path d="M0.85263851,3.51014714 C0.85263851,3.51014714 1.91880669,3.48133124 2.02723061,2.78984113 C2.13565453,2.09835102 1.95494868,1.20517901 1.95494868,1.20517901 C1.95494868,1.20517901 2.46092628,2.09835428 2.31636242,2.78984439 C2.17179652,3.4813345 2.02997632,3.660068 1.66581687,3.79826693 C1.41907697,3.89190228 1.05141535,3.74064493 0.85263851,3.51014714 L0.85263851,3.51014714 Z" id="path3323" fill="#A3AFB8"></path>
                </g>
            </g>
            <path d="M297.95153,33.632299 L298.1031,37.194194 C298.1031,37.194194 293.88024,37.565054 293.70757,37.952041 C292.8871,39.790961 294.69277,42.271784 294.69277,42.271784 C294.69277,42.271784 296.1126,41.210798 299.69459,41.210795 C303.10491,41.210793 304.84795,42.044429 304.84795,42.044429 C304.84795,42.044429 305.75737,40.604513 305.75737,39.543526 C305.75737,38.482538 305.37845,37.421549 305.37845,37.421549 C305.37845,37.421549 303.6354,37.194194 303.10491,37.194194 L301.5892,37.194194 L301.43764,33.556514 L297.95153,33.632299 L297.95153,33.632299 Z" id="path5515" stroke="#000000" stroke-width="0.7311542" fill="#B3A192"></path>
            <path d="M303.97435,39.158202 C303.97442,39.557647 303.63703,39.881744 303.22021,39.8826 C302.80339,39.88346 302.46455,39.560755 302.46284,39.161311 C302.46114,38.761865 302.79719,38.436507 303.214,38.434079 C303.63081,38.431655 303.97098,38.75308 303.97433,39.152516" id="path5517" stroke="#121116" stroke-width="0.37258548" fill="#F0DDCB"></path>
            <path d="M305.71503,39.546085 C305.7151,39.96291 305.36302,40.301107 304.92808,40.301999 C304.49313,40.302896 304.13954,39.966152 304.13776,39.549329 C304.13597,39.132505 304.48666,38.79299 304.9216,38.790456 C305.35655,38.787927 305.71151,39.123338 305.71501,39.54015" id="path5519" stroke="#121116" stroke-width="0.37258548" fill="#F0DDCB"></path>
            <path d="M302.23128,39.130546 C302.23136,39.529991 301.89395,39.854087 301.47715,39.854945 C301.06033,39.855804 300.72148,39.533098 300.71976,39.133656 C300.71806,38.734209 301.05412,38.408851 301.47092,38.406424 C301.88774,38.403998 302.2279,38.725424 302.23125,39.124859" id="path5521" stroke="#121116" stroke-width="0.37258548" fill="#F0DDCB"></path>
            <path d="M298.73801,39.16972 C298.73809,39.585408 298.38698,39.922684 297.95321,39.923574 C297.51945,39.92447 297.16682,39.588643 297.16504,39.172956 C297.16326,38.757267 297.51299,38.418678 297.94675,38.416153 C298.3805,38.413628 298.7345,38.748125 298.73798,39.163802" id="path5523" stroke="#121116" stroke-width="0.37258548" fill="#F0DDCB"></path>
            <path d="M296.799,39.299092 C296.79908,39.71478 296.44796,40.052056 296.01419,40.052948 C295.58043,40.053842 295.2278,39.718016 295.22602,39.302329 C295.22424,38.88664 295.57397,38.548051 296.00773,38.545525 C296.44149,38.543001 296.79548,38.877498 296.79897,39.293175" id="path5525" stroke="#121116" stroke-width="0.37258548" fill="#F0DDCB"></path>
            <path d="M300.35814,37.118409 C300.35821,37.469125 300.06198,37.753685 299.696,37.754436 C299.33004,37.755189 299.03253,37.471853 299.03102,37.12114 C299.02953,36.770423 299.3246,36.484756 299.69056,36.482625 C300.05652,36.480496 300.35518,36.76271 300.35812,37.113417" id="path5527" stroke="#121116" stroke-width="0.37258548" fill="#F0DDCB"></path>
            <path d="M300.35814,34.162795 C300.35821,34.513512 300.06198,34.79807 299.696,34.798823 C299.33004,34.799577 299.03252,34.516239 299.03102,34.165526 C299.02953,33.814809 299.3246,33.529141 299.69055,33.52701 C300.05651,33.524882 300.35518,33.807095 300.35812,34.157802" id="path5529" stroke="#121116" stroke-width="0.37258548" fill="#F0DDCB"></path>
            <path d="M300.35814,35.754278 C300.35821,36.104995 300.06198,36.389554 299.696,36.390306 C299.33004,36.391059 299.03253,36.107722 299.03102,35.757008 C299.02953,35.406292 299.3246,35.120625 299.69056,35.118494 C300.05652,35.116366 300.35518,35.39858 300.35812,35.749286" id="path5531" stroke="#121116" stroke-width="0.37258548" fill="#F0DDCB"></path>
            <path d="M294.83375,39.827158 C294.83383,40.228311 294.495,40.55379 294.0764,40.554648 C293.65781,40.555511 293.31752,40.231429 293.3158,39.830283 C293.31407,39.429134 293.65158,39.102385 294.07017,39.099947 C294.48875,39.097513 294.83037,39.420311 294.83373,39.82145" id="path5533" stroke="#121116" stroke-width="0.37258551" fill="#F0DDCB"></path>
            <path d="M300.52821,38.975137 C300.52825,39.414003 300.15604,39.770038 299.69627,39.770926 C299.2365,39.771813 298.86278,39.417219 298.86095,38.978357 C298.85912,38.539495 299.22988,38.182068 299.68962,38.179457 C300.14939,38.176849 300.52455,38.530038 300.52819,38.968891" id="path5535" stroke="#4D3126" stroke-width="0.37258548" fill="#916C68"></path>
            <g id="g5545" transform="translate(298.067117, 26.753387)">
                <path d="M3.2219925,1.65253436 C3.2220118,2.52279749 2.52696701,3.22877805 1.66846713,3.23050538 C0.809967243,3.23223513 0.112162573,2.52905546 0.10877304,1.65879957 C0.105383508,0.788543673 0.797687726,0.0798032362 1.65617555,0.0746598314 C2.51466337,0.0695140141 3.21518449,0.769909686 3.22194425,1.64014628" id="path5541" stroke="#1E1E1E" stroke-width="0.731154258" fill="#EEEEEE"></path>
                <path d="M0.940375158,2.46282797 C0.940375158,2.46282797 2.19846096,2.44150321 2.32640375,1.92973783 C2.45434365,1.41797246 2.24111048,0.756948185 2.24111048,0.756948185 C2.24111048,0.756948185 2.83816624,1.41797534 2.6675797,1.92974072 C2.49699317,2.44150321 2.32964343,2.57378192 1.89993164,2.67606114 C1.60877886,2.74536084 1.17493309,2.63341739 0.940375158,2.46282797 L0.940375158,2.46282797 Z" id="path5543" fill="#A3AFB8"></path>
            </g>
            <path d="M274.9794,81.334677 C274.9794,81.334677 276.36824,82.630926 276.73858,83.788292 C277.10895,84.945657 277.66448,88.047395 277.66448,88.047395 C277.66448,88.047395 292.20098,84.019763 299.33034,84.343826 C306.45972,84.66789 322.89428,88.278867 322.89428,88.278867 C322.89428,88.278867 323.17206,86.519673 323.49611,84.66789 C323.82018,82.816105 325.16272,80.779144 325.16272,80.779144 C325.16272,80.779144 309.46886,75.87192 299.56183,76.334865 C289.65478,76.79781 284.70126,77.862584 282.47912,78.557003 C280.25699,79.251425 274.84051,81.380973 274.9794,81.334677 L274.9794,81.334677 Z" id="path34972" stroke="#000000" stroke-width="0.32597154" fill="#FFCC00"></path>
            <path d="M296.66319,22.529814 L302.91544,22.529814 C302.91544,22.529814 301.3727,23.597259 301.05871,24.613895 C300.78849,25.48883 300.86925,26.925336 300.86925,26.925336 C300.86925,26.925336 302.57441,26.925336 303.33226,26.281165 C304.09011,25.636993 305.68159,24.500219 305.68159,24.500219 L305.68159,32.457635 C305.68159,32.457635 304.14713,30.973737 303.21858,30.487228 C302.10323,29.902846 300.98292,29.691486 300.98292,29.691486 C300.98292,29.691486 300.98292,30.979829 301.51341,31.73768 C302.04391,32.495529 304.16589,35.375354 304.16589,35.375354 L295.22327,35.716389 C295.22327,35.716389 297.34439,33.479829 298.21678,31.851357 C298.78517,30.790365 298.5578,29.691486 298.5578,29.691486 C298.5578,29.691486 297.04211,29.691486 296.28426,30.221982 C295.52641,30.752474 294.20018,32.343959 294.20018,32.343959 L294.20019,24.689681 C294.20019,24.689681 294.76856,26.167489 296.01901,26.735876 C297.26946,27.304263 298.44414,27.001123 298.44414,27.001123 C298.44414,27.001123 298.68676,25.478082 298.17888,24.538114 C297.65527,23.569029 296.5495,22.491918 296.66319,22.529814 L296.66319,22.529814 Z" id="path5537" stroke="#000000" stroke-width="0.7311542" fill="#FFCC00"></path>
            <path d="M296.17319,47.780318 C296.17319,47.780318 291.72539,47.726732 287.92063,45.476035 C284.11588,43.225338 280.2784,40.868081 274.63081,42.207164 C273.47421,42.481397 269.21841,44.350687 267.34283,50.406129 C266.02678,54.655112 267.55719,59.784037 268.89689,62.088322 C270.23658,64.392607 272.3969,66.728261 272.3969,66.728261 L274.69453,65.171989 C274.69453,65.171989 268.84329,60.212739 269.53994,53.782177 C270.23658,47.351613 273.45187,45.851149 273.45187,45.851149 C273.45187,45.851149 277.41738,42.743044 282.72261,45.690383 C288.02781,48.637728 293.22585,49.977429 293.22585,49.977429 C293.22585,49.977429 298.10237,51.156363 298.53107,51.102777 C298.95977,51.049185 296.06602,47.726728 296.17319,47.780318 L296.17319,47.780318 Z" id="path3325" stroke="#121116" stroke-width="0.7311542" fill="#FFCC00"></path>
            <path d="M271.57209,71.899604 L269.2088,67.25451 L276.29868,64.483752 C276.29868,64.483752 274.58733,66.765553 274.17986,68.39541 C273.6822,70.386083 273.85389,72.062591 273.85389,72.062591 C273.85389,72.062591 274.50583,71.573632 275.32076,70.269746 C275.93916,69.280302 276.95062,65.706146 276.95062,65.706146 L280.12884,75.892757 C280.15338,75.92003 278.495,74.258946 277.32903,74.061734 C276.01463,73.839419 274.42434,74.262897 274.42434,74.262897 L272.55,74.833349 L271.57209,71.899604 L271.57209,71.899604 Z" id="path16425" stroke="#000000" stroke-width="0.74973458" fill="#FFCC00"></path>
            <path d="M304.18942,47.6965 C304.18942,47.6965 308.63722,47.642915 312.44197,45.392217 C316.24672,43.141521 320.08419,40.784266 325.7318,42.123346 C326.88839,42.397579 331.1442,44.26687 333.01976,50.322313 C334.33583,54.571297 332.80542,59.700222 331.46572,62.004504 C330.12603,64.308789 329.21483,65.664349 329.21483,65.664349 L326.45335,64.672591 C326.45335,64.672591 331.51931,60.128922 330.82266,53.698362 C330.12603,47.267797 326.91073,45.767333 326.91073,45.767333 C326.91073,45.767333 322.94523,42.659226 317.64001,45.606568 C312.33479,48.553911 307.13675,49.893612 307.13675,49.893612 C307.13675,49.893612 302.26025,51.072547 301.83155,51.01896 C301.40284,50.96537 304.29659,47.642911 304.18942,47.6965 L304.18942,47.6965 Z" id="path4296" stroke="#121116" stroke-width="0.7311542" fill="#FFCC00"></path>
            <rect id="rect5267" stroke="#121116" stroke-width="0.7311542" fill="#FFCC00" x="301.89236" y="43.294868" width="1.8567302" height="17.316853"></rect>
            <rect id="rect5269" stroke="#121116" stroke-width="0.7311542" fill="#FFCC00" x="295.64011" y="43.219086" width="2.1977625" height="17.316853"></rect>
            <path d="M305.75737,39.202492 C305.75753,42.274554 303.05051,44.766761 299.70676,44.772935 C296.36302,44.779107 293.64513,42.296918 293.63183,39.22488 C293.61856,36.152839 296.31492,33.650893 299.6586,33.632659 C303.00228,33.614428 305.73078,36.086794 305.7572,39.158763" id="path5513" stroke="#121116" stroke-width="0.7311542" fill="#FFCC00"></path>
            <path d="M294.31675,60.466922 L304.74266,60.381111 C304.74266,60.381111 303.51987,61.110497 302.4687,62.976864 C301.41753,64.843234 301.5677,66.02312 301.5677,66.02312 C301.5677,66.02312 303.15518,66.001669 304.27071,65.186471 C305.38624,64.371279 306.63049,62.848151 306.63049,62.848151 L306.58759,72.458875 C306.58759,72.458875 305.83675,71.236079 304.59251,70.506696 C303.34826,69.777308 301.58915,69.777308 301.58915,69.777308 L298.02803,69.777308 C298.02803,69.777308 296.39968,69.873531 295.66826,70.356527 C294.63654,71.037833 293.35139,72.351611 293.35139,72.351611 L293.17977,63.277201 C293.17977,63.277201 293.69463,64.864687 295.36793,65.508262 C297.04123,66.151835 297.98513,66.066024 297.98513,66.066024 C297.98513,66.066024 297.98513,64.028038 297.12703,62.976864 C296.26893,61.925689 294.31675,60.509828 294.31675,60.466922 L294.31675,60.466922 Z" id="path19336" stroke="#000000" stroke-width="0.6193459" fill="#FFCC00"></path>
            <path d="M300.12586,68.013185 C300.12586,68.013185 301.65131,71.572575 303.42501,73.143505 C304.45749,74.057938 307.56185,74.746724 308.96518,74.388434 C312.11918,73.583166 314.2868,71.059764 314.2868,71.059764 C314.2868,71.059764 314.17396,73.824252 316.1486,75.347544 C318.12324,76.870831 319.70294,77.265757 321.33906,76.81441 C322.97519,76.363067 327.60147,72.921561 327.60147,72.921561 L328.56058,73.767835 C328.56058,73.767835 325.90731,76.344465 323.11867,77.71224 C321.68286,78.416474 317.32479,78.024971 315.91433,76.896608 C314.50388,75.768245 313.6662,73.0344 313.6662,73.0344 C313.6662,73.0344 312.79788,74.79195 310.93608,75.412551 C309.07429,76.033148 306.51569,76.006239 304.14013,75.312037 C302.54101,74.844728 300.46436,72.639473 300.06943,71.906036 C299.67452,71.1726 299.78734,70.777673 299.78734,70.777673 C299.78734,70.777673 298.6157,74.135838 296.17659,75.051997 C293.87319,75.917173 291.24729,75.924043 289.01635,75.282531 C286.76112,74.634032 286.58551,73.372907 286.58551,73.372907 C286.58551,73.372907 286.41626,76.927249 281.50788,77.942773 C276.5995,78.9583 272.70665,75.347544 272.70665,75.347544 L273.38367,74.332013 C273.38367,74.332013 276.14815,77.435012 280.37951,77.152919 C284.61088,76.870831 286.02133,71.454692 286.02133,71.454692 C286.02133,71.454692 287.88312,74.275598 292.84792,74.332013 C297.81271,74.388434 299.22316,67.900352 299.22316,67.900352 L300.12586,68.013185 L300.12586,68.013185 Z" id="path21276" stroke="#000000" stroke-width="0.58674878" fill="#F6CA1F"></path>
            <g id="g13496" transform="translate(277.928543, 57.275829)" stroke="#000000" fill="#FFCC00">
                <path d="M9.96450523,12.808037 C9.96450523,12.808037 10.001666,11.0801463 10.3730715,10.5609257 C10.8997601,9.82461778 11.616275,9.79455342 11.9818,9.89700629 C12.4327752,10.0234083 12.9010693,10.4332491 12.824466,11.6334081 C12.7478594,12.8335703 12.4158997,13.4208832 12.7733927,13.8805194 C13.130889,14.3401557 13.181959,14.6465787 13.871415,14.5444388 C14.5608678,14.4422989 14.8672909,14.2124791 14.7140809,13.5740963 C14.5608678,12.9357135 14.3565846,13.6251663 14.2289081,13.0889235 C14.1012315,12.5526806 14.8958069,10.2362026 14.7651509,8.79898726 C14.6374744,7.39454188 14.1012315,6.27098623 13.0287458,5.99009976 C12.0207895,5.72611166 11.1646642,5.73474339 10.2198583,6.4241994 C9.31366707,7.08547516 8.15149683,9.25862351 8.15149683,9.25862351 L8.12596021,13.906056 L10.0155752,13.8039128 L9.96450523,12.808037 L9.96450523,12.808037 Z" id="path11548" stroke-width="0.717137536"></path>
                <path d="M6.44449439,14.0590475 C6.44449439,14.0590475 5.72172408,12.4891455 5.17415047,12.1609801 C4.3976307,11.6956068 3.72850554,11.9536165 3.43410429,12.1932676 C3.07087739,12.4889401 2.80474114,13.0514693 3.35334482,14.1216471 C3.90195177,15.1918282 4.44049271,15.5981648 4.29581673,16.1622033 C4.15114402,16.7262417 4.22643694,17.0276253 3.55340011,17.2087481 C2.88036655,17.3898677 2.50773538,17.301223 2.3938083,16.6546746 C2.27988449,16.0081197 2.74203724,16.5590215 2.64540296,16.0163277 C2.54877194,15.4736306 0.896751131,13.6657954 0.443748399,12.2955966 C0.00107570628,10.9566389 0.0450688334,9.71245421 0.916729931,9.02737926 C1.73594872,8.38352341 2.52457181,8.05021419 3.66588639,8.30596499 C4.76055444,8.55126514 6.69257833,10.0811346 6.69257833,10.0811346 L8.56833301,14.3332907 L6.79458463,14.9927573 L6.44449439,14.0590475 L6.44449439,14.0590475 Z" id="path12519" stroke-width="0.717137536"></path>
                <path d="M6.08313205,0.295714916 C6.08313205,0.295714916 4.24458703,3.38549214 4.65315332,5.76028 C5.0617196,8.13506786 7.51311079,13.2421366 7.51311079,13.2421366 L7.5386474,13.9315894 L8.86137822,13.7885922 L8.56006311,13.0889235 C8.56006311,13.0889235 9.22071953,6.97526091 8.81541296,5.04529063 C8.51414349,3.61072222 6.10866867,0.321251531 6.08313205,0.295714916 L6.08313205,0.295714916 Z" id="path11546" stroke-width="0.717137536"></path>
                <path d="M9.01969937,14.4422989 C9.01969937,14.4422989 9.93836883,15.5415501 11.0369909,16.0765607 C12.2371499,16.6610213 12.7305112,16.6648319 13.2074956,16.3063772 C13.556973,16.0437452 13.4373154,14.9274685 13.0287491,14.6210421 C12.6201828,14.3146191 12.1566675,14.4703357 12.0839367,14.7742553 C11.9611432,15.2873965 11.7937372,15.2532184 11.4200206,15.055145 C10.8743148,14.7659137 9.60701218,13.9826626 9.60701218,13.9826626 L9.01969937,14.4422989 L9.01969937,14.4422989 Z" id="path12521" stroke-width="0.717137536"></path>
                <path d="M7.59654322,14.6918432 C7.59654322,14.6918432 7.20985941,16.0712572 6.42753409,17.0099674 C5.57290827,18.0354382 5.12456041,18.2413642 4.54249248,18.1102095 C4.11602709,18.0141131 3.76708428,16.9470451 4.01392301,16.4999555 C4.26076826,16.0528626 4.74735585,16.0046612 4.93839477,16.2519693 C5.26094366,16.6695292 5.39957939,16.5696678 5.65910494,16.2356838 C6.03805996,15.7479977 6.87234515,14.5136899 6.87234515,14.5136899 L7.59654322,14.6918432 L7.59654322,14.6918432 Z" id="path13492" stroke-width="0.717137536"></path>
                <path d="M11.1391317,14.0592709 C11.1390632,14.467684 9.85057892,14.7989788 8.25917895,14.7997644 C6.66777897,14.8005467 5.3743464,14.4705265 5.36816598,14.0621167 C5.36198555,13.6537068 6.64539124,13.3211147 8.23676514,13.3187286 C9.82813903,13.3163392 11.1266144,13.6450555 11.1390437,14.0534556" id="path13494" stroke-width="0.717137505" transform="translate(8.253638, 14.059241) rotate(-9.524881) translate(-8.253638, -14.059241) "></path>
            </g>
            <g id="g13504" transform="translate(315.002659, 66.463826) rotate(20.528987) translate(-315.002659, -66.463826) translate(307.505313, 57.336622)" stroke="#000000" fill="#FFCC00">
                <path d="M9.96450394,12.8080353 C9.96450394,12.8080353 10.0016647,11.0801449 10.3730702,10.5609243 C10.8997587,9.82461651 11.6162735,9.79455215 11.9817985,9.89700501 C12.4327736,10.023407 12.9010676,10.4332478 12.8244643,11.6334066 C12.7478577,12.8335687 12.4158981,13.4208814 12.7733911,13.8805176 C13.1308873,14.3401538 13.1819573,14.6465769 13.8714132,14.5444369 C14.5608659,14.442297 14.8672889,14.2124773 14.714079,13.5740946 C14.5608659,12.9357119 14.3565828,13.6251645 14.2289062,13.0889218 C14.1012297,12.552679 14.8958049,10.2362012 14.765149,8.79898612 C14.6374725,7.39454092 14.1012297,6.27098541 13.0287442,5.99009898 C12.0207879,5.72611092 11.1646628,5.73474264 10.219857,6.42419857 C9.31366587,7.08547425 8.15149577,9.25862231 8.15149577,9.25862231 L8.12595916,13.9060542 L10.0155739,13.803911 L9.96450394,12.8080353 L9.96450394,12.8080353 Z" id="path13506" stroke-width="0.717137365"></path>
                <path d="M6.44449355,14.0590457 C6.44449355,14.0590457 5.72172334,12.4891439 5.1741498,12.1609785 C4.39763013,11.6956052 3.72850505,11.953615 3.43410384,12.193266 C3.07087699,12.4889385 2.80474078,13.0514676 3.35334439,14.1216453 C3.90195126,15.1918262 4.44049213,15.5981628 4.29581617,16.1622012 C4.15114348,16.7262395 4.22643639,17.0276231 3.55339965,17.2087459 C2.88036618,17.3898655 2.50773505,17.3012208 2.39380799,16.6546725 C2.27988419,16.0081177 2.74203689,16.5590194 2.64540262,16.0163256 C2.54877161,15.4736286 0.896751015,13.6657936 0.443748341,12.295595 C0.00107570614,10.9566375 0.0450688276,9.71245295 0.916729812,9.02737809 C1.73594849,8.38352233 2.52457148,8.05021315 3.66588592,8.30596391 C4.76055382,8.55126403 6.69257747,10.0811333 6.69257747,10.0811333 L8.5683319,14.3332888 L6.79458375,14.9927554 L6.44449355,14.0590457 L6.44449355,14.0590457 Z" id="path13508" stroke-width="0.717137365"></path>
                <path d="M6.08313126,0.295714878 C6.08313126,0.295714878 4.24458648,3.3854917 4.65315272,5.76027925 C5.06171895,8.13506681 7.51310981,13.2421349 7.51310981,13.2421349 L7.53864643,13.9315876 L8.86137707,13.7885904 L8.560062,13.0889218 C8.560062,13.0889218 9.22071834,6.97526 8.81541182,5.04528998 C8.51414239,3.61072175 6.10866788,0.32125149 6.08313126,0.295714878 L6.08313126,0.295714878 Z" id="path13510" stroke-width="0.717137365"></path>
                <path d="M9.0196982,14.442297 C9.0196982,14.442297 9.93836754,15.5415481 11.0369895,16.0765587 C12.2371483,16.6610191 12.7305095,16.6648298 13.2074939,16.3063751 C13.5569713,16.0437431 13.4373136,14.9274665 13.0287474,14.6210402 C12.6201812,14.3146172 12.1566659,14.4703338 12.0839352,14.7742534 C11.9611417,15.2873946 11.7937357,15.2532164 11.4200191,15.0551431 C10.8743134,14.7659118 9.60701093,13.9826608 9.60701093,13.9826608 L9.0196982,14.442297 L9.0196982,14.442297 Z" id="path13512" stroke-width="0.717137365"></path>
                <path d="M7.59654223,14.6918413 C7.59654223,14.6918413 7.20985847,16.0712551 6.42753325,17.0099652 C5.57290754,18.0354358 5.12455974,18.2413619 4.54249189,18.1102072 C4.11602656,18.0141108 3.76708379,16.9470429 4.01392249,16.4999533 C4.26076771,16.0528605 4.74735524,16.0046591 4.93839413,16.2519672 C5.26094298,16.669527 5.39957869,16.5696656 5.6591042,16.2356817 C6.03805918,15.7479956 6.87234426,14.513688 6.87234426,14.513688 L7.59654223,14.6918413 L7.59654223,14.6918413 Z" id="path13514" stroke-width="0.717137365"></path>
                <path d="M11.1391303,14.0592691 C11.1390618,14.4676822 9.85057764,14.7989769 8.25917788,14.7997624 C6.66777811,14.8005448 5.3743457,14.4705246 5.36816528,14.0621148 C5.36198486,13.653705 6.64539038,13.321113 8.23676407,13.3187269 C9.82813776,13.3163375 11.1266129,13.6450538 11.1390422,14.0534538" id="path13516" stroke-width="0.717137412" transform="translate(8.253637, 14.059239) rotate(-9.524881) translate(-8.253637, -14.059239) "></path>
            </g>
            <path d="M274.43122,81.169335 C274.43122,81.169335 274.73538,82.446763 275.46533,81.777634 C276.1953,81.108507 286.23221,77.154565 300.40557,77.154565 C314.57892,77.154565 323.88588,81.047677 324.43335,81.290995 C324.98082,81.534317 325.22414,81.838463 325.71078,81.290995 C326.19742,80.743525 325.22414,79.89191 325.22414,79.89191 C325.22414,79.89191 315.3697,75.694651 299.97976,75.75548 C284.5898,75.816309 274.61371,80.19606 274.61371,80.19606 C274.61371,80.19606 273.94458,80.682696 274.43122,81.169335 L274.43122,81.169335 Z" id="path27095" stroke="#000000" stroke-width="0.32597154" fill="#CCA715"></path>
            <path d="M292.40382,87.064808 C292.40382,87.064808 292.85594,85.807761 293.64563,85.565832 C294.27525,85.372936 295.26952,85.99201 295.26952,85.99201 C295.26952,85.99201 294.07181,85.881792 293.69706,86.09488 C293.35852,86.287383 293.25619,86.859064 293.25619,86.859064 C293.25619,86.859064 293.51336,86.403492 294.43185,86.447582 C295.35033,86.491668 295.45322,86.491668 295.45322,86.491668 C295.45322,86.491668 293.89546,86.609237 293.5354,87.05746 C293.17536,87.505685 295.00499,87.711425 295.00499,87.711425 C295.00499,87.711425 292.20542,87.726119 291.83803,87.557116 C291.47064,87.388112 291.23552,86.814977 290.61094,86.991329 C289.98635,87.167678 289.34708,87.726119 289.34708,87.726119 C289.34708,87.726119 290.05984,86.528409 290.50806,86.521062 C290.95629,86.513714 291.2208,86.491668 291.62494,86.675366 C292.02908,86.859064 292.40382,87.064808 292.40382,87.064808 L292.40382,87.064808 Z" id="path27097" fill="#000000"></path>
            <path d="M281.93545,89.332368 C281.93545,89.332368 282.14733,88.013394 282.87867,87.629622 C283.46176,87.323633 284.55336,87.748184 284.55336,87.748184 C284.55336,87.748184 283.35592,87.861329 283.02705,88.140035 C282.72994,88.391815 282.73508,88.972563 282.73508,88.972563 C282.73508,88.972563 282.90358,88.477296 283.81438,88.350787 C284.72519,88.224282 284.82629,88.205265 284.82629,88.205265 C284.82629,88.205265 283.31712,88.60884 283.04616,89.115909 C282.7752,89.622977 284.61133,89.486865 284.61133,89.486865 C284.61133,89.486865 281.86276,90.018957 281.47045,89.920802 C281.07814,89.822645 280.74108,89.302867 280.15989,89.591664 C279.57869,89.880461 279.0537,90.547475 279.0537,90.547475 C279.0537,90.547475 279.53271,89.238628 279.97184,89.148526 C280.41098,89.058429 280.66686,88.987853 281.09799,89.093656 C281.52913,89.199458 281.93545,89.332368 281.93545,89.332368 L281.93545,89.332368 Z" id="path30014" fill="#000000"></path>
            <path d="M301.23277,86.600044 C301.23277,86.600044 301.75696,85.371301 302.55933,85.17553 C303.19908,85.019435 304.15581,85.695069 304.15581,85.695069 C304.15581,85.695069 302.96649,85.515648 302.58004,85.706667 C302.23092,85.879233 302.09563,86.444029 302.09563,86.444029 C302.09563,86.444029 302.37876,86.004118 303.29317,86.101348 C304.20755,86.198571 304.31026,86.204534 304.31026,86.204534 C304.31026,86.204534 302.74829,86.231653 302.36289,86.658266 C301.97748,87.084879 303.79212,87.396272 303.79212,87.396272 C303.79212,87.396272 300.9964,87.24875 300.63942,87.058747 C300.28243,86.868743 300.08089,86.282946 299.44716,86.422817 C298.81341,86.562685 298.14286,87.083154 298.14286,87.083154 C298.14286,87.083154 298.92381,85.928749 299.3717,85.94738 C299.81959,85.966014 300.08495,85.959331 300.47777,86.166134 C300.87059,86.372937 301.23277,86.600044 301.23277,86.600044 L301.23277,86.600044 Z" id="path30016" fill="#000000"></path>
            <path d="M310.07237,87.599994 C310.07237,87.599994 310.73635,86.44081 311.55609,86.340003 C312.20967,86.259624 313.08103,87.042282 313.08103,87.042282 C313.08103,87.042282 311.92077,86.725308 311.51466,86.86993 C311.1478,87.00058 310.94753,87.545728 310.94753,87.545728 C310.94753,87.545728 311.28007,87.141864 312.17686,87.345124 C313.07367,87.548384 313.17497,87.566286 313.17497,87.566286 C313.17497,87.566286 311.62052,87.410963 311.18797,87.789691 C310.75541,88.168415 312.52131,88.689427 312.52131,88.689427 C312.52131,88.689427 309.76191,88.216691 309.42953,87.986327 C309.09716,87.755965 308.96535,87.150653 308.31963,87.215619 C307.67388,87.280585 306.94719,87.719252 306.94719,87.719252 C306.94719,87.719252 307.85751,86.663856 308.30017,86.734623 C308.74282,86.805396 309.00714,86.82972 309.37316,87.080947 C309.73915,87.332173 310.07237,87.599994 310.07237,87.599994 L310.07237,87.599994 Z" id="path30018" fill="#000000"></path>
            <path d="M318.85007,89.16704 C318.85007,89.16704 319.46855,88.284193 320.13465,88.263235 C320.66574,88.246527 321.3086,88.939285 321.3086,88.939285 C321.3086,88.939285 320.39948,88.599573 320.06254,88.686038 C319.75817,88.764149 319.5573,89.187545 319.5573,89.187545 C319.5573,89.187545 319.8541,88.887367 320.55986,89.116401 C321.2656,89.345433 321.3457,89.36724 321.3457,89.36724 C321.3457,89.36724 320.10797,89.128554 319.73262,89.401196 C319.3573,89.673842 320.73817,90.221879 320.73817,90.221879 C320.73817,90.221879 318.55542,89.639857 318.3052,89.430393 C318.05498,89.22093 317.99342,88.724867 317.46977,88.729763 C316.94612,88.734666 316.33001,89.033926 316.33001,89.033926 C316.33001,89.033926 317.13884,88.252535 317.48937,88.341829 C317.8399,88.431121 318.05051,88.470032 318.32622,88.698723 C318.60191,88.927416 318.85007,89.16704 318.85007,89.16704 L318.85007,89.16704 Z" id="path30020" fill="#000000"></path>
            <path d="M290.63881,81.076418 C290.84972,82.123727 289.61775,83.254132 287.88776,83.600702 C286.15777,83.94727 284.58544,83.378645 284.37664,82.33092 C284.16575,81.283614 285.39771,80.153207 287.1277,79.806639 C288.85768,79.46007 290.43002,80.028694 290.63881,81.076418 L290.63881,81.076418 Z" id="path30022" stroke="#000000" stroke-width="0.43534634" fill="#0F6545"></path>
            <path d="M286.72035,80.905308 C286.77121,81.159141 286.50376,81.426749 286.12301,81.503026 C285.74225,81.579302 285.39237,81.435363 285.34152,81.181528 C285.29067,80.927692 285.55811,80.660085 285.93886,80.583809 C286.31962,80.507532 286.6695,80.651471 286.72035,80.905308 L286.72035,80.905308 Z" id="path30993" fill="#CECFC1"></path>
            <path d="M315.08763,82.343575 C314.76863,83.363165 313.14477,83.761416 311.46142,83.232901 C309.77807,82.704385 308.67327,81.449417 308.9943,80.430464 C309.31331,79.410874 310.93717,79.012622 312.62051,79.541141 C314.30386,80.069655 315.40866,81.324622 315.08763,82.343575 L315.08763,82.343575 Z" id="path32945" stroke="#000000" stroke-width="0.43534634" fill="#0F6545"></path>
            <path d="M311.73482,80.308306 C311.65727,80.555298 311.29407,80.661225 310.92358,80.544904 C310.55308,80.428583 310.31561,80.13406 310.39317,79.88707 C310.47072,79.640079 310.83391,79.534149 311.2044,79.650471 C311.57489,79.766792 311.81237,80.061315 311.73482,80.308306 L311.73482,80.308306 Z" id="path32947" fill="#CECFC1"></path>
            <rect id="rect32949" stroke="#000000" stroke-width="0.6193459" fill="#1F2D86" x="296.62701" y="78.714584" width="6.3372135" height="3.1947937"></rect>
            <path d="M299.29806,79.395451 C299.29806,79.540078 299.02842,79.657321 298.69578,79.657321 C298.36313,79.657321 298.09347,79.540078 298.09347,79.395451 C298.09347,79.250825 298.36313,79.133582 298.69578,79.133582 C299.02842,79.133582 299.29806,79.250825 299.29806,79.395451 L299.29806,79.395451 Z" id="path32951" fill="#707C8B"></path>
            <path d="M278.71523,81.909386 L279.76271,84.999433 L277.82488,86.046907 C277.82488,86.046907 276.93453,86.67539 276.04417,86.20403 C275.15383,85.732663 274.62861,84.320925 275.10144,83.742464 C276.03954,82.594806 278.71523,81.857012 278.71523,81.909386 L278.71523,81.909386 Z" id="path33926" stroke="#000000" stroke-width="0.32597154" fill="#9F1209"></path>
            <path d="M277.09164,84.10908 C277.09199,84.629995 276.69327,85.05248 276.2013,85.05248 C275.70932,85.05248 275.31058,84.629995 275.31094,84.10908 C275.31058,83.588165 275.70932,83.165679 276.2013,83.165679 C276.69327,83.165679 277.09199,83.588165 277.09164,84.10908 L277.09164,84.10908 Z" id="path34899" fill="#8F322F"></path>
            <path d="M276.24923,83.739995 C276.27659,83.906353 276.23773,84.07067 276.14729,84.170931 C276.05684,84.27119 275.92861,84.292125 275.81098,84.225841 C275.69334,84.159549 275.60423,84.016127 275.57727,83.849702 C275.54991,83.683344 275.58876,83.519027 275.67921,83.418766 C275.76965,83.318507 275.89788,83.297572 276.01552,83.363858 C276.13315,83.430149 276.22226,83.573571 276.24923,83.739995 L276.24923,83.739995 Z" id="path33928" fill="#E2A494"></path>
            <path d="M321.17493,82.311607 L320.13451,85.063696 L322.60132,86.355838 C322.60132,86.355838 323.69208,86.842487 324.38011,86.23837 C324.96833,85.721882 325.10169,84.526702 324.63182,83.922586 C324.1869,83.350541 321.14137,82.294826 321.17493,82.311607 L321.17493,82.311607 Z" id="path34906" stroke="#000000" stroke-width="0.32597154" fill="#9F1209"></path>
            <path d="M324.12839,84.518316 C324.12839,84.856596 323.77527,85.130822 323.33968,85.130822 C322.90409,85.130822 322.55098,84.856596 322.55098,84.518316 C322.55098,84.180034 322.90409,83.905808 323.33968,83.905808 C323.77527,83.905808 324.12839,84.180034 324.12839,84.518316 L324.12839,84.518316 L324.12839,84.518316 Z" id="path34910" fill="#AA675D"></path>
            <path d="M323.37323,84.426016 C323.37342,84.58804 323.30309,84.737852 323.18879,84.81893 C323.07449,84.900005 322.93362,84.900005 322.81931,84.81893 C322.70502,84.737852 322.63469,84.58804 322.63487,84.426016 C322.63469,84.263993 322.70502,84.114182 322.81931,84.033104 C322.93362,83.952028 323.07449,83.952028 323.18879,84.033104 C323.30309,84.114182 323.37342,84.263993 323.37323,84.426016 L323.37323,84.426016 Z" id="path34908" fill="#E2A494"></path>
            <g id="g34927" transform="translate(304.332242, 78.463983)" fill="#F5D8BC">
                <path d="M1.01171154,0.52396349 C1.01194298,0.75914874 0.812187579,0.949920359 0.565694374,0.949920359 C0.31920117,0.949920359 0.119445773,0.75914874 0.119677213,0.52396349 C0.119445773,0.28877824 0.31920117,0.0980066213 0.565694374,0.0980066213 C0.812187579,0.0980066213 1.01194298,0.28877824 1.01171154,0.52396349 L1.01171154,0.52396349 Z" id="path34917"></path>
                <path d="M3.70827613,0.679451846 C3.70850757,0.914637095 3.50875217,1.10540871 3.26225897,1.10540871 C3.01576577,1.10540871 2.81601037,0.914637095 2.81624181,0.679451846 C2.81601037,0.444266596 3.01576577,0.253494977 3.26225897,0.253494977 C3.50875217,0.253494977 3.70850757,0.444266596 3.70827613,0.679451846 L3.70827613,0.679451846 Z" id="path34919"></path>
                <path d="M2.34157585,1.72697468 C2.34186674,2.02257448 2.09079804,2.26235164 1.78098549,2.26235164 C1.47117293,2.26235164 1.22010423,2.02257448 1.22039512,1.72697468 C1.22010423,1.43137487 1.47117293,1.19159771 1.78098549,1.19159771 C2.09079804,1.19159771 2.34186674,1.43137487 2.34157585,1.72697468 L2.34157585,1.72697468 Z" id="path34921"></path>
                <path d="M3.64280568,3.48649695 C3.64303712,3.7216822 3.44328172,3.91245382 3.19678852,3.91245382 C2.95029531,3.91245382 2.75053992,3.7216822 2.75077136,3.48649695 C2.75053992,3.2513117 2.95029531,3.06054008 3.19678852,3.06054008 C3.44328172,3.06054008 3.64303712,3.2513117 3.64280568,3.48649695 L3.64280568,3.48649695 Z" id="path34923"></path>
                <path d="M1.04035571,3.15096095 C1.04058715,3.3861462 0.840831754,3.57691782 0.594338549,3.57691782 C0.347845345,3.57691782 0.148089948,3.3861462 0.148321388,3.15096095 C0.148089948,2.9157757 0.347845345,2.72500409 0.594338549,2.72500409 C0.840831754,2.72500409 1.04058715,2.9157757 1.04035571,3.15096095 L1.04035571,3.15096095 Z" id="path34925"></path>
            </g>
            <g id="g34936" transform="translate(293.609935, 80.787779) rotate(-13.038019) translate(-293.609935, -80.787779) translate(291.654106, 78.668964)" fill="#F5D8BC">
                <path d="M1.0117114,0.523963422 C1.01194284,0.759148641 0.812187473,0.949920235 0.565694301,0.949920235 C0.319201128,0.949920235 0.119445758,0.759148641 0.119677198,0.523963422 C0.119445758,0.288778203 0.319201128,0.0980066085 0.565694301,0.0980066085 C0.812187473,0.0980066085 1.01194284,0.288778203 1.0117114,0.523963422 L1.0117114,0.523963422 Z" id="path34938"></path>
                <path d="M3.70827565,0.679451757 C3.70850709,0.914636976 3.50875172,1.10540857 3.26225854,1.10540857 C3.01576537,1.10540857 2.81601,0.914636976 2.81624144,0.679451757 C2.81601,0.444266538 3.01576537,0.253494944 3.26225854,0.253494944 C3.50875172,0.253494944 3.70850709,0.444266538 3.70827565,0.679451757 L3.70827565,0.679451757 Z" id="path34940"></path>
                <path d="M2.34157554,1.72697445 C2.34186644,2.02257421 2.09079777,2.26235135 1.78098525,2.26235135 C1.47117274,2.26235135 1.22010407,2.02257421 1.22039497,1.72697445 C1.22010407,1.43137469 1.47117274,1.19159755 1.78098525,1.19159755 C2.09079777,1.19159755 2.34186644,1.43137469 2.34157554,1.72697445 L2.34157554,1.72697445 Z" id="path34942"></path>
                <path d="M3.64280521,3.4864965 C3.64303665,3.72168172 3.44328127,3.91245331 3.1967881,3.91245331 C2.95029493,3.91245331 2.75053956,3.72168172 2.750771,3.4864965 C2.75053956,3.25131128 2.95029493,3.06053968 3.1967881,3.06053968 C3.44328127,3.06053968 3.64303665,3.25131128 3.64280521,3.4864965 L3.64280521,3.4864965 Z" id="path34944"></path>
                <path d="M1.04035557,3.15096054 C1.04058701,3.38614576 0.840831644,3.57691736 0.594338472,3.57691736 C0.3478453,3.57691736 0.148089929,3.38614576 0.148321369,3.15096054 C0.148089929,2.91577532 0.3478453,2.72500373 0.594338472,2.72500373 C0.840831644,2.72500373 1.04058701,2.91577532 1.04035557,3.15096054 L1.04035557,3.15096054 Z" id="path34946"></path>
            </g>
            <g id="g34948" transform="translate(282.420379, 83.045699) rotate(-21.219753) translate(-282.420379, -83.045699) translate(280.464549, 80.926884)" fill="#F5D8BC">
                <path d="M1.01171146,0.52396345 C1.0119429,0.759148682 0.812187517,0.949920287 0.565694331,0.949920287 C0.319201146,0.949920287 0.119445764,0.759148682 0.119677204,0.52396345 C0.119445764,0.288778218 0.319201146,0.0980066138 0.565694331,0.0980066138 C0.812187517,0.0980066138 1.0119429,0.288778218 1.01171146,0.52396345 L1.01171146,0.52396345 Z" id="path34950"></path>
                <path d="M3.70827585,0.679451794 C3.70850729,0.914637026 3.50875191,1.10540863 3.26225872,1.10540863 C3.01576554,1.10540863 2.81601015,0.914637026 2.81624159,0.679451794 C2.81601015,0.444266562 3.01576554,0.253494957 3.26225872,0.253494957 C3.50875191,0.253494957 3.70850729,0.444266562 3.70827585,0.679451794 L3.70827585,0.679451794 Z" id="path34952"></path>
                <path d="M2.34157567,1.72697454 C2.34186656,2.02257432 2.09079788,2.26235147 1.78098535,2.26235147 C1.47117282,2.26235147 1.22010414,2.02257432 1.22039503,1.72697454 C1.22010414,1.43137477 1.47117282,1.19159762 1.78098535,1.19159762 C2.09079788,1.19159762 2.34186656,1.43137477 2.34157567,1.72697454 L2.34157567,1.72697454 Z" id="path34954"></path>
                <path d="M3.6428054,3.48649669 C3.64303684,3.72168192 3.44328146,3.91245352 3.19678828,3.91245352 C2.95029509,3.91245352 2.75053971,3.72168192 2.75077115,3.48649669 C2.75053971,3.25131146 2.95029509,3.06053985 3.19678828,3.06053985 C3.44328146,3.06053985 3.64303684,3.25131146 3.6428054,3.48649669 L3.6428054,3.48649669 Z" id="path34956"></path>
                <path d="M1.04035563,3.15096071 C1.04058707,3.38614595 0.84083169,3.57691755 0.594338504,3.57691755 C0.347845319,3.57691755 0.148089937,3.38614595 0.148321377,3.15096071 C0.148089937,2.91577548 0.347845319,2.72500388 0.594338504,2.72500388 C0.84083169,2.72500388 1.04058707,2.91577548 1.04035563,3.15096071 L1.04035563,3.15096071 Z" id="path34958"></path>
            </g>
            <g id="g34960" transform="translate(317.631337, 82.575290) rotate(13.763981) translate(-317.631337, -82.575290) translate(315.524121, 80.292474)" fill="#F5D8BC">
                <path d="M1.09002023,0.564519413 C1.09026958,0.817908516 0.875052678,1.02344628 0.609480359,1.02344628 C0.34390804,1.02344628 0.128691138,0.817908516 0.128940492,0.564519413 C0.128691138,0.311130309 0.34390804,0.105592549 0.609480359,0.105592549 C0.875052678,0.105592549 1.09026958,0.311130309 1.09002023,0.564519413 L1.09002023,0.564519413 Z" id="path34962"></path>
                <path d="M3.99530483,0.732042908 C3.99555418,0.985432011 3.78033728,1.19096977 3.51476496,1.19096977 C3.24919265,1.19096977 3.03397574,0.985432011 3.0342251,0.732042908 C3.03397574,0.478653804 3.24919265,0.273116043 3.51476496,0.273116043 C3.78033728,0.273116043 3.99555418,0.478653804 3.99530483,0.732042908 L3.99530483,0.732042908 Z" id="path34964"></path>
                <path d="M2.52281895,1.8606463 C2.52313236,2.17912617 2.25263039,2.43746262 1.91883767,2.43746262 C1.58504494,2.43746262 1.31454297,2.17912617 1.31485638,1.8606463 C1.31454297,1.54216643 1.58504494,1.28382998 1.91883767,1.28382998 C2.25263039,1.28382998 2.52313236,1.54216643 2.52281895,1.8606463 L2.52281895,1.8606463 Z" id="path34966"></path>
                <path d="M3.92476682,3.75635946 C3.92501618,4.00974856 3.70979928,4.21528632 3.44422696,4.21528632 C3.17865464,4.21528632 2.96343774,4.00974856 2.96368709,3.75635946 C2.96343774,3.50297035 3.17865464,3.29743259 3.44422696,3.29743259 C3.70979928,3.29743259 3.92501618,3.50297035 3.92476682,3.75635946 L3.92476682,3.75635946 Z" id="path34968"></path>
                <path d="M1.12088152,3.39485224 C1.12113088,3.64824134 0.905913975,3.8537791 0.640341656,3.8537791 C0.374769337,3.8537791 0.159552435,3.64824134 0.159801789,3.39485224 C0.159552435,3.14146313 0.374769337,2.93592537 0.640341656,2.93592537 C0.905913975,2.93592537 1.12113088,3.14146313 1.12088152,3.39485224 L1.12088152,3.39485224 Z" id="path34970"></path>
            </g>
            <path d="M322.48342,55.581939 C322.48342,55.581939 321.20136,56.783881 319.6789,56.783881 C318.15644,56.783881 317.27502,56.142844 316.79424,55.822329 C316.31347,55.501812 316.95451,54.540257 316.95451,54.540257" id="path40792" stroke="#000000" stroke-width="0.74973458"></path>
            <path d="M295.55995,57.985822 C295.55995,57.985822 293.23619,57.585178 292.27464,57.264658 C291.31309,56.944141 291.55347,56.303104 290.43167,56.383236 C289.30984,56.463362 288.18803,57.264658 288.42841,58.38647 C288.66881,59.508282 289.47011,59.668541 290.27139,59.428152 C291.0727,59.187763 290.83232,57.825565 289.79062,57.905691 C288.74894,57.985822 289.63037,58.867246 289.63037,58.867246" id="path42739" stroke="#000000" stroke-width="0.68454021"></path>
            <path d="M279.53406,56.222975 C279.53406,56.222975 280.17509,57.184529 281.85782,57.024269 C283.54053,56.864011 284.18157,55.982587 284.26169,55.581939 C284.34182,55.181294 284.26169,54.460127 283.94117,54.139608 C283.62065,53.81909 282.49885,53.658833 282.49885,53.658833" id="path43710" stroke="#000000" stroke-width="0.65194309"></path>
            <g id="redhand" transform="translate(283.000000, 109.000000)" stroke="#161111">
                <path d="M28.9932,60.00117 C30.54783,58.47145 33.04721,56.77756 34.43534,53.09596 C35.73552,49.65037 36.36479,43.32551 37.55088,40.11991 C39.10012,34.62489 42.22203,29.26722 38.50711,29.63401 C34.96923,29.98332 33.82541,33.40095 32.48493,35.90222 C31.86388,36.83382 30.43306,38.82924 30.16264,39.96316 C30.10834,38.05997 29.1466,32.50908 28.95031,26.92746 C28.76697,21.71412 28.91471,16.28799 28.77555,14.26323 C28.60471,11.58987 28.62262,9.07848 27.99569,7.10285 C27.70345,6.18196 26.35019,5.29635 25.65605,5.335 C24.23056,5.3455 23.36831,6.58582 23.17577,7.75077 C23.03702,8.67133 23.07567,8.33542 22.9817,9.52512 C22.86277,11.03061 23.0103,12.97147 22.9018,14.67499 C22.78482,16.51193 23.02473,18.55264 22.9247,20.26163 C22.72306,23.70794 22.47365,26.86584 22.37191,27.51189 C22.37191,26.23396 21.78764,20.19683 21.59231,14.46659 C21.51821,12.29259 21.46712,10.14967 21.4293,8.15351 C21.3987,6.53914 21.4687,4.82257 21.29548,3.56844 C20.99992,1.42869 20.30787,0.4545 18.75571,0.4545 C17.70884,0.4545 16.21021,1.21626 15.73085,3.59588 C15.47248,4.87847 15.46182,6.44955 15.50414,8.16382 C15.54344,9.75776 15.62863,11.47549 15.60304,13.20023 C15.50624,19.72764 15.39022,26.64592 15.12415,28.68385 C15.08125,28.0138 14.42786,24.59854 14.25173,20.02602 C14.18233,18.22471 14.08465,16.05124 13.98801,13.97361 C13.87246,11.48929 13.88206,9.63651 13.8198,7.97925 C13.8017,6.97783 13.40371,4.09693 11.47715,4.27007 C10.46583,4.14645 9.39421,4.85136 8.96304,7.57799 C8.72292,9.09647 8.72867,11.71052 8.6888,13.7253 C8.6131,17.55008 8.4476,20.89927 8.6312,24.30458 C8.74574,26.42898 8.7282,28.06671 8.75225,29.11388 C8.77755,29.39188 8.21011,27.32863 7.92282,24.52429 C7.64181,21.78131 7.39354,18.28966 7.41594,19.09522 C7.41594,17.67844 7.34794,15.56999 7.2201,13.8297 C7.1202,12.47062 7.1826,10.97122 5.70847,11.09098 C4.2123,11.21253 3.29386,11.71837 2.98434,14.27986 C2.78383,15.93916 2.7288,19.52644 2.68516,20.82671 C2.84599,24.13422 1.96241,31.84555 1.56199,34.03827 C1.45261,35.592 0.83912,37.61299 0.5797,39.77904 C0.02157,44.44065 0.5527,49.89864 1.1697,52.69225 C2.39669,57.10233 5.5991,59.0812 5.43821,62.07353 C5.27738,65.06624 5.43821,70.34251 5.43821,72.70504 C5.43821,75.06758 7.49048,75.19489 11.73905,74.28001 C18.68532,72.78366 22.48118,75.77635 28.21703,73.57124 C27.48929,67.035 28.90711,63.10546 28.86977,60.74292 L28.9932,60.00117 Z" id="path3484" stroke-width="0.99999994" fill="#CC0000"></path>
                <path d="M24.9405,44.55629 C26.37727,40.58997 28.19194,39.03197 29.94301,38.16688" id="path3488" fill="#CC0000"></path>
                <path d="M9.14505,40.46762 C11.30833,39.61449 13.55452,38.99516 15.75256,38.24355 C18.44257,37.48477 21.04745,36.39722 23.82329,35.96738 C25.16069,35.69482 26.50503,35.43137 27.86917,35.33931" id="path3953"></path>
                <path d="M5.28671,61.62937 C5.58913,61.42913 5.88082,61.74712 6.17216,61.80744 C6.57928,61.9328 7.00584,62.05877 7.43532,61.98514 C8.2799,61.97094 9.12477,61.96994 9.9693,61.98814 C10.97132,61.95124 11.80069,61.91484 12.60665,61.34827" id="path3960"></path>
                <path d="M18.88252,61.732 C19.17244,61.97009 19.50271,62.15683 19.8512,62.29453 C20.38799,62.5317 20.97513,62.5624 24.45601,62.28213 C26.61523,62.4201 28.527,60.55557 29.06592,60.05219" id="path3962"></path>
            </g>
        </g>
    </g>
</svg>