<?xml version="1.0" encoding="UTF-8" standalone="no"?>
<svg width="40px" height="40px" viewBox="0 0 40 40" version="1.1" xmlns="http://www.w3.org/2000/svg" xmlns:xlink="http://www.w3.org/1999/xlink">
    <defs></defs>
    <g id="Page-1" stroke="none" stroke-width="1" fill="none" fill-rule="evenodd">
        <g id="wales" transform="translate(-10.000000, 0.000000)">
            <rect id="Rectangle-path" fill="#FFFFFF" x="0" y="0" width="60" height="40"></rect>
            <rect id="Rectangle-path" fill="#00AB39" x="0" y="20" width="60" height="20"></rect>
            <g id="dragon" transform="translate(9.948800, 4.928260)">
                <path d="M32.51,0.0791 C32.353,0.0569 32.198,0.0852 32.027,0.1632 C31.685,0.3193 31.268,0.666 30.55,1.2132 C28.928,2.4504 27.086,2.6098 24.897,2.659 C20.346,2.7615 18.24,3.8752 17.247,5.298 C16.253,6.721 16.378,8.435 16.259,9.707 C16.177,10.575 16.017,11.318 15.386,12.134 C15.558,11.713 15.611,11.404 15.569,11.174 C15.524,10.93 15.383,10.77 15.222,10.638 C15.061,10.507 14.883,10.4 14.742,10.252 C14.634,10.139 14.562,9.985 14.522,9.794 C14.703,9.677 14.92,9.674 15.092,9.779 C15.307,9.91 15.454,10.202 15.349,10.651 C15.346,10.67 15.362,10.684 15.377,10.695 C15.38,10.702 15.374,10.711 15.38,10.716 C15.398,10.731 15.423,10.731 15.442,10.716 L15.448,10.71 C31.915,-4.1 15.447,10.708 15.448,10.707 C15.888,10.24 16.079,9.859 16.11,9.529 C16.142,9.198 16.013,8.927 15.838,8.694 C15.663,8.461 15.44,8.26 15.281,8.062 C15.129,7.874 15.039,7.694 15.073,7.488 C15.144,7.416 15.211,7.366 15.271,7.342 C15.402,7.289 15.507,7.324 15.603,7.414 C15.698,7.503 15.776,7.649 15.823,7.806 C15.869,7.963 15.886,8.131 15.866,8.255 C15.865,8.258 15.869,8.258 15.869,8.261 C15.863,8.284 15.873,8.307 15.894,8.317 C15.915,8.328 15.941,8.323 15.956,8.305 C15.958,8.301 15.959,8.299 15.962,8.295 C15.963,8.293 15.963,8.291 15.965,8.289 C16.257,7.845 16.377,7.464 16.383,7.133 C16.388,6.798 16.276,6.517 16.117,6.279 C15.957,6.042 15.752,5.8442 15.566,5.675 C15.386,5.5119 15.231,5.3751 15.151,5.2544 C15.15,5.2189 15.152,5.1764 15.151,5.1422 C15.288,5.044 15.471,4.9881 15.64,5.0238 C15.825,5.063 15.991,5.1965 16.067,5.4943 C16.068,5.4968 16.072,5.4952 16.073,5.4974 C16.076,5.5223 16.094,5.5442 16.12,5.5442 C16.147,5.5442 16.169,5.5216 16.169,5.4943 L16.169,5.4912 C16.189,4.8839 16.077,4.3965 15.853,4.033 C15.646,3.6956 15.34,3.4712 14.968,3.3475 C14.984,3.3237 14.997,3.3023 15.018,3.2759 C15.144,3.1102 15.316,2.9179 15.482,2.6963 C15.813,2.2533 16.132,1.6911 16.064,0.9951 C16.064,0.9888 16.057,0.9852 16.055,0.9795 C16.052,0.9734 16.054,0.9654 16.049,0.9609 C16.039,0.9521 16.025,0.9475 16.011,0.9484 C16.003,0.9488 16.003,0.9599 15.996,0.964 C15.988,0.9673 15.979,0.9696 15.974,0.9764 C15.664,1.3802 15.103,1.4981 14.516,1.5778 C14.582,1.4554 14.669,1.2918 14.745,1.0948 C14.831,0.8723 14.898,0.6467 14.866,0.4779 L14.866,0.4748 C14.865,0.4702 14.867,0.4637 14.866,0.4592 C14.863,0.4458 14.856,0.4351 14.844,0.4281 C14.832,0.421 14.817,0.4181 14.804,0.4218 C14.799,0.423 14.799,0.4288 14.795,0.4312 C14.787,0.4337 14.779,0.4373 14.773,0.4436 C14.414,0.8352 13.738,1.0677 13.144,1.2319 C12.848,1.3141 12.572,1.3791 12.364,1.4438 C12.26,1.4762 12.173,1.5082 12.107,1.5435 C12.065,1.566 12.032,1.593 12.008,1.6245 C11.596,1.5343 11.207,1.4737 10.86,1.4563 C10.231,1.4248 9.72,1.4997 9.374,1.6401 C9.2,1.7103 9.066,1.7991 8.98,1.9018 C8.894,2.0046 8.858,2.127 8.884,2.2508 C8.909,2.3669 9.006,2.4798 9.135,2.5904 C8.238,2.2196 7.468,2.0711 6.838,2.0701 C6.579,2.0696 6.34,2.0919 6.126,2.1293 C5.698,2.204 5.362,2.3401 5.117,2.4782 C4.924,2.5867 4.806,2.689 4.726,2.7742 C4.717,2.7825 4.704,2.7836 4.695,2.7929 C4.694,2.7947 4.691,2.7942 4.689,2.796 C4.686,2.7999 4.691,2.8042 4.689,2.8085 C4.685,2.814 4.675,2.8219 4.671,2.8272 C4.669,2.8283 4.666,2.8292 4.665,2.8303 L4.665,2.8334 C4.662,2.837 4.655,2.8425 4.652,2.8459 C4.639,2.865 4.64,2.8911 4.655,2.9082 C4.671,2.9253 4.697,2.9288 4.717,2.9176 C4.831,2.85 4.959,2.7918 5.095,2.74 C5.101,2.7417 5.108,2.7431 5.113,2.7431 C5.225,2.745 5.342,2.7695 5.451,2.8116 C5.569,2.8572 5.681,2.9153 5.764,2.9674 C5.847,3.0195 5.905,3.0671 5.915,3.0765 C5.917,3.0787 5.919,3.0808 5.921,3.0827 C5.98,3.1211 6.063,3.1589 6.144,3.1949 C5.97,3.5551 5.909,4.0131 5.912,4.6842 C5.881,4.6902 5.858,4.6974 5.822,4.7029 C5.639,4.7308 5.399,4.747 5.135,4.7309 C4.762,4.7083 4.344,4.6154 3.965,4.4163 C4.027,4.427 4.09,4.4475 4.151,4.4505 C4.431,4.4646 4.677,4.4081 4.86,4.3072 C4.887,4.3013 4.921,4.2999 4.943,4.2916 C4.963,4.2844 4.974,4.2657 4.974,4.2449 C4.974,4.2308 4.962,4.223 4.952,4.2137 C4.948,4.2093 4.949,4.2005 4.943,4.1981 C4.67,4.091 3.224,3.4275 2.002,1.8831 C2.001,1.8819 2,1.8812 1.999,1.88 C1.998,1.8788 1.997,1.8781 1.996,1.8769 C1.985,1.8627 1.967,1.8555 1.949,1.8582 C1.924,1.8629 1.907,1.8857 1.909,1.9112 C1.909,1.9175 1.91,1.9239 1.912,1.9299 C1.968,2.6658 2.197,4.4634 3.692,5.909 C3.708,5.924 3.732,5.928 3.751,5.918 C3.77,5.908 3.779,5.8864 3.776,5.8651 C3.74,5.6742 3.722,5.5439 3.686,5.351 C3.686,5.348 3.681,5.3476 3.68,5.3448 C3.683,5.0958 3.663,4.9236 3.634,4.7808 C4.08,5.1893 4.55,5.3743 4.99,5.432 C5.551,5.5057 6.06,5.3888 6.395,5.3354 C6.412,5.3327 6.431,5.3288 6.448,5.3261 C6.453,5.6441 6.332,6.05 6.132,6.385 C6.019,6.575 5.886,6.739 5.745,6.853 C5.605,6.966 5.458,7.028 5.321,7.018 L5.318,7.018 C5.295,7.022 5.279,7.042 5.278,7.065 C5.269,7.074 5.255,7.076 5.256,7.09 C5.257,7.117 5.278,7.14 5.305,7.139 C5.914,7.139 6.422,7.156 6.974,7.121 L6.977,7.121 C7.047,7.111 7.078,7.121 7.079,7.121 C7.078,7.126 7.076,7.132 7.07,7.143 C7.034,7.205 6.917,7.321 6.782,7.451 C6.766,7.465 6.761,7.487 6.77,7.507 C6.778,7.527 6.798,7.54 6.819,7.538 C6.822,7.538 6.826,7.535 6.829,7.535 C6.841,7.545 6.857,7.548 6.872,7.545 C6.878,7.543 6.882,7.54 6.887,7.538 C6.908,7.533 6.923,7.526 6.943,7.52 C7.301,7.482 7.747,7.408 8.083,7.167 C8.076,7.203 8.063,7.254 8.052,7.283 C8.039,7.313 8.016,7.346 7.974,7.389 C7.969,7.394 7.955,7.405 7.949,7.411 C7.891,7.455 7.85,7.494 7.776,7.545 C7.772,7.547 7.771,7.548 7.767,7.551 C7.75,7.562 7.743,7.584 7.748,7.604 C7.753,7.624 7.768,7.638 7.788,7.641 C7.792,7.642 7.797,7.642 7.801,7.641 L7.807,7.641 C7.81,7.641 7.814,7.638 7.816,7.638 C8.192,7.599 8.85,7.31 9.324,6.809 C9.57,6.842 9.727,6.963 9.835,7.083 C9.893,7.148 9.936,7.209 9.983,7.252 C10.002,7.268 10.025,7.278 10.048,7.286 C10.047,7.308 10.028,7.331 10.033,7.351 C10.045,7.396 10.075,7.431 10.113,7.454 C9.936,7.778 9.882,8.008 9.909,8.152 C9.925,8.237 9.962,8.294 10.002,8.333 C9.766,8.506 9.568,8.691 9.473,8.859 C9.421,8.951 9.396,9.041 9.417,9.121 C9.423,9.144 9.441,9.161 9.454,9.18 C9.436,9.182 9.42,9.176 9.398,9.183 L9.395,9.183 C9.161,9.296 8.933,9.523 8.81,9.744 C8.749,9.855 8.715,9.964 8.723,10.062 C8.727,10.105 8.746,10.143 8.77,10.177 C8.475,10.328 8.197,10.667 8.045,10.969 C7.968,11.124 7.922,11.268 7.934,11.383 C7.94,11.441 7.964,11.494 8.011,11.526 C8.001,11.537 7.994,11.544 7.983,11.555 C7.978,11.56 7.973,11.561 7.968,11.567 C7.67,11.72 7.471,12.079 7.386,12.396 C7.343,12.557 7.327,12.707 7.352,12.82 C7.361,12.861 7.387,12.892 7.411,12.922 C7.395,12.934 7.376,12.941 7.361,12.954 C7.271,13.032 7.207,13.123 7.185,13.156 L7.182,13.159 C7.007,13.381 6.932,13.744 6.943,14.047 C6.949,14.199 6.976,14.337 7.033,14.437 C7.053,14.472 7.084,14.494 7.113,14.518 C7.11,14.522 7.098,14.529 7.095,14.533 L7.092,14.536 C6.917,14.758 6.842,15.121 6.853,15.424 C6.859,15.577 6.887,15.714 6.943,15.814 C6.971,15.864 7.008,15.905 7.055,15.929 C7.078,15.941 7.108,15.934 7.135,15.935 C7.129,15.945 7.108,15.967 7.104,15.973 C7.104,15.974 7.103,15.977 7.101,15.979 C7.073,16.007 7.055,16.041 7.039,16.088 C7.031,16.111 7.027,16.142 7.021,16.169 C6.914,16.386 6.826,16.268 6.767,16.185 C6.305,15.224 5.854,14.659 5.411,12.467 C5.333,12.085 4.478,11.487 4.243,9.937 C4.196,9.586 4.724,8.833 3.996,8.604 C3.994,8.603 3.992,8.604 3.99,8.604 C3.493,7.662 2.474,8.021 2.312,8.33 C2.297,8.346 2.297,8.371 2.308,8.389 C2.32,8.407 2.34,8.413 2.361,8.408 C2.493,8.371 2.885,8.506 2.887,8.75 C2.669,9.264 2.94,9.694 2.795,9.648 C2.772,8.845 1.894,8.855 1.866,8.862 C1.865,8.863 1.866,8.865 1.866,8.866 L1.473,8.819 C0.163,8.829 0.532,9.785 0.612,9.972 C0.625,9.989 0.654,9.996 0.683,9.994 C0.712,9.991 0.733,9.978 0.739,9.959 C0.681,9.6 0.968,9.582 1.268,9.722 C1.459,10.449 1.86,10.475 1.915,10.476 L1.915,10.48 L1.921,10.48 C2.464,10.59 2.636,10.952 2.64,11.171 C2.467,11.104 2.256,11.069 1.962,11.125 C1.765,10.924 1.385,10.851 1.259,10.825 C1.197,10.813 0.79,10.865 0.624,11.1 L0.562,11.09 C-0.251,11.351 0.084,12.267 0.361,12.377 C0.372,12.392 0.39,12.398 0.408,12.393 C0.425,12.387 0.432,12.371 0.432,12.352 C0.31,12.071 0.482,11.915 0.692,12.009 C1.004,12.351 1.388,12.49 2.166,12.05 C2.178,12.056 2.441,12.174 2.72,12.277 C2.709,12.605 3.056,13.178 3.308,13.605 C3.229,13.939 3.097,14.27 3.021,14.393 C3.019,14.394 3.016,14.398 3.014,14.399 C2.699,14.642 2.427,15.221 2.556,15.739 C2.457,15.994 2.1,16.131 2.098,15.639 C2.081,15.625 2.06,15.622 2.042,15.633 C2.024,15.644 2.016,15.665 2.021,15.686 C1.906,16.013 2.446,17 3.29,16.484 L3.46,16.291 C3.738,16.295 4.031,15.929 4.135,15.614 C4.553,18.175 5.54,20.758 5.952,21.597 C5.647,22.539 4.757,22.503 4.466,22.195 C4.463,22.193 4.461,22.191 4.457,22.189 C4.436,22.171 4.406,22.177 4.389,22.198 C4.372,22.22 4.374,22.249 4.395,22.267 C4.938,22.813 5.236,22.988 5.77,22.986 C6.945,22.982 7.356,22.252 7.448,21.943 C8.437,21.731 9.197,21.085 9.482,21.033 C9.526,21.071 9.586,21.143 9.627,21.176 C9.862,21.363 10.058,21.468 10.231,21.488 C10.314,21.497 10.391,21.484 10.46,21.45 C10.527,21.588 10.627,21.701 10.754,21.79 C10.703,22.138 10.663,22.849 10.411,23.756 C10.151,24.689 9.666,25.805 8.723,26.859 C8.352,27.021 8.052,26.771 7.86,26.616 C7.698,26.486 7.277,26.034 7.203,25.8 C7.116,25.524 7.014,25.332 6.869,25.189 C6.724,25.046 6.481,24.998 6.293,24.98 C6.291,24.98 6.364,24.994 6.287,24.98 C6.219,24.986 6.173,24.981 6.129,24.987 C5.556,24.533 4.99,25.295 5.058,25.772 C5.059,25.792 5.073,25.81 5.095,25.815 C5.117,25.821 5.14,25.813 5.154,25.797 C5.231,25.616 5.459,25.666 5.575,25.825 C5.557,25.994 5.568,26.187 5.754,26.411 C5.573,26.424 5.342,26.478 5.101,26.756 C4.12,26.874 4.299,27.988 4.59,28.174 C4.599,28.194 4.619,28.205 4.64,28.202 C4.66,28.199 4.676,28.183 4.68,28.162 C4.359,27.746 4.813,27.566 5.039,27.757 C5.096,27.939 5.356,28.109 5.575,28.215 C5.564,28.269 5.492,28.488 5.516,28.548 C4.461,29.127 5.439,30.136 5.683,30.069 C5.703,30.063 5.721,30.062 5.739,30.05 C5.756,30.038 5.763,30.014 5.757,29.994 C5.607,29.755 5.601,29.466 5.863,29.548 C6,29.636 6.257,29.671 6.395,29.673 C6.729,29.678 6.915,29.462 7.333,29.053 C7.582,28.809 7.773,28.927 7.928,29.009 C7.944,29.079 7.971,29.162 8.055,29.196 C8.178,29.247 8.444,29.273 8.6,29.268 C9.462,29.241 9.94,29.052 10.333,28.916 C10.726,28.779 11.084,28.706 11.414,28.701 C11.722,28.695 11.924,28.757 12.259,28.869 C12.427,28.925 12.696,29.061 12.829,29.059 C13.046,29.051 13.143,28.947 13.197,28.863 C13.519,28.805 13.601,28.947 13.414,29.311 C13.408,29.332 13.418,29.356 13.435,29.367 C13.453,29.379 13.474,29.377 13.491,29.364 C13.825,29.223 14.823,28.267 13.476,27.722 C13.271,27.54 13.004,27.386 12.798,27.386 C12.59,27.386 12.384,27.47 12.169,27.517 C11.954,27.563 11.745,27.606 11.674,27.607 C11.398,27.612 11.385,27.441 11.358,27.137 C11.331,26.832 11.974,25.763 12.259,25.385 C12.824,24.638 13.577,23.787 14.12,23.229 C15.736,23.16 15.084,24.116 14.81,24.301 C14.789,24.314 14.781,24.34 14.792,24.364 C14.802,24.387 14.826,24.399 14.85,24.392 C14.856,24.39 14.86,24.387 14.866,24.385 C15.451,24.231 16.005,23.829 16.191,23.454 C16.192,23.452 16.613,22.721 16.253,22.098 C16.236,22.062 16.218,22.013 16.2,21.974 C16.402,21.88 16.648,21.538 16.658,21.491 C16.927,21.568 17.964,21.512 18.058,20.927 C18.537,20.974 19.394,20.656 19.426,20.135 C19.482,20.189 19.604,20.191 19.739,20.167 C19.793,20.605 20.456,21.02 20.609,20.927 C20.676,21.654 21.591,21.998 21.857,21.871 C21.812,22.047 22.487,22.378 22.758,22.363 C22.238,23.77 21.316,25.357 20.039,25.99 C19.697,25.955 19.208,25.727 18.993,25.582 C18.821,25.466 18.602,25.32 18.466,25.102 C18.33,24.884 18.339,24.889 18.194,24.747 C18.049,24.604 17.762,24.494 17.668,24.504 C17.601,24.51 17.489,24.56 17.389,24.628 C16.131,24.403 16.251,25.302 16.361,25.629 C16.362,25.648 16.376,25.666 16.398,25.672 C16.42,25.678 16.444,25.669 16.457,25.653 C16.461,25.183 16.728,25.184 16.869,25.401 C16.867,25.409 16.864,25.415 16.866,25.423 C16.942,25.586 16.909,25.675 16.881,25.738 C16.743,25.752 16.6,25.787 16.436,25.909 C15.329,25.787 15.43,27.009 15.782,27.152 C15.791,27.172 15.811,27.183 15.832,27.18 C15.852,27.177 15.868,27.161 15.872,27.14 C15.674,26.848 16.173,26.405 16.29,26.934 L16.29,26.937 C16.277,26.953 16.274,26.975 16.284,26.993 C16.31,27.165 16.511,27.332 16.689,27.417 C16.657,27.47 16.59,27.516 16.575,27.607 C15.409,28.018 16.06,29.016 16.405,29.162 C16.421,29.174 16.446,29.174 16.463,29.162 C16.481,29.15 16.487,29.129 16.482,29.109 C16.376,28.958 16.415,28.616 16.9,28.679 C16.941,28.819 17.153,28.882 17.318,28.885 C17.652,28.889 18.26,28.436 18.581,28.261 C18.884,28.096 19.376,28.158 19.504,28.165 C19.568,28.219 19.667,28.273 19.891,28.271 C21.061,28.257 21.264,27.623 22.445,27.641 C22.975,27.649 24.231,28.276 24.631,27.697 C24.812,27.63 24.912,27.791 24.693,28.009 C24.678,28.024 24.697,28.053 24.714,28.065 C24.732,28.077 24.749,28.059 24.77,28.062 C25.119,28.105 26.163,26.965 24.782,26.594 C24.776,26.583 24.777,26.573 24.761,26.56 C24.728,26.536 24.553,26.349 24.141,26.348 C23.714,26.348 23.418,26.544 23.271,26.585 C22.959,26.673 23.071,26.421 23.104,26.339 C23.45,25.494 25.119,23.919 25.875,23.282 C25.951,23.252 26.042,23.205 26.151,23.136 C26.911,22.861 27.115,23.603 26.367,23.874 C26.337,23.907 26.333,23.955 26.355,23.993 C26.377,24.031 26.421,24.05 26.463,24.039 C28.223,23.572 27.958,22.609 27.959,22.597 C28.025,21.599 26.838,21.183 26.646,21.089 C26.323,20.73 26.248,20.518 26.272,20.26 C26.283,20.136 26.382,19.923 26.55,20.014 C26.834,20.239 27.175,20.371 27.272,20.188 C27.07,20.419 28.47,21.258 28.609,20.911 C28.744,21.509 29.752,21.473 29.946,21.31 C30.239,21.876 31.268,21.726 31.265,21.628 C31.223,21.836 32.159,22.146 32.59,21.824 L32.609,21.871 C32.951,22.286 33.156,22.842 33.389,23.815 C33.623,24.788 33.58,25.559 33.268,26.342 C33.253,26.37 33.169,26.373 33.073,26.37 C32.823,26.271 32.676,26.195 32.507,26.058 C32.345,25.928 32.152,25.745 32.011,25.544 C31.88,25.31 31.788,25.123 31.643,24.98 C31.498,24.838 31.249,24.774 31.061,24.756 L31.055,24.756 C30.972,24.763 30.901,24.79 30.838,24.834 C29.898,24.542 29.445,25.538 29.556,25.865 C29.557,25.885 29.575,25.903 29.597,25.909 C29.619,25.915 29.642,25.906 29.655,25.89 C29.75,25.646 30.185,25.525 30.34,25.753 C30.363,25.851 30.355,25.924 30.333,25.971 C30.138,25.992 29.904,26.051 29.683,26.33 C28.582,26.401 28.959,27.479 29.182,27.76 C29.191,27.78 29.211,27.791 29.231,27.788 C29.252,27.785 29.27,27.769 29.275,27.747 C29.247,27.434 29.565,27.061 29.789,27.345 C29.889,27.502 30.11,27.616 30.265,27.651 C29.005,28.231 29.908,29.064 30.25,29.209 C30.267,29.221 30.288,29.22 30.306,29.209 C30.323,29.197 30.333,29.176 30.327,29.156 C30.173,28.91 30.259,28.54 30.553,28.638 C30.546,28.842 30.965,28.978 31.157,28.981 C31.491,28.986 31.845,28.71 32.166,28.536 C32.472,28.369 33.19,28.363 33.333,28.361 C33.815,28.82 34.738,28.703 35.253,28.542 C35.804,28.368 36.22,28.063 36.652,28.053 C37.239,28.057 37.691,28.764 38.203,28.162 C38.539,28 38.639,28.411 38.476,28.67 C38.47,28.69 38.477,28.711 38.495,28.722 C38.512,28.734 38.536,28.735 38.553,28.722 C38.892,28.579 39.774,27.766 38.569,27.186 C38.629,27.03 38.102,26.574 37.659,26.573 C37.117,26.571 36.3,27.396 35.981,25.756 C35.903,25.36 35.681,22.502 35.665,22.226 C35.771,22.158 35.912,22.076 36.015,22.08 C36.136,22.074 36.258,22.064 36.377,22.254 C36.496,22.444 36.588,22.728 36.287,23.12 C36.283,23.126 36.292,23.132 36.29,23.139 C36.287,23.148 36.279,23.155 36.281,23.164 C36.282,23.17 36.29,23.171 36.293,23.176 C36.296,23.181 36.292,23.188 36.296,23.192 C36.3,23.195 36.304,23.19 36.309,23.192 C36.313,23.194 36.313,23.2 36.318,23.201 C36.336,23.206 36.355,23.2 36.368,23.186 C37.115,22.443 37.296,21.651 37.098,21.108 C36.9,20.564 36.351,20.161 35.909,20.151 C35.376,20.138 34.785,19.826 34.281,19.356 C33.777,18.886 33.463,18.352 33.262,17.855 C33.226,17.764 33.176,17.676 33.135,17.587 C36.395,16.461 37.332,13.863 37.33,12.268 C37.33,11.163 36.876,10.223 36.228,9.535 C36.217,9.27 36.286,8.931 36.392,8.635 C36.452,8.467 36.519,8.315 36.575,8.208 C36.599,8.162 36.619,8.13 36.637,8.102 C36.653,8.166 36.666,8.227 36.705,8.323 C36.76,8.46 36.833,8.621 36.916,8.785 C37.081,9.112 37.279,9.443 37.448,9.585 C37.462,9.597 37.481,9.599 37.498,9.592 C37.514,9.584 37.527,9.569 37.529,9.551 C37.661,7.945 38.213,5.5895 40.002,3.4223 C40.003,3.4212 40.004,3.4204 40.005,3.4192 C40.006,3.4184 40.005,3.417 40.005,3.4161 C40.012,3.4129 40.017,3.41 40.024,3.4067 C40.046,3.3955 40.056,3.3709 40.049,3.3475 C40.041,3.3242 40.017,3.3092 39.993,3.3133 C39.99,3.314 39.987,3.315 39.984,3.3164 C39.983,3.3168 39.981,3.316 39.981,3.3164 C39.573,3.5088 39.205,3.6986 38.872,3.8835 C35.961,5.4343 35.44,6.483 33.829,7.728 C33.81,7.741 33.802,7.766 33.81,7.788 C33.818,7.809 33.84,7.821 33.863,7.819 C34.658,7.78 35.345,7.605 35.968,7.286 C35.808,7.544 35.626,7.859 35.448,8.14 C35.344,8.304 35.243,8.449 35.16,8.545 C35.119,8.592 35.083,8.629 35.055,8.647 C35.041,8.656 35.04,8.652 35.033,8.654 C34.603,8.451 34.154,8.337 33.724,8.336 C32.117,8.332 31.008,9.402 30.999,10.691 C30.99,12.073 32.063,13.1 33.129,13.047 C33.498,13.029 33.991,12.934 34.426,12.645 C34.744,12.434 35.023,12.112 35.188,11.66 C35.191,11.697 35.2,11.732 35.2,11.77 C35.201,12.511 34.917,13.017 34.454,13.362 C33.992,13.706 33.336,13.883 32.603,13.898 C31.886,13.913 31.15,13.522 30.111,13.103 C29.071,12.684 27.731,12.248 25.813,12.215 C25.239,12.205 24.694,12.261 24.237,12.499 C24.208,12.514 24.183,12.538 24.154,12.555 C24.398,12.261 24.693,11.999 25.045,11.807 C25.88,11.351 26.94,11.23 27.888,11.617 C27.99,11.665 28.109,11.727 28.197,11.763 C28.27,11.793 28.311,11.793 28.374,11.813 C28.39,11.928 28.391,12.019 28.371,12.062 C28.36,12.085 28.346,12.094 28.33,12.103 C28.321,12.107 28.309,12.109 28.296,12.112 C28.276,12.116 28.254,12.122 28.222,12.115 C28.205,12.112 28.187,12.117 28.176,12.131 C28.164,12.144 28.16,12.164 28.166,12.181 C28.163,12.203 28.174,12.224 28.194,12.234 C28.207,12.24 28.219,12.238 28.231,12.243 C28.307,12.316 28.39,12.355 28.47,12.337 C28.569,12.314 28.652,12.236 28.717,12.143 C28.783,12.051 28.831,11.942 28.857,11.841 C28.859,11.83 28.858,11.821 28.86,11.81 C28.939,11.721 28.998,11.59 28.971,11.439 C28.943,11.281 28.813,11.116 28.566,10.981 C28.561,10.977 28.562,10.969 28.556,10.966 C28.548,10.96 28.496,10.907 28.454,10.819 C28.412,10.732 28.37,10.61 28.34,10.47 C28.278,10.191 28.26,9.832 28.34,9.476 C28.498,8.765 29.023,8.054 30.46,7.912 C30.467,7.912 30.47,7.904 30.476,7.903 C30.753,7.958 31.001,7.996 31.191,7.993 C31.221,7.993 31.244,7.986 31.272,7.984 C31.285,7.999 31.298,8.011 31.309,8.031 C31.33,8.068 31.343,8.11 31.337,8.161 C31.331,8.202 31.296,8.254 31.256,8.308 C31.253,8.309 31.253,8.31 31.25,8.311 C31.234,8.315 31.221,8.327 31.216,8.342 C31.21,8.358 31.212,8.375 31.222,8.389 L31.222,8.392 L31.222,8.395 L31.225,8.395 L31.225,8.398 C31.23,8.416 31.245,8.429 31.262,8.432 C31.282,8.436 31.301,8.427 31.321,8.426 C31.407,8.452 31.494,8.45 31.569,8.398 C31.669,8.329 31.752,8.212 31.801,8.084 C31.85,7.955 31.869,7.813 31.826,7.691 C31.797,7.61 31.724,7.553 31.634,7.513 C30.499,6.329 30.546,4.8943 30.993,3.6809 C31.217,3.0734 31.544,2.527 31.869,2.1168 C32.194,1.7067 32.553,1.4123 32.73,1.3503 C32.739,1.3468 32.724,1.3586 32.733,1.3534 C32.804,1.3573 32.877,1.3632 32.943,1.3441 C33.043,1.3152 33.133,1.2655 33.213,1.2039 C33.217,1.2078 33.213,1.2173 33.219,1.2195 C33.244,1.2286 33.27,1.2157 33.281,1.1914 L33.284,1.1883 C33.293,1.1826 33.309,1.1759 33.327,1.1696 C33.364,1.1571 33.411,1.15 33.442,1.154 C33.458,1.156 33.47,1.162 33.476,1.1665 C33.482,1.171 33.486,1.173 33.488,1.1852 C33.492,1.2091 33.481,1.2732 33.423,1.3721 C33.422,1.3741 33.421,1.3732 33.42,1.3752 L33.42,1.3784 L33.42,1.3815 C33.413,1.3939 33.412,1.4087 33.417,1.422 C33.418,1.4231 33.419,1.4241 33.42,1.4251 L33.42,1.4282 C33.421,1.4283 33.422,1.4283 33.423,1.4282 C33.424,1.4304 33.425,1.4324 33.426,1.4344 C33.427,1.4355 33.428,1.4366 33.429,1.4376 C33.43,1.4386 33.431,1.4397 33.433,1.4407 C33.436,1.4433 33.441,1.4454 33.445,1.4469 C33.447,1.4481 33.449,1.4491 33.451,1.45 C33.453,1.4502 33.455,1.4502 33.457,1.45 C33.459,1.4502 33.461,1.4502 33.464,1.45 C33.466,1.4502 33.468,1.4502 33.47,1.45 C33.475,1.4498 33.48,1.4488 33.485,1.4469 C33.489,1.4453 33.491,1.4423 33.494,1.4407 C33.496,1.4395 33.496,1.4387 33.498,1.4376 C33.588,1.4205 33.677,1.3668 33.755,1.2849 C33.842,1.1926 33.913,1.075 33.946,0.9546 C33.98,0.8343 33.975,0.702 33.888,0.6119 C33.814,0.5365 33.682,0.5044 33.507,0.5059 C33.476,0.4362 33.42,0.3754 33.343,0.3408 C33.271,0.3087 33.176,0.3037 33.073,0.3065 L33.005,0.2878 C32.823,0.1709 32.667,0.1013 32.51,0.0791 L32.51,0.0791 Z M7.606,5.2077 C7.943,5.21 8.278,5.266 8.587,5.4071 C8.521,5.4621 8.438,5.5026 8.336,5.5255 C8.143,5.5692 7.899,5.5576 7.668,5.513 C7.436,5.4684 7.217,5.3898 7.07,5.3136 C7.025,5.2903 7.004,5.2696 6.974,5.2482 C7.181,5.2227 7.393,5.2062 7.606,5.2077 L7.606,5.2077 Z M33.699,10.208 C33.821,10.211 33.955,10.237 34.092,10.286 C34.194,10.323 34.294,10.385 34.392,10.445 C34.378,10.462 34.367,10.483 34.361,10.504 C34.182,11.141 33.853,11.325 33.584,11.321 C33.316,11.316 33.09,11.115 33.089,10.847 C33.087,10.512 33.205,10.355 33.38,10.271 C33.467,10.229 33.577,10.206 33.699,10.208 L33.699,10.208 Z M14.983,11.897 C15.055,11.885 15.114,11.898 15.163,11.938 C15.212,11.977 15.253,12.047 15.268,12.165 C15.269,12.172 15.278,12.172 15.281,12.178 C15.282,12.195 15.285,12.214 15.302,12.221 C15.308,12.224 15.312,12.218 15.318,12.218 C15.23,12.326 15.146,12.434 15.039,12.545 C14.876,12.482 14.729,12.376 14.612,12.19 C14.713,12.036 14.857,11.919 14.983,11.897 L14.983,11.897 Z" id="Shape" fill="#000000"></path>
                <path d="M32.532,0.2505 C31.923,0.8573 31.321,1.2858 30.467,1.8083 C28.968,2.7248 27.216,2.9589 25.03,3.0734 C20.603,3.3063 18.642,4.17 17.733,5.4133 C16.824,6.657 16.978,8.255 16.745,9.925 C16.672,10.448 16.515,11.074 16.231,11.604 C15.992,12.052 15.659,12.422 15.216,12.623 C16.446,11.51 16.452,10.422 16.556,9.785 C16.743,8.64 16.535,7.014 17.423,5.6283 C18.312,4.2422 20.3,3.0786 24.919,2.902 C26.823,2.8291 27.985,2.6458 28.792,2.4066 C29.598,2.1674 30.048,1.872 30.513,1.5871 C30.993,1.2928 31.388,0.8492 31.773,0.5527 C31.965,0.4044 32.154,0.2937 32.346,0.2536 C32.406,0.2409 32.47,0.2484 32.532,0.2505 L32.532,0.2505 Z M33.07,0.5028 C33.155,0.4995 33.225,0.5049 33.262,0.5215 C33.305,0.5408 33.323,0.5632 33.333,0.5932 C33.354,0.6532 33.325,0.7759 33.241,0.8923 C33.156,1.0087 33.025,1.1111 32.888,1.1509 C32.75,1.1903 32.506,1.0833 32.47,1.0512 C32.453,1.0335 32.428,1.0373 32.405,1.0356 C32.381,1.0089 32.358,0.9816 32.333,0.9546 C32.323,0.9414 32.307,0.9344 32.29,0.9359 C32.28,0.937 32.27,0.9414 32.262,0.9484 C30.078,2.9455 28.216,3.3248 25.145,3.5376 C24.099,3.6097 22.461,3.8095 21.045,4.1639 C20.338,4.3411 19.684,4.5552 19.188,4.8151 C18.692,5.0749 18.346,5.3815 18.271,5.7498 C18.268,5.7657 18.273,5.7817 18.284,5.7934 C18.295,5.8052 18.311,5.8114 18.327,5.809 C18.333,5.8081 18.34,5.8068 18.346,5.8059 C18.367,5.8348 18.398,5.8548 18.436,5.8495 C18.696,5.8263 19.447,5.8234 20.46,5.862 C21.473,5.901 22.757,5.979 24.11,6.108 C26.714,6.357 29.569,6.807 31.262,7.532 C31.296,7.572 31.325,7.614 31.361,7.654 C31.36,7.654 31.362,7.656 31.361,7.657 C31.318,7.682 31.21,7.695 31.058,7.682 C30.753,7.655 30.27,7.542 29.686,7.392 C28.518,7.092 26.938,6.65 25.488,6.498 C23.019,6.238 21.539,5.901 18.16,5.8931 C18.156,5.8926 18.152,5.8926 18.148,5.8931 C18.144,5.8939 18.141,5.8949 18.138,5.8963 C18.123,5.904 18.119,5.911 18.107,5.921 C18.095,5.931 18.08,5.945 18.064,5.962 C18.032,5.995 17.994,6.04 17.959,6.099 C17.888,6.217 17.83,6.386 17.857,6.588 C17.858,6.605 17.869,6.621 17.884,6.628 C17.891,6.632 17.902,6.632 17.909,6.635 C17.921,6.645 17.921,6.666 17.937,6.669 C18.227,6.719 18.889,6.926 19.739,7.23 C20.589,7.534 21.632,7.937 22.717,8.386 C24.831,9.26 27.084,10.307 28.355,11.128 C28.443,11.198 28.572,11.295 28.634,11.38 C28.65,11.403 28.663,11.423 28.668,11.439 C28.672,11.455 28.671,11.466 28.668,11.474 C28.662,11.486 28.611,11.507 28.55,11.523 C28.047,11.414 27.256,10.985 26.34,10.455 C25.338,9.875 24.197,9.196 23.126,8.753 C21.243,7.976 18.966,6.966 17.891,6.731 C17.887,6.73 17.882,6.729 17.878,6.728 C17.862,6.729 17.859,6.747 17.85,6.759 C17.843,6.758 17.836,6.758 17.829,6.759 C17.823,6.761 17.818,6.765 17.813,6.769 C17.737,6.82 17.683,6.876 17.658,6.943 C17.634,7.01 17.642,7.082 17.674,7.155 C17.738,7.302 17.892,7.466 18.123,7.7 C18.584,8.169 19.361,8.907 20.349,10.184 C22.06,12.396 22.859,13.466 23.203,13.997 C23.376,14.263 23.429,14.397 23.432,14.449 C23.434,14.475 23.431,14.479 23.42,14.49 C23.412,14.497 23.392,14.509 23.374,14.521 C23.237,14.516 23.156,14.49 23.076,14.415 C22.993,14.336 22.906,14.198 22.776,13.972 C22.515,13.521 22.075,12.73 21.052,11.389 C20.43,10.575 19.677,9.7 19.039,8.972 C18.41,8.252 17.9,7.683 17.745,7.47 C17.741,7.458 17.737,7.447 17.733,7.435 C17.728,7.423 17.72,7.413 17.708,7.407 C17.679,7.395 17.642,7.4 17.618,7.417 C17.595,7.433 17.578,7.455 17.562,7.482 C17.532,7.536 17.509,7.609 17.485,7.7 C17.437,7.884 17.393,8.137 17.358,8.401 C17.324,8.665 17.298,8.941 17.281,9.168 C17.265,9.386 17.257,9.543 17.262,9.626 L17.262,9.629 L17.262,9.632 L17.262,9.645 C17.263,9.653 17.267,9.659 17.271,9.666 C17.314,10.049 17.482,10.372 17.699,10.822 C17.923,11.288 18.196,11.893 18.442,12.848 C18.65,13.656 18.859,14.492 18.959,15.131 C19.009,15.451 19.03,15.722 19.014,15.91 C19.007,16.005 18.99,16.078 18.965,16.125 C18.94,16.172 18.914,16.192 18.875,16.197 L18.872,16.197 C18.813,16.211 18.792,16.205 18.77,16.181 C18.748,16.158 18.727,16.102 18.711,16.01 C18.68,15.826 18.669,15.508 18.618,15.041 C18.517,14.111 18.257,12.583 17.364,10.265 C17.362,10.258 17.361,10.253 17.358,10.246 C17.356,10.241 17.349,10.244 17.346,10.24 C17.34,10.232 17.34,10.221 17.33,10.218 C17.323,10.215 17.321,10.221 17.315,10.221 C17.311,10.221 17.31,10.214 17.305,10.215 C17.301,10.215 17.301,10.222 17.296,10.224 C17.289,10.227 17.279,10.224 17.275,10.227 C17.263,10.236 17.254,10.245 17.247,10.255 C17.231,10.276 17.214,10.301 17.197,10.336 C17.163,10.406 17.123,10.507 17.076,10.635 C16.984,10.892 16.871,11.258 16.764,11.685 C16.622,12.253 16.496,12.931 16.426,13.614 C16.42,13.512 16.418,13.445 16.414,13.343 C16.404,13.097 16.404,12.858 16.423,12.658 C16.433,12.56 16.449,12.473 16.47,12.399 C16.478,12.366 16.49,12.345 16.501,12.318 C16.516,12.279 16.53,12.235 16.55,12.209 C16.552,12.207 16.549,12.205 16.55,12.203 C16.551,12.2 16.552,12.198 16.553,12.196 C16.563,12.18 16.564,12.159 16.553,12.143 C16.551,12.141 16.546,12.143 16.544,12.14 C16.533,12.13 16.519,12.119 16.504,12.122 C16.493,12.123 16.484,12.127 16.476,12.134 C16.084,12.509 15.826,12.784 15.631,13.206 C15.536,13.411 15.457,13.655 15.386,13.957 C15.396,13.755 15.405,13.568 15.417,13.418 C15.429,13.268 15.449,13.152 15.466,13.109 C15.475,13.091 15.471,13.068 15.457,13.053 C15.444,13.038 15.424,13.034 15.405,13.041 C15.397,13.043 15.393,13.05 15.389,13.056 C15.385,13.056 15.381,13.052 15.377,13.053 C15.373,13.054 15.37,13.055 15.367,13.056 C15.119,13.17 14.757,13.425 14.451,13.745 C14.307,13.895 14.18,14.061 14.079,14.234 C14.156,13.916 14.23,13.79 14.296,13.661 C14.317,13.633 14.334,13.614 14.358,13.577 C14.367,13.561 14.367,13.542 14.358,13.527 C14.353,13.518 14.342,13.515 14.333,13.511 C14.333,13.51 14.331,13.512 14.33,13.511 C14.324,13.509 14.321,13.502 14.315,13.502 C14.31,13.502 14.307,13.505 14.302,13.505 C14.294,13.504 14.289,13.496 14.281,13.499 C14.275,13.5 14.274,13.509 14.268,13.511 C12.899,13.636 12.066,14.147 11.581,14.729 C11.259,15.116 11.098,15.522 11.018,15.867 C11.078,14.987 11.604,14.161 12.364,13.857 C12.796,13.685 13.382,13.607 13.909,13.511 C14.417,13.419 14.87,13.313 15.092,13.063 C15.712,12.848 16.167,12.262 16.482,11.642 C16.801,11.014 16.979,10.354 17.042,10.006 C17.313,8.51 17.045,6.932 17.872,5.6937 C18.286,5.0746 18.972,4.5366 20.148,4.1296 C21.324,3.7226 22.987,3.4501 25.343,3.3694 C27.248,3.3041 28.404,3.0608 29.2,2.7649 C29.997,2.469 30.433,2.1201 30.9,1.8457 C31.161,1.6923 31.612,1.3065 32.089,0.9827 C32.327,0.8207 32.571,0.6765 32.795,0.5838 C32.892,0.5434 32.983,0.5202 33.07,0.5028 L33.07,0.5028 Z M14.674,0.7427 C14.6,0.9219 14.503,1.1026 14.392,1.2537 C14.307,1.3691 14.227,1.4668 14.166,1.5342 C14.136,1.5678 14.111,1.5925 14.095,1.6089 C14.092,1.6124 14.091,1.6157 14.089,1.6183 C14.088,1.6193 14.087,1.6203 14.086,1.6214 C14.084,1.6223 14.081,1.6233 14.079,1.6245 C14.079,1.6248 14.077,1.6243 14.076,1.6245 C14.071,1.6285 14.067,1.6343 14.064,1.6401 C13.726,1.6832 13.397,1.7324 13.123,1.8457 C13.086,1.8608 13.061,1.8905 13.027,1.908 C12.825,1.8384 12.643,1.7986 12.451,1.746 C12.451,1.7445 12.454,1.7445 12.454,1.7429 C12.46,1.7203 12.486,1.6922 12.541,1.6619 C12.595,1.6316 12.674,1.6033 12.77,1.5747 C12.961,1.5173 13.219,1.4597 13.488,1.3846 C13.926,1.2623 14.387,1.0772 14.674,0.7427 L14.674,0.7427 Z M33.631,0.749 C33.679,0.7564 33.715,0.7715 33.739,0.7895 C33.788,0.8255 33.803,0.8766 33.795,0.9453 C33.787,1.0055 33.748,1.0746 33.699,1.1416 C33.706,1.0938 33.721,1.0429 33.702,1.0045 C33.66,0.9209 33.57,0.884 33.476,0.8643 C33.493,0.8264 33.513,0.7909 33.522,0.7521 C33.56,0.7508 33.602,0.7446 33.631,0.749 L33.631,0.749 Z M15.918,1.1883 C15.748,2.0765 15.27,2.635 14.804,2.9892 C14.553,3.18 14.309,3.3163 14.126,3.4192 C14.034,3.4707 13.956,3.5131 13.9,3.5532 C13.872,3.5732 13.85,3.5941 13.832,3.6155 C13.813,3.6369 13.798,3.6618 13.798,3.6934 C13.798,3.7209 13.82,3.7432 13.847,3.7432 C13.926,3.7419 14.126,3.7394 14.321,3.737 C14.395,3.7361 14.424,3.7347 14.488,3.7339 C14.715,4.2115 14.805,4.8861 14.788,5.6595 C14.77,6.49 14.639,7.422 14.454,8.317 C14.269,9.217 14.05,10.215 14.055,11.078 C14.057,11.509 14.115,11.907 14.265,12.243 C14.387,12.514 14.572,12.744 14.829,12.913 C14.782,12.987 14.7,13.052 14.569,13.103 C14.413,13.163 14.209,13.207 13.987,13.243 C13.541,13.316 13.019,13.36 12.637,13.474 C12.381,13.55 11.816,13.839 11.383,14.359 C11.021,14.792 10.778,15.399 10.884,16.153 C10.877,16.167 10.872,16.183 10.878,16.197 C10.887,16.219 10.897,16.241 10.906,16.262 C10.927,16.378 10.932,16.486 10.971,16.608 L10.971,16.611 C10.978,16.638 11.006,16.653 11.033,16.646 C11.059,16.639 11.074,16.613 11.067,16.587 C11.067,16.585 11.068,16.582 11.067,16.58 C11.065,16.573 11.066,16.566 11.064,16.558 C11.055,16.52 11.055,16.482 11.048,16.443 C11.139,16.489 11.259,16.514 11.405,16.518 C11.225,16.932 11.095,17.404 11.011,17.908 C10.92,17.768 10.784,17.638 10.6,17.518 C10.614,17.463 10.625,17.407 10.624,17.347 C10.621,17.06 10.434,16.729 10.008,16.331 C10.039,16.283 10.067,16.234 10.086,16.178 C10.171,15.923 10.111,15.597 9.863,15.163 C10.021,14.905 10.023,14.518 9.795,13.929 C9.793,13.925 9.788,13.926 9.785,13.923 C9.807,13.902 9.831,13.886 9.85,13.863 C10.041,13.632 10.09,13.273 9.931,12.726 C9.93,12.724 9.928,12.724 9.928,12.723 C9.967,12.693 10.006,12.662 10.039,12.623 C10.221,12.41 10.294,12.069 10.213,11.539 C10.281,11.505 10.345,11.465 10.398,11.405 C10.566,11.218 10.639,10.896 10.596,10.383 C10.719,10.342 10.831,10.282 10.918,10.19 C11.085,10.014 11.159,9.734 11.101,9.317 C11.185,9.278 11.266,9.233 11.33,9.158 C11.48,8.985 11.558,8.707 11.531,8.299 C11.589,8.275 11.645,8.252 11.683,8.211 C11.784,8.104 11.807,7.945 11.804,7.716 C11.801,7.522 11.778,7.236 11.761,6.912 C11.834,6.799 11.891,6.67 11.912,6.507 C11.945,6.256 11.914,5.941 11.813,5.5473 C11.937,5.2421 12.014,4.8915 11.99,4.4661 C12.081,4.4971 12.184,4.5176 12.312,4.4941 C12.463,4.4665 12.643,4.3813 12.86,4.2231 C12.865,4.219 12.87,4.2179 12.875,4.2137 C12.879,4.2112 12.881,4.2101 12.884,4.2075 C12.905,4.192 12.911,4.1641 12.897,4.1421 C12.883,4.12 12.855,4.1113 12.832,4.1234 C12.829,4.1247 12.828,4.1282 12.826,4.1296 C12.772,4.1577 12.721,4.1932 12.68,4.2168 C12.637,4.2417 12.608,4.2476 12.584,4.2387 C12.366,4.1565 12.313,4.2517 11.692,3.737 C11.683,3.7287 11.671,3.7242 11.658,3.7246 C11.642,3.7254 11.627,3.7327 11.618,3.7464 C11.61,3.76 11.609,3.7781 11.615,3.7931 C11.618,3.8005 11.624,3.8076 11.627,3.8149 C11.629,3.8161 11.629,3.8169 11.631,3.818 C11.69,3.9447 11.801,4.0643 11.915,4.1608 C11.962,4.1998 11.988,4.2084 12.03,4.2387 C11.888,4.2059 11.773,4.1569 11.68,4.114 C11.661,4.106 11.639,4.109 11.624,4.1234 C11.61,4.1378 11.607,4.1607 11.615,4.1795 C11.884,4.8064 11.688,5.5635 11.222,6.061 C10.762,6.553 10.047,6.79 9.256,6.41 C9.247,6.39 9.225,6.379 9.203,6.382 C9.191,6.385 9.183,6.394 9.175,6.404 C9.174,6.406 9.17,6.405 9.169,6.407 C9.063,6.59 8.97,6.757 8.776,6.937 C8.656,7.048 8.474,7.17 8.25,7.298 C8.347,7.205 8.415,7.118 8.46,7.03 C8.554,6.849 8.551,6.672 8.541,6.448 C8.54,6.425 8.525,6.406 8.504,6.401 C8.482,6.396 8.459,6.406 8.448,6.426 C8.307,6.685 7.872,7.069 7.16,7.333 C7.457,7.085 7.65,6.82 7.665,6.557 C7.666,6.536 7.655,6.516 7.637,6.507 C7.618,6.498 7.596,6.502 7.581,6.516 C7.189,6.863 6.506,6.973 5.841,7.015 C5.988,6.945 6.13,6.843 6.259,6.703 C6.512,6.427 6.717,6.006 6.844,5.4538 C7.308,5.7257 7.73,5.8137 8.089,5.7903 C8.499,5.7636 8.822,5.6075 9.055,5.4694 C9.049,5.5702 9.043,5.6567 9.042,5.7841 C9.042,5.8085 9.059,5.8293 9.083,5.8339 C9.106,5.8386 9.13,5.8257 9.138,5.8028 C9.357,5.2831 9.465,4.9576 9.435,4.6842 C9.406,4.4108 9.233,4.2073 8.928,3.9395 C8.917,3.9296 8.902,3.925 8.887,3.9271 C8.866,3.9311 8.85,3.9488 8.847,3.9707 C8.841,4.0346 8.835,4.0999 8.829,4.1639 C8.222,4.1295 7.57,3.55 6.247,4.5502 C6.215,3.9725 6.25,3.5934 6.404,3.279 C6.466,3.287 6.528,3.2867 6.59,3.2759 C6.714,3.2542 6.832,3.1836 6.918,3.0484 C6.997,2.9255 7.045,2.7426 7.064,2.5 C7.856,2.5352 8.757,2.6832 9.736,2.9643 C9.739,2.9653 9.742,2.9665 9.745,2.9674 C9.768,2.972 9.792,2.9582 9.801,2.9363 C9.803,2.9307 9.798,2.9263 9.798,2.9207 C9.799,2.9184 9.803,2.92 9.804,2.9176 C9.812,2.8942 9.801,2.8696 9.779,2.8584 C9.777,2.8574 9.775,2.8562 9.773,2.8552 C9.77,2.8545 9.769,2.8529 9.767,2.8521 C9.607,2.7868 9.482,2.7173 9.374,2.6496 C9.305,2.5883 9.246,2.5228 9.225,2.4564 C9.176,2.3007 9.246,2.1333 9.47,1.9953 C9.911,1.7228 10.958,1.6236 12.655,2.1947 C12.591,2.2781 12.534,2.369 12.497,2.4814 C12.49,2.503 12.497,2.528 12.516,2.5406 C12.535,2.5531 12.561,2.5499 12.578,2.5343 C13.065,2.0561 13.738,1.9821 14.392,1.8831 C14.978,1.7945 15.539,1.6586 15.918,1.1883 L15.918,1.1883 Z M15.429,1.9579 C15.419,1.959 15.409,1.9634 15.401,1.9704 C14.979,2.3065 14.605,2.4126 14.194,2.4845 C13.847,2.5362 13.695,2.6657 13.606,2.7244 C13.583,2.739 13.566,2.7484 13.553,2.7524 C13.54,2.7564 13.532,2.7565 13.519,2.7524 C13.493,2.7444 13.442,2.7069 13.364,2.6184 C13.349,2.6041 13.327,2.6001 13.309,2.6091 C13.29,2.6181 13.279,2.6383 13.281,2.659 C13.282,2.665 13.288,2.6774 13.29,2.6839 C13.291,2.6854 13.292,2.6854 13.293,2.687 C13.313,2.7696 13.361,2.8787 13.426,2.9923 C13.462,3.0544 13.5,3.115 13.535,3.1637 C13.569,3.2124 13.597,3.2499 13.634,3.2728 C13.646,3.2803 13.66,3.2832 13.674,3.279 C13.688,3.2748 13.699,3.264 13.705,3.251 C13.838,2.9676 13.953,2.8012 14.048,2.7119 C14.144,2.6226 14.214,2.6077 14.275,2.6184 C14.335,2.6292 14.392,2.6724 14.445,2.715 C14.471,2.7363 14.496,2.7573 14.522,2.7742 C14.549,2.7911 14.577,2.8067 14.615,2.7992 C14.628,2.7978 14.641,2.7911 14.649,2.7805 C14.801,2.5631 15.102,2.3279 15.46,2.0483 C15.478,2.0354 15.486,2.013 15.479,1.9922 C15.472,1.9713 15.451,1.957 15.429,1.9579 L15.429,1.9579 Z M2.039,2.0981 C2.621,2.9139 3.382,3.6814 4.473,4.2605 C4.027,4.3048 3.685,4.212 3.401,4.0299 C3.035,3.7945 2.762,3.4094 2.497,2.9923 C2.496,2.9903 2.495,2.9881 2.494,2.9861 C2.483,2.9684 2.462,2.9597 2.442,2.9643 C2.426,2.9674 2.414,2.9783 2.408,2.9923 C2.401,3.0064 2.4,3.0221 2.408,3.036 C2.408,3.0376 2.41,3.0375 2.411,3.0391 C2.773,3.8162 3.069,4.1693 3.253,4.4287 C3.419,4.6631 3.487,4.8217 3.454,5.164 C3.013,4.8341 2.671,4.2662 2.438,3.6654 C2.204,3.0597 2.087,2.4809 2.039,2.0981 L2.039,2.0981 Z M31.485,2.1573 C31.196,2.5601 30.915,3.034 30.714,3.5781 C30.303,4.6927 30.217,6.04 31.005,7.211 C29.245,6.546 26.578,6.143 24.129,5.909 C22.771,5.7789 21.483,5.7044 20.467,5.6657 C19.554,5.631 18.973,5.6353 18.631,5.6532 C18.786,5.3787 19.166,5.1171 19.699,4.8961 C20.292,4.6496 21.052,4.4455 21.816,4.2823 C23.346,3.9558 24.909,3.7946 25.237,3.7838 C27.669,3.7036 29.376,3.2083 30.541,2.6714 C30.916,2.4987 31.216,2.326 31.485,2.1573 L31.485,2.1573 Z M9.745,2.3349 C9.665,2.3291 9.571,2.3375 9.457,2.363 C9.433,2.369 9.418,2.3915 9.42,2.4159 C9.426,2.4931 9.462,2.5495 9.51,2.5904 C9.558,2.6313 9.614,2.6597 9.674,2.6963 C9.793,2.7697 9.93,2.8715 10.033,3.1419 C10.041,3.1598 10.057,3.1724 10.076,3.1731 C10.096,3.1737 10.114,3.1623 10.123,3.145 C10.143,3.1027 10.149,3.068 10.157,3.0484 C10.159,3.0433 10.164,3.0427 10.166,3.0391 C10.183,3.0573 10.201,3.0732 10.228,3.1014 C10.247,3.1215 10.272,3.1441 10.305,3.1544 C10.339,3.1646 10.378,3.1615 10.42,3.1481 C10.815,3.026 11.082,2.9652 11.268,2.9518 C11.455,2.9384 11.556,2.9698 11.637,3.0391 C11.656,3.0521 11.682,3.0515 11.699,3.036 C11.716,3.0204 11.719,2.9938 11.708,2.9736 C11.705,2.9691 11.702,2.9687 11.699,2.9643 C11.505,2.6794 11.306,2.5799 11.104,2.5561 C10.899,2.532 10.696,2.5722 10.463,2.5343 C10.227,2.4958 10.097,2.4319 9.962,2.3848 C9.894,2.3612 9.825,2.3407 9.745,2.3349 L9.745,2.3349 Z M9.801,2.4845 C9.908,2.4993 10.153,2.5923 10.244,2.5904 C10.183,2.8022 10.299,2.8899 10.405,2.9456 C10.094,2.9846 9.812,2.5179 9.801,2.4845 L9.801,2.4845 Z M6.723,2.4876 C6.732,2.5869 6.736,2.7382 6.692,2.8615 C6.665,2.9387 6.625,2.9943 6.559,3.0204 C6.494,3.0463 6.394,3.0429 6.247,2.9768 C6.246,2.9765 6.244,2.977 6.243,2.9768 C6.145,2.925 5.853,2.7834 5.538,2.6995 C5.464,2.6798 5.391,2.6807 5.318,2.6714 C5.719,2.5511 6.187,2.4875 6.723,2.4876 L6.723,2.4876 Z M10.903,2.634 C11.058,2.6173 11.187,2.7096 11.042,2.7898 C10.895,2.8714 10.641,2.9877 10.488,2.9394 C10.636,2.9319 10.683,2.7629 10.615,2.6496 C10.56,2.6385 10.748,2.6507 10.903,2.634 L10.903,2.634 Z M11.606,3.1481 C11.34,3.1421 11.172,3.1537 11.045,3.1886 C10.917,3.2239 10.833,3.2815 10.736,3.3507 C10.719,3.362 10.71,3.3838 10.714,3.4036 C10.718,3.4234 10.735,3.4373 10.754,3.441 C10.851,3.4606 10.902,3.4713 10.922,3.4815 C10.931,3.4866 10.933,3.4904 10.94,3.5002 C10.947,3.5101 10.956,3.5243 10.968,3.5501 C10.975,3.5679 10.992,3.5806 11.011,3.5812 C11.031,3.5819 11.049,3.5705 11.058,3.5532 C11.126,3.4113 11.186,3.343 11.265,3.3039 C11.338,3.268 11.445,3.2584 11.587,3.251 C11.599,3.2512 11.6,3.2475 11.612,3.2478 L11.612,3.2447 C11.613,3.2447 11.614,3.2448 11.615,3.2447 C11.637,3.2384 11.653,3.2177 11.652,3.1949 C11.651,3.1721 11.634,3.153 11.612,3.1481 C11.61,3.1481 11.61,3.1482 11.609,3.1481 C11.608,3.1482 11.607,3.1481 11.606,3.1481 L11.606,3.1481 Z M39.789,3.5251 C37.899,5.6947 37.453,8.039 37.33,8.757 C37.081,8.327 36.773,7.849 36.965,7.249 L36.965,7.245 C37.419,6.154 37.572,5.977 38.77,4.4225 C38.771,4.4208 38.772,4.4211 38.773,4.4194 C38.788,4.3985 38.786,4.3679 38.767,4.3508 C38.748,4.3338 38.717,4.3359 38.699,4.3539 C38.698,4.3551 38.697,4.3559 38.696,4.3571 C38.694,4.3588 38.694,4.3585 38.693,4.3602 C38.688,4.3654 38.685,4.3705 38.68,4.3757 C38.68,4.3763 38.678,4.3752 38.677,4.3757 C37.385,5.4546 36.8,6.189 36.293,6.678 C35.82,7.135 35.403,7.375 34.544,7.501 C36.117,6.168 36.843,4.9635 39.789,3.5251 L39.789,3.5251 Z M14.965,3.709 C14.979,3.7135 14.978,3.7098 14.993,3.7152 C15.118,3.7611 15.276,3.8401 15.432,3.9676 C15.685,4.1738 15.924,4.5227 16.021,5.0768 C15.929,4.934 15.809,4.8365 15.677,4.7839 C15.464,4.6989 15.245,4.7004 15.104,4.6998 C15.091,4.5833 15.084,4.4542 15.067,4.3477 C15.236,4.3378 15.408,4.3381 15.584,4.5191 C15.603,4.5371 15.633,4.5393 15.652,4.5222 C15.672,4.5051 15.674,4.4745 15.658,4.4536 C15.657,4.4523 15.656,4.4519 15.655,4.4505 C15.437,4.1591 15.216,4.0105 15.014,4.005 C14.996,3.9089 14.982,3.8074 14.965,3.709 L14.965,3.709 Z M3.361,4.2106 C3.397,4.2306 3.436,4.2396 3.473,4.2573 C4.034,4.669 4.514,4.9076 4.977,4.9864 C5.461,5.0687 5.926,4.9887 6.451,4.7964 L6.454,4.7964 C6.564,4.7478 6.779,4.6953 7.036,4.6562 C7.293,4.617 7.596,4.5899 7.894,4.5876 C8.191,4.5853 8.483,4.608 8.717,4.6655 C8.881,4.7059 8.997,4.7691 9.086,4.8431 C8.621,4.7459 8.18,4.7118 7.64,4.7403 C7.627,4.7408 7.615,4.7464 7.606,4.7559 C7.589,4.7726 7.569,4.7848 7.572,4.8244 C7.573,4.8442 7.59,4.8635 7.603,4.8712 C7.616,4.8789 7.627,4.8792 7.637,4.8805 C7.677,4.8858 7.722,4.8789 7.785,4.8712 C7.912,4.8556 8.095,4.831 8.284,4.8462 C8.472,4.8615 8.56,4.8684 8.983,5.0051 C9.014,5.035 9.03,5.0748 9.042,5.1173 C9.027,5.1119 9.01,5.1051 8.987,5.0986 C8.938,5.085 8.871,5.0694 8.788,5.0519 C8.622,5.0167 8.393,4.978 8.135,4.9491 C7.62,4.8911 6.985,4.8747 6.482,5.0269 L6.479,5.0269 C6.042,5.2061 5.467,5.2951 4.903,5.2014 C4.37,5.1129 3.852,4.8537 3.457,4.3633 C3.424,4.3137 3.394,4.2602 3.361,4.2106 L3.361,4.2106 Z M38.052,5.1048 C37.038,6.328 36.506,7.367 36.228,8.09 C36.061,8.524 35.976,8.85 35.909,9.037 C35.88,9.118 35.852,9.157 35.835,9.177 C35.705,9.071 35.574,8.972 35.436,8.884 C35.438,8.838 35.441,8.789 35.47,8.707 C35.507,8.598 35.567,8.464 35.646,8.308 C35.805,7.996 36.044,7.6 36.343,7.167 C36.792,6.518 37.382,5.7832 38.052,5.1048 L38.052,5.1048 Z M15.138,5.7529 C15.456,5.967 15.769,6.22 15.94,6.591 C16.077,6.889 16.126,7.265 16.018,7.756 C15.989,7.519 15.889,7.318 15.736,7.189 C15.608,7.082 15.451,7.024 15.29,7.021 C15.183,7.019 15.076,7.055 14.974,7.108 C15.006,6.917 15.032,6.736 15.055,6.569 C15.098,6.558 15.159,6.554 15.237,6.582 C15.327,6.613 15.428,6.67 15.522,6.738 C15.617,6.805 15.704,6.886 15.767,6.965 C15.83,7.044 15.867,7.12 15.869,7.177 C15.87,7.204 15.891,7.224 15.918,7.224 C15.946,7.223 15.969,7.201 15.968,7.174 C15.965,7.101 15.929,7.03 15.881,6.959 C15.866,6.931 15.866,6.906 15.847,6.878 C15.777,6.773 15.685,6.667 15.587,6.569 C15.489,6.471 15.383,6.383 15.29,6.32 C15.217,6.27 15.156,6.237 15.095,6.227 C15.112,6.061 15.13,5.8962 15.138,5.7529 L15.138,5.7529 Z M11.609,5.937 C11.714,6.195 11.739,6.404 11.699,6.566 C11.655,6.741 11.547,6.873 11.392,6.977 C11.123,7.16 10.724,7.242 10.361,7.301 C10.324,7.29 10.258,7.282 10.24,7.27 C10.221,7.257 10.216,7.245 10.213,7.236 C10.209,7.227 10.209,7.22 10.213,7.208 C10.214,7.204 10.22,7.2 10.222,7.196 C10.238,7.176 10.243,7.162 10.274,7.136 C10.332,7.09 10.413,7.034 10.507,6.971 C10.693,6.846 10.932,6.685 11.166,6.473 C11.327,6.326 11.476,6.142 11.609,5.937 L11.609,5.937 Z M18.21,6.133 C21.96,6.277 22.952,6.536 25.426,6.825 C27.137,7.024 28.705,7.482 29.841,7.763 C29.849,7.765 29.855,7.767 29.863,7.769 C28.758,8.044 28.251,8.737 28.098,9.423 C28.009,9.822 28.03,10.214 28.098,10.526 C28.121,10.632 28.156,10.712 28.188,10.797 C26.862,9.989 24.78,9.024 22.792,8.202 C21.704,7.752 20.657,7.348 19.804,7.043 C19.068,6.78 18.527,6.61 18.169,6.526 C18.142,6.4 18.139,6.247 18.21,6.133 L18.21,6.133 Z M17.922,7.037 C17.968,7.044 18.02,7.055 18.114,7.083 C18.234,7.12 18.386,7.173 18.566,7.239 C18.924,7.37 19.385,7.551 19.894,7.756 C20.91,8.167 22.114,8.675 23.052,9.065 C24.08,9.493 25.518,10.341 26.699,10.997 C26.758,11.029 26.805,11.055 26.863,11.087 C26.805,11.086 26.76,11.076 26.699,11.078 C26.303,11.089 25.834,11.167 25.371,11.34 C24.478,11.672 23.603,12.368 23.296,13.63 C23.262,13.58 23.242,13.543 23.203,13.489 C22.681,12.765 21.758,11.664 20.501,10.056 C19.724,9.062 18.953,8.337 18.457,7.822 C18.209,7.564 18.03,7.356 17.956,7.205 C17.92,7.134 17.914,7.08 17.922,7.037 L17.922,7.037 Z M11.538,7.143 C11.596,7.451 11.601,7.679 11.559,7.831 C11.515,7.995 11.428,8.086 11.296,8.146 C11.101,8.234 10.786,8.244 10.439,8.261 C10.309,8.241 10.229,8.196 10.185,8.136 C10.138,8.073 10.126,7.991 10.138,7.9 C10.161,7.721 10.283,7.516 10.392,7.417 L10.398,7.417 C10.434,7.418 10.44,7.413 10.5,7.42 C10.51,7.42 10.512,7.41 10.519,7.404 C10.929,7.375 11.291,7.315 11.538,7.143 L11.538,7.143 Z M31.637,7.822 C31.643,7.83 31.654,7.835 31.659,7.844 C31.689,7.9 31.687,7.976 31.655,8.055 C31.624,8.135 31.564,8.214 31.494,8.267 C31.491,8.27 31.488,8.268 31.485,8.27 C31.523,8.222 31.551,8.168 31.559,8.112 C31.569,8.045 31.561,7.977 31.541,7.915 C31.552,7.909 31.568,7.904 31.578,7.897 C31.604,7.877 31.618,7.848 31.637,7.822 L31.637,7.822 Z M17.773,7.906 C17.797,7.92 17.806,7.917 17.838,7.943 C17.99,8.068 18.212,8.316 18.473,8.635 C18.994,9.272 19.678,10.196 20.343,11.028 C21.032,11.891 21.582,12.883 22.07,13.623 C22.148,13.741 22.222,13.838 22.296,13.941 C22.064,13.873 21.806,13.819 21.516,13.817 C21.361,13.815 21.199,13.827 21.036,13.854 C20.413,13.958 19.764,14.312 19.271,15.078 C19.166,14.453 18.946,13.672 18.677,12.782 C18.283,11.479 18.051,10.988 17.891,10.673 C17.731,10.361 17.643,10.228 17.528,9.638 C17.529,9.636 17.532,9.634 17.531,9.632 C17.511,9.378 17.557,8.894 17.627,8.492 C17.662,8.29 17.703,8.108 17.742,7.984 C17.753,7.948 17.762,7.93 17.773,7.906 L17.773,7.906 Z M14.822,8.077 C14.886,8.173 14.973,8.263 15.083,8.355 C15.246,8.491 15.435,8.638 15.581,8.822 C15.727,9.006 15.83,9.227 15.819,9.52 C15.812,9.742 15.705,10.024 15.531,10.346 C15.553,10.193 15.547,10.054 15.497,9.941 C15.413,9.748 15.251,9.613 15.083,9.514 C14.914,9.415 14.736,9.352 14.618,9.305 C14.59,9.294 14.578,9.288 14.559,9.28 C14.593,9.153 14.637,9.059 14.696,9.018 C14.775,8.963 14.875,8.966 14.983,9.003 C15.092,9.039 15.203,9.109 15.293,9.187 C15.383,9.264 15.449,9.352 15.466,9.395 C15.477,9.42 15.504,9.432 15.528,9.423 C15.553,9.414 15.567,9.386 15.559,9.361 C15.559,9.36 15.56,9.359 15.559,9.358 C15.559,9.356 15.557,9.353 15.556,9.352 C15.414,8.973 15.144,8.867 14.971,8.744 C14.884,8.682 14.82,8.621 14.792,8.51 C14.767,8.417 14.777,8.271 14.822,8.077 L14.822,8.077 Z M2.937,8.183 C3.301,8.17 3.57,8.316 3.714,8.57 C3.67,8.602 3.629,8.6 3.562,8.613 C3.523,8.475 3.296,8.316 3.095,8.286 C3.079,8.276 3.059,8.273 3.042,8.283 C3.026,8.293 3.016,8.311 3.017,8.33 C3.019,8.349 3.034,8.367 3.052,8.373 C3.197,8.446 3.357,8.502 3.296,8.635 C3.222,8.636 3.177,8.638 3.117,8.632 C3.114,8.491 2.821,8.359 2.544,8.252 C2.685,8.21 2.815,8.188 2.937,8.183 L2.937,8.183 Z M11.271,8.361 C11.298,8.731 11.224,8.946 11.098,9.065 C10.968,9.187 10.775,9.222 10.559,9.218 C10.348,9.213 10.123,9.168 9.925,9.146 C9.918,9.137 9.915,9.125 9.903,9.124 L9.897,9.124 C9.837,9.12 9.796,9.105 9.773,9.087 C9.749,9.067 9.738,9.043 9.736,9.009 C9.732,8.941 9.778,8.837 9.85,8.735 C9.923,8.632 10.019,8.532 10.113,8.464 C10.197,8.402 10.269,8.381 10.315,8.383 C10.65,8.385 10.968,8.389 11.166,8.376 C11.208,8.374 11.234,8.365 11.271,8.361 L11.271,8.361 Z M33.724,8.635 C35.186,8.639 37.032,10.131 37.033,12.268 C37.034,13.752 36.177,16.232 33.008,17.312 C32.121,15.562 30.433,14.007 28.253,13.259 C28.243,13.254 28.232,13.253 28.222,13.256 C28.2,13.261 28.182,13.28 28.182,13.302 C28.181,13.325 28.197,13.346 28.219,13.352 C30.593,14.167 32.177,16.013 32.959,17.954 C33.167,18.471 33.683,19.179 34.197,19.659 C34.712,20.138 35.302,20.449 35.875,20.463 C36.264,20.472 36.7,20.698 36.885,21.204 C37.03,21.604 37.02,22.115 36.655,22.669 C36.718,22.425 36.667,22.221 36.581,22.083 C36.44,21.857 36.144,21.767 35.95,21.774 C35.61,21.788 35.413,21.941 34.95,22.186 C34.925,22.198 34.915,22.229 34.928,22.254 C34.935,22.268 35.099,22.284 35.272,22.288 C35.292,22.558 35.703,25.396 35.767,25.8 C36.079,27.773 37.444,26.816 37.677,26.853 C38.123,26.923 38.218,27.047 38.364,27.19 C38.21,27.202 38.09,27.659 38.166,27.962 C37.615,28.364 37.059,27.754 36.652,27.75 C36.182,27.762 35.673,28.086 35.135,28.255 C34.642,28.41 34.397,28.532 33.779,28.249 C33.875,28.221 33.99,28.187 33.999,28.187 C34.012,28.186 34.025,28.187 34.033,28.187 C34.042,28.186 34.044,28.186 34.055,28.183 C34.074,28.183 34.091,28.171 34.098,28.152 C34.106,28.134 34.103,28.114 34.089,28.099 C34.075,28.085 34.055,28.08 34.036,28.087 C34.042,28.086 34.034,28.086 34.027,28.087 L33.996,28.087 C33.97,28.088 33.936,28.089 33.894,28.09 C33.81,28.091 33.7,28.093 33.584,28.093 C33.353,28.094 33.102,28.093 33.002,28.093 C32.739,28.093 32.359,28.172 32.039,28.345 C31.72,28.519 31.481,28.733 31.185,28.729 C31.018,28.726 30.844,28.697 30.699,28.585 C30.774,28.316 30.762,27.965 30.559,27.669 L30.51,27.666 C30.854,27.618 30.975,27.444 31.203,27.439 C31.471,27.432 31.468,27.974 32.854,27.087 C32.87,27.078 32.882,27.062 32.881,27.043 C32.881,27.024 32.87,27.005 32.854,26.996 C32.837,26.988 32.816,26.991 32.801,27.003 C31.576,27.559 31.957,27.139 31.327,27.168 C30.729,27.195 30.711,27.393 30.352,27.389 C30.166,27.387 29.946,27.296 29.9,27.208 C30.036,27.176 30.092,26.715 30.021,26.476 C30.022,26.466 30.029,26.456 30.03,26.451 C30.036,26.43 30.025,26.408 30.008,26.395 C30.087,26.3 30.302,26.261 30.494,26.261 C30.668,26.264 30.904,26.426 31.176,26.541 C31.447,26.657 31.688,26.445 32.021,26.666 C32.045,26.68 32.075,26.671 32.089,26.647 C32.103,26.623 32.094,26.593 32.07,26.579 C31.953,26.513 31.708,26.254 31.433,26.136 C31.26,26.063 31.059,26.018 30.872,25.987 C30.743,25.866 30.513,25.654 30.544,25.635 C30.61,25.594 30.676,25.539 30.733,25.47 C30.79,25.401 30.838,25.32 30.854,25.233 C30.864,25.176 30.849,25.153 30.829,25.114 C30.834,25.096 30.841,25.085 30.847,25.058 C30.918,24.979 30.963,24.94 31.067,24.931 C31.228,24.947 31.321,25.005 31.454,25.136 C31.588,25.268 31.73,25.463 31.86,25.694 C32.052,26.037 32.311,26.232 32.575,26.407 C32.491,26.476 32.391,26.561 32.383,26.56 C32.37,26.559 32.36,26.554 32.337,26.566 C32.311,26.578 32.301,26.606 32.312,26.632 C32.323,26.658 32.351,26.671 32.377,26.66 C32.383,26.66 32.394,26.66 32.408,26.663 C32.436,26.668 32.475,26.68 32.522,26.691 C32.616,26.713 32.74,26.741 32.869,26.76 C32.998,26.778 33.132,26.785 33.253,26.763 C33.374,26.741 33.487,26.688 33.547,26.579 C33.959,25.836 33.92,24.727 33.683,23.74 C33.447,22.758 32.741,21.421 32.714,21.41 C32.686,21.083 31.878,20.091 31.702,20.316 C31.704,20.279 31.712,20.245 31.699,20.204 C31.678,20.142 31.645,20.071 31.6,20.001 C31.509,19.861 31.376,19.712 31.234,19.59 C31.093,19.468 30.945,19.373 30.807,19.35 C30.738,19.339 30.668,19.346 30.612,19.384 C30.597,19.395 30.593,19.421 30.581,19.434 C30.559,19.363 30.521,19.292 30.467,19.216 C30.367,19.079 30.226,18.937 30.076,18.824 C29.927,18.71 29.771,18.625 29.634,18.599 C29.565,18.587 29.498,18.588 29.442,18.618 C29.437,18.621 29.437,18.63 29.433,18.634 C29.414,18.579 29.387,18.525 29.346,18.465 C29.25,18.33 29.103,18.183 28.937,18.07 C28.771,17.957 28.588,17.877 28.417,17.883 C28.322,17.886 28.237,17.926 28.163,17.995 C28.158,17.886 28.129,17.777 28.073,17.674 C27.971,17.485 27.803,17.312 27.618,17.188 C27.433,17.063 27.233,16.984 27.061,16.995 C26.975,17 26.895,17.031 26.835,17.091 L26.832,17.094 C26.813,16.979 26.773,16.871 26.699,16.783 C26.568,16.627 26.371,16.515 26.169,16.446 C25.968,16.378 25.762,16.356 25.6,16.387 C25.518,16.403 25.447,16.43 25.395,16.481 C25.382,16.494 25.374,16.511 25.364,16.527 C25.358,16.518 25.363,16.505 25.355,16.496 C25.308,16.438 25.242,16.384 25.163,16.337 C25.005,16.243 24.794,16.17 24.584,16.138 C24.479,16.122 24.373,16.115 24.275,16.122 C24.176,16.13 24.087,16.151 24.008,16.191 C23.91,16.241 23.849,16.336 23.816,16.449 C23.762,16.361 23.689,16.29 23.587,16.253 C23.415,16.19 23.198,16.19 22.993,16.228 C22.788,16.266 22.593,16.342 22.463,16.443 C22.425,16.473 22.408,16.513 22.383,16.549 C22.355,16.527 22.338,16.496 22.302,16.481 C22.157,16.416 21.948,16.394 21.739,16.409 C21.53,16.424 21.322,16.476 21.182,16.583 C21.111,16.637 21.057,16.705 21.036,16.789 C21.035,16.795 21.037,16.802 21.036,16.808 C20.989,16.781 20.947,16.751 20.884,16.739 C20.698,16.704 20.454,16.724 20.228,16.786 C20.003,16.848 19.795,16.949 19.686,17.097 C19.638,17.164 19.615,17.242 19.621,17.325 C19.584,17.313 19.555,17.29 19.513,17.284 C19.322,17.26 19.088,17.302 18.878,17.378 C18.669,17.454 18.483,17.563 18.386,17.702 C18.352,17.751 18.335,17.808 18.33,17.864 C18.269,17.838 18.207,17.812 18.135,17.808 C17.939,17.796 17.715,17.853 17.519,17.948 C17.323,18.043 17.153,18.173 17.079,18.325 C17.061,18.362 17.05,18.401 17.045,18.44 C16.973,18.428 16.898,18.423 16.823,18.434 C16.76,18.444 16.879,18.217 16.996,18.004 C17.076,17.901 17.142,17.801 17.237,17.689 C17.264,17.683 17.281,17.657 17.275,17.63 C17.268,17.604 17.239,17.586 17.213,17.593 C17.206,17.594 17.2,17.596 17.194,17.599 C16.715,17.827 16.315,18.414 16.03,19.088 C15.745,19.763 15.578,20.526 15.587,21.117 L15.587,21.123 C15.654,21.697 15.868,21.978 15.996,22.245 C16.123,22.511 16.176,22.763 15.949,23.332 C15.949,23.333 15.95,23.334 15.949,23.335 C15.804,23.626 15.784,23.703 15.383,23.902 C15.828,22.986 14.424,22.438 12.881,23.301 C12.863,23.308 12.852,23.325 12.85,23.345 C12.849,23.364 12.858,23.382 12.875,23.391 C12.892,23.401 12.912,23.399 12.928,23.388 C13.039,23.365 13.109,23.363 13.209,23.345 C13.407,23.716 12.581,24.51 12.067,25.251 C11.796,25.643 11.065,26.645 11.064,27.118 C11.063,27.591 11.18,27.816 11.55,27.81 C11.647,27.808 11.826,27.818 12.039,27.772 C12.252,27.726 12.568,27.607 12.761,27.607 C12.95,27.607 13.069,27.622 13.256,27.775 C13.202,27.797 12.814,28.481 13.061,28.747 C13.042,28.795 12.861,28.818 12.807,28.819 C12.698,28.821 12.408,28.696 12.244,28.641 C11.914,28.532 11.767,28.445 11.423,28.451 C11.069,28.458 10.529,28.603 10.141,28.738 C9.754,28.873 9.412,28.973 8.559,29 C8.451,29.003 8.331,28.978 8.225,28.95 C8.366,28.729 8.452,28.667 8.46,28.666 C8.469,28.666 8.471,28.665 8.482,28.663 C8.502,28.663 8.521,28.65 8.528,28.632 C8.536,28.614 8.53,28.593 8.516,28.579 C8.502,28.565 8.482,28.56 8.463,28.567 C8.47,28.565 8.461,28.566 8.454,28.567 C8.447,28.567 8.436,28.566 8.423,28.567 C8.398,28.567 8.363,28.569 8.321,28.57 C8.237,28.571 7.433,28.717 7.113,28.891 C6.794,29.065 6.617,29.472 6.321,29.467 C6.154,29.465 6.089,29.469 5.943,29.358 C6.082,28.693 5.606,28.497 5.819,28.327 C6.043,28.357 6.879,28.464 7.661,27.968 C7.678,27.96 7.69,27.944 7.689,27.925 C7.689,27.906 7.678,27.886 7.661,27.878 C7.645,27.87 7.624,27.873 7.609,27.884 C7.169,28.163 6.851,27.65 6.507,27.679 C5.91,27.728 6.045,27.836 5.686,27.831 C5.5,27.829 5.28,27.738 5.234,27.651 C5.357,27.388 5.562,27.023 5.451,26.822 C5.526,26.723 5.634,26.707 5.829,26.707 C6.002,26.709 6.087,26.869 6.358,26.984 C7.32,27.478 7.036,27.088 7.773,27.358 C7.797,27.372 7.827,27.363 7.841,27.339 C7.855,27.315 7.865,27.209 7.773,27.202 C6.944,27.081 6.712,26.743 6.525,26.557 C6.466,26.499 6.327,26.459 6.178,26.429 C5.778,26.059 5.778,25.73 5.816,25.706 C5.882,25.666 6.098,25.375 6.055,25.304 C6.143,25.202 6.207,25.234 6.324,25.223 C6.731,25.233 7.157,25.85 7.039,26.087 C7.032,26.1 7.392,26.429 7.612,26.697 C7.785,26.908 8.147,27.342 8.621,27.255 C8.627,27.267 8.633,27.279 8.646,27.283 C8.663,27.288 8.683,27.284 8.696,27.271 C9.596,26.455 10.248,25.143 10.68,23.977 C10.896,23.394 11.057,22.846 11.163,22.416 C11.269,21.986 11.321,21.682 11.321,21.553 C11.32,20.898 11.167,19.857 11.182,18.845 C11.195,17.918 11.358,17.027 11.881,16.477 C12.009,16.452 12.142,16.417 12.274,16.368 C12.608,16.246 12.935,16.036 13.194,15.745 C13.204,15.822 13.218,15.904 13.244,15.991 C13.3,16.187 13.395,16.402 13.525,16.608 C13.784,17.016 14.185,17.387 14.708,17.465 L14.711,17.465 C14.715,17.466 14.719,17.468 14.723,17.468 C14.75,17.476 14.778,17.461 14.785,17.434 C14.787,17.429 14.779,17.427 14.779,17.422 C14.779,17.42 14.776,17.42 14.776,17.418 C14.774,17.399 14.771,17.377 14.751,17.372 C14.746,17.369 14.741,17.368 14.736,17.365 C14.666,17.354 14.626,17.325 14.596,17.281 C14.567,17.238 14.549,17.176 14.547,17.097 C14.542,16.941 14.595,16.731 14.674,16.515 C14.735,16.347 14.815,16.189 14.891,16.038 C15.042,16.365 15.267,16.716 15.631,16.942 C16.053,17.204 16.635,17.281 17.383,16.951 C17.385,16.95 17.387,16.952 17.389,16.951 C17.395,16.949 17.399,16.947 17.405,16.945 C17.414,16.939 17.413,16.926 17.417,16.917 C17.423,16.911 17.433,16.912 17.436,16.904 C17.438,16.897 17.43,16.892 17.429,16.886 C17.429,16.885 17.427,16.887 17.426,16.886 C17.424,16.871 17.425,16.853 17.411,16.845 C16.853,16.577 16.695,16.246 16.68,15.926 C16.672,15.753 16.706,15.588 16.751,15.434 C17.05,15.772 17.408,16.038 17.727,16.16 C17.903,16.227 18.066,16.254 18.2,16.225 C18.267,16.211 18.32,16.176 18.364,16.128 C18.384,16.197 18.409,16.256 18.445,16.303 C18.481,16.35 18.531,16.379 18.587,16.4 C18.594,16.508 18.574,16.591 18.528,16.639 C18.47,16.701 18.382,16.722 18.299,16.705 L18.296,16.705 L18.293,16.705 L18.29,16.705 L18.284,16.705 L18.278,16.708 L18.275,16.708 C18.272,16.709 18.27,16.71 18.268,16.711 C18.264,16.715 18.259,16.719 18.256,16.724 C18.254,16.725 18.252,16.728 18.25,16.73 L18.247,16.736 C18.242,16.746 18.241,16.757 18.244,16.767 L18.244,16.77 C18.244,16.772 18.245,16.775 18.247,16.777 L18.247,16.78 L18.25,16.786 C18.257,16.796 18.27,16.796 18.278,16.805 C18.279,16.806 18.279,16.809 18.281,16.811 C18.316,16.852 18.358,16.882 18.405,16.901 C18.422,16.908 18.439,16.912 18.457,16.917 C18.476,16.921 18.494,16.931 18.513,16.932 C18.528,16.934 18.541,16.92 18.556,16.92 C18.585,16.92 18.611,16.931 18.64,16.926 C18.789,16.903 18.946,16.822 19.079,16.714 C19.213,16.606 19.322,16.472 19.38,16.328 C19.437,16.183 19.438,16.023 19.34,15.895 C19.335,15.889 19.327,15.892 19.321,15.889 C19.337,15.775 19.343,15.648 19.333,15.505 C19.384,15.355 19.497,15.165 19.683,14.973 C19.886,14.763 20.162,14.553 20.485,14.399 C21.1,14.106 21.891,14.022 22.727,14.455 C22.74,14.468 22.754,14.487 22.767,14.499 C22.836,14.561 22.907,14.591 22.977,14.63 C22.996,14.756 22.971,14.834 22.915,14.876 C22.856,14.921 22.761,14.934 22.677,14.92 C22.673,14.919 22.669,14.92 22.665,14.92 C22.66,14.919 22.654,14.919 22.649,14.92 C22.639,14.921 22.629,14.925 22.621,14.932 C22.616,14.937 22.612,14.944 22.609,14.951 L22.609,14.954 C22.606,14.965 22.607,14.977 22.612,14.988 L22.612,14.991 L22.615,14.994 L22.615,14.997 L22.618,14.997 C22.624,15.005 22.631,15.009 22.637,15.016 C22.672,15.061 22.714,15.094 22.761,15.119 C22.78,15.13 22.799,15.136 22.819,15.144 C22.845,15.153 22.87,15.158 22.897,15.163 C22.925,15.168 22.951,15.183 22.98,15.184 C23.12,15.19 23.266,15.144 23.389,15.072 C23.513,15 23.618,14.9 23.668,14.779 C23.699,14.704 23.696,14.62 23.674,14.536 C23.698,14.472 23.702,14.399 23.68,14.315 C23.662,14.247 23.612,14.16 23.569,14.075 C23.567,13.97 23.577,13.868 23.59,13.767 C23.758,13.254 24.025,12.946 24.377,12.763 C24.763,12.562 25.258,12.505 25.81,12.514 C27.686,12.546 28.975,12.967 29.999,13.38 C31.023,13.793 31.785,14.214 32.609,14.197 C33.385,14.181 34.1,13.997 34.631,13.602 C35.162,13.206 35.498,12.59 35.498,11.77 C35.498,11.465 35.399,11.202 35.268,10.959 C35.024,10.505 34.618,10.161 34.191,10.006 C34.027,9.947 33.862,9.913 33.702,9.909 C33.542,9.906 33.388,9.933 33.25,10 C32.974,10.133 32.79,10.435 32.792,10.85 C32.794,11.286 33.161,11.613 33.578,11.62 C33.986,11.627 34.422,11.313 34.631,10.626 C34.784,10.759 34.92,10.921 35.021,11.103 C34.932,11.761 34.629,12.149 34.262,12.393 C33.889,12.641 33.443,12.731 33.114,12.748 C32.251,12.791 31.288,11.915 31.296,10.691 C31.304,9.572 32.246,8.631 33.724,8.635 L33.724,8.635 Z M3.931,8.728 C4.39,9.146 3.94,9.456 4.014,9.931 C4.334,11.881 5.16,12.122 5.296,12.969 C5.75,15.791 7.008,17.136 7.095,17.231 C7.137,17.301 7.19,17.355 7.259,17.384 C7.23,17.606 7.284,17.953 7.404,18.278 C7.518,18.585 7.692,18.865 7.928,18.986 L7.928,18.989 C7.937,19.243 8.031,19.554 8.185,19.821 C8.334,20.081 8.543,20.298 8.791,20.366 C8.882,20.464 8.941,20.505 9.024,20.59 C9.227,21.051 7.841,21.555 7.243,21.734 C7.03,22.344 6.319,22.835 5.785,22.824 C5.39,22.816 5.36,22.746 5.117,22.622 C5.976,22.465 6.303,22.494 6.265,20.491 C6.265,20.448 6.263,20.413 6.262,20.388 C6.261,20.375 6.26,20.365 6.259,20.357 C6.259,20.353 6.26,20.351 6.259,20.347 C6.258,20.344 6.257,20.342 6.253,20.332 C6.246,20.31 6.226,20.296 6.203,20.297 C6.188,20.299 6.175,20.306 6.166,20.319 C6.158,20.332 6.155,20.348 6.16,20.363 L6.16,20.366 L6.16,20.369 C5.749,21.6 4.603,16.843 4.361,15.113 C4.304,14.704 4.74,13.828 4.695,13.352 C4.712,13.338 4.596,13.324 4.587,13.334 C4.554,13.541 4.464,13.777 4.367,14.01 C4.366,14.011 4.366,14.012 4.364,14.013 C4.337,14.031 4.302,14.053 4.265,14.085 C4.191,14.148 4.103,14.241 4.024,14.365 C3.864,14.613 3.676,14.76 3.9,15.353 C3.984,15.571 3.59,15.976 3.439,16.063 C3.451,15.71 2.868,15.601 2.764,15.655 C2.711,15.268 2.882,14.772 3.147,14.546 C3.449,14.243 3.688,13.261 3.5,12.81 C3.485,12.761 3.436,12.731 3.386,12.742 C3.358,12.747 3.332,12.766 3.318,12.791 C3.304,12.817 3.302,12.845 3.312,12.872 C3.349,12.934 3.362,13.019 3.367,13.112 C3.367,13.113 3.368,13.115 3.367,13.116 C3.231,13.232 2.906,12.594 3.182,12.402 C3.233,12.409 3.297,12.427 3.33,12.421 C3.384,12.41 3.421,12.357 3.411,12.302 C3.4,12.248 3.347,12.214 3.293,12.224 C3.114,12.26 2.56,12.07 2.222,11.857 C1.236,12.191 1.053,12.145 0.776,11.813 C0.943,11.596 0.8,11.235 0.798,11.209 C0.989,11.045 1.163,11.028 1.361,11.068 C1.464,11.089 1.762,11.17 1.943,11.343 C2.293,11.217 2.863,11.494 2.94,11.748 C2.948,11.781 2.974,11.802 3.005,11.813 C3.008,11.816 3.019,11.841 3.021,11.841 C3.058,11.853 3.1,11.839 3.126,11.81 C3.152,11.781 3.157,11.74 3.141,11.704 C3.075,11.465 2.785,10.288 1.925,10.28 L1.921,10.28 C1.926,10.28 1.479,10.191 1.466,9.707 C1.623,9.651 1.992,9.377 1.965,9.071 C1.971,9.073 1.973,9.072 1.98,9.074 C2.408,9.195 2.61,9.643 2.612,9.85 C2.78,9.968 3.379,10.132 3.538,11.704 C3.535,11.743 3.556,11.779 3.59,11.798 C3.625,11.816 3.668,11.813 3.699,11.788 C3.729,11.764 3.742,11.723 3.733,11.685 C3.697,11.302 3.631,10.995 3.55,10.738 C3.562,10.302 3.472,10 3.166,9.61 C3.164,9.604 3.161,9.597 3.157,9.592 C3.003,9.327 2.978,9.055 3.166,8.85 C3.465,8.892 3.906,8.735 3.931,8.728 L3.931,8.728 Z M1.358,9.015 C1.478,9.013 1.597,9.025 1.708,9.046 C1.719,9.083 1.714,9.196 1.705,9.274 C1.694,9.29 1.675,9.307 1.661,9.324 C1.451,9.288 1.051,9.105 0.897,9.305 C0.874,9.314 0.857,9.329 0.86,9.345 C0.863,9.362 0.884,9.374 0.909,9.38 C0.934,9.385 0.962,9.382 0.98,9.37 C1.147,9.327 1.412,9.376 1.479,9.486 C1.455,9.502 1.423,9.517 1.395,9.532 C1.213,9.488 0.937,9.447 0.658,9.613 C0.655,9.163 0.999,9.022 1.358,9.015 L1.358,9.015 Z M9.562,9.32 C9.678,9.317 9.826,9.332 10.014,9.361 C10.237,9.395 10.486,9.432 10.72,9.417 C10.764,9.414 10.802,9.399 10.844,9.392 C10.918,9.772 10.863,9.995 10.73,10.115 C10.589,10.241 10.353,10.276 10.089,10.265 C9.825,10.253 9.537,10.201 9.293,10.171 C9.251,10.166 9.22,10.168 9.182,10.165 C9.143,10.158 9.104,10.15 9.083,10.137 C9.053,10.118 9.038,10.095 9.03,10.065 C9.014,10.005 9.035,9.91 9.092,9.807 C9.195,9.618 9.396,9.42 9.562,9.32 L9.562,9.32 Z M8.94,10.336 C9.061,10.341 9.188,10.348 9.38,10.377 C9.638,10.416 9.937,10.459 10.213,10.448 C10.257,10.447 10.296,10.432 10.339,10.427 C10.406,10.896 10.325,11.136 10.172,11.262 C10.02,11.387 9.778,11.407 9.5,11.386 C9.223,11.366 8.918,11.311 8.646,11.305 C8.581,11.304 8.527,11.321 8.466,11.327 C8.46,11.326 8.454,11.322 8.448,11.321 C8.432,11.319 8.415,11.324 8.398,11.324 C8.376,11.308 8.357,11.292 8.349,11.265 C8.327,11.195 8.349,11.071 8.414,10.938 C8.524,10.709 8.743,10.472 8.94,10.336 L8.94,10.336 Z M14.383,10.561 C14.719,10.627 15.022,10.801 15.203,11.059 C15.374,11.302 15.433,11.617 15.327,11.984 C15.298,11.884 15.259,11.799 15.2,11.748 C15.109,11.668 14.993,11.646 14.881,11.651 C14.702,11.66 14.544,11.73 14.445,11.776 C14.434,11.731 14.42,11.698 14.411,11.648 C14.395,11.559 14.391,11.442 14.383,11.336 C14.435,11.318 14.517,11.308 14.615,11.315 C14.821,11.328 15.074,11.404 15.194,11.508 C15.215,11.523 15.245,11.521 15.262,11.502 C15.279,11.482 15.277,11.452 15.259,11.433 C14.973,11.184 14.756,11.127 14.603,11.087 C14.526,11.067 14.466,11.05 14.42,11.019 C14.4,11.005 14.385,10.966 14.367,10.944 C14.368,10.824 14.374,10.698 14.383,10.561 L14.383,10.561 Z M17.213,10.981 C17.234,10.984 17.271,11 17.312,11.05 C17.354,11.101 17.398,11.179 17.445,11.274 C17.537,11.465 17.634,11.729 17.72,12.013 C17.893,12.579 18.035,13.228 18.086,13.552 C18.26,14.659 18.266,15.376 18.312,15.82 C18.316,15.865 18.325,15.896 18.33,15.935 C18.256,15.982 18.166,16.003 18.055,15.985 C17.916,15.963 17.758,15.893 17.6,15.795 C17.291,15.605 16.996,15.304 16.866,15.057 C16.865,15.048 16.865,15.039 16.86,15.032 C16.849,15.018 16.833,15.011 16.816,15.013 L16.813,15.013 C16.811,15.013 16.81,15.01 16.807,15.01 C16.783,15.009 16.762,15.027 16.757,15.05 C16.754,15.066 16.754,15.066 16.751,15.078 C16.52,15.347 16.401,15.596 16.377,15.817 C16.351,16.051 16.424,16.252 16.541,16.415 C16.658,16.578 16.818,16.705 16.974,16.792 C17.06,16.84 17.126,16.85 17.2,16.873 C16.899,16.914 16.529,16.964 16.169,16.858 C15.743,16.732 15.349,16.393 15.172,15.53 C15.172,15.528 15.167,15.53 15.166,15.527 C15.168,15.516 15.178,15.506 15.172,15.496 C15.162,15.477 15.141,15.468 15.12,15.471 C15.11,15.473 15.102,15.477 15.095,15.484 C15.093,15.485 15.091,15.488 15.089,15.49 C14.713,15.781 14.472,16.238 14.392,16.639 C14.352,16.842 14.351,17.029 14.401,17.179 C14.405,17.189 14.416,17.193 14.42,17.203 C14.039,16.98 13.802,16.704 13.671,16.393 C13.511,16.015 13.505,15.584 13.562,15.144 C13.574,15.129 13.583,15.116 13.59,15.107 C13.595,15.102 13.599,15.099 13.603,15.094 C13.608,15.087 13.613,15.081 13.615,15.078 C13.616,15.077 13.615,15.075 13.615,15.075 C13.618,15.072 13.622,15.07 13.624,15.066 C13.626,15.064 13.627,15.065 13.631,15.05 C13.631,15.049 13.634,15.044 13.634,15.044 L13.634,15.032 L13.624,15.01 L13.603,14.994 C-15.9,-4.1 13.581,14.988 13.581,14.988 L13.569,14.991 C-15.9,-4.1 13.562,14.996 13.559,14.997 C13.55,15.003 13.549,15.002 13.547,15.004 C13.545,15.004 13.543,15 13.541,15.001 C13.525,15.002 13.511,15.012 13.504,15.025 C13.353,15.282 12.97,15.681 12.494,15.951 C12.068,16.193 11.573,16.316 11.104,16.175 C11.393,15.221 11.911,14.627 12.47,14.296 C13.006,13.979 13.565,13.901 13.977,13.941 C13.977,13.944 13.975,13.945 13.974,13.947 C13.91,14.181 13.876,14.493 13.872,14.848 L13.872,14.851 L13.872,14.857 C13.87,14.885 13.891,14.908 13.918,14.91 C13.946,14.912 13.969,14.891 13.971,14.863 L13.971,14.857 C13.973,14.853 13.98,14.855 13.98,14.851 C14.036,14.564 14.256,14.196 14.519,13.935 C14.651,13.804 14.793,13.7 14.928,13.642 C15.031,13.598 15.125,13.592 15.213,13.608 C15.203,13.698 15.189,13.772 15.185,13.876 C15.166,14.292 15.176,14.787 15.172,15.141 L15.172,15.153 C15.172,15.178 15.189,15.198 15.213,15.203 L15.216,15.203 C15.217,15.203 15.217,15.206 15.219,15.206 C15.231,15.207 15.234,15.194 15.244,15.188 C15.252,15.182 15.264,15.182 15.268,15.172 C15.269,15.17 15.268,15.168 15.268,15.166 C15.269,15.164 15.271,15.164 15.271,15.163 C15.272,15.16 15.271,15.156 15.271,15.153 C15.439,14.424 15.618,13.8 15.788,13.405 C15.874,13.206 15.961,13.064 16.033,13 C16.069,12.968 16.098,12.956 16.123,12.957 C16.143,12.957 16.166,12.972 16.191,12.994 C16.192,12.998 16.192,13 16.194,13.006 C16.204,13.036 16.215,13.086 16.225,13.147 C16.245,13.267 16.267,13.435 16.284,13.623 C16.318,13.999 16.345,14.448 16.37,14.751 C16.371,14.753 16.37,14.756 16.37,14.758 C16.371,14.785 16.393,14.807 16.42,14.807 C16.447,14.807 16.469,14.785 16.47,14.758 C16.47,14.755 16.469,14.753 16.47,14.751 C16.51,13.78 16.705,12.764 16.9,12.003 C16.997,11.622 17.097,11.302 17.172,11.087 C17.189,11.039 17.198,11.018 17.213,10.981 L17.213,10.981 Z M0.661,11.255 C0.681,11.307 0.687,11.325 0.702,11.405 C0.582,11.414 0.435,11.446 0.324,11.579 C0.312,11.591 0.307,11.607 0.312,11.623 C0.316,11.639 0.329,11.652 0.346,11.654 C0.362,11.657 0.38,11.649 0.389,11.636 C0.47,11.538 0.603,11.543 0.708,11.561 C0.707,11.638 0.684,11.713 0.649,11.791 C0.53,11.768 0.362,11.761 0.225,11.96 C0.111,11.476 0.449,11.296 0.661,11.255 L0.661,11.255 Z M8.414,11.526 C8.544,11.514 8.684,11.519 8.829,11.533 C9.118,11.559 9.423,11.621 9.699,11.629 C9.789,11.632 9.872,11.616 9.956,11.604 C10.018,12.095 9.926,12.368 9.751,12.524 C9.574,12.681 9.299,12.726 8.993,12.729 C8.686,12.733 8.354,12.695 8.061,12.704 C7.925,12.708 7.798,12.725 7.686,12.76 C7.65,12.746 7.63,12.723 7.621,12.676 C7.603,12.576 7.656,12.383 7.761,12.187 C7.865,11.991 8.014,11.787 8.166,11.645 C8.205,11.608 8.242,11.591 8.281,11.564 C8.326,11.554 8.365,11.531 8.414,11.526 L8.414,11.526 Z M28.528,11.86 C28.559,11.866 28.604,11.885 28.631,11.888 C28.617,11.94 28.591,12 28.553,12.05 C28.545,12.06 28.534,12.062 28.525,12.072 C28.541,12.03 28.55,11.986 28.547,11.944 C28.545,11.913 28.535,11.889 28.528,11.86 L28.528,11.86 Z M9.686,12.854 C9.818,13.316 9.763,13.583 9.6,13.748 C9.43,13.92 9.133,13.995 8.798,14.038 C8.462,14.081 8.092,14.094 7.776,14.169 C7.646,14.199 7.532,14.252 7.426,14.312 C7.407,14.297 7.385,14.287 7.37,14.256 C7.324,14.154 7.315,13.973 7.339,13.779 C7.364,13.585 7.419,13.377 7.488,13.218 C7.523,13.139 7.559,13.069 7.596,13.022 C7.612,13.002 7.622,13.003 7.637,12.991 C7.823,12.942 8.035,12.918 8.271,12.922 C8.596,12.928 8.945,12.957 9.259,12.935 C9.412,12.924 9.556,12.899 9.686,12.854 L9.686,12.854 Z M9.476,14.122 C9.601,14.343 9.672,14.526 9.692,14.667 C9.714,14.817 9.688,14.922 9.627,15.007 C9.505,15.176 9.224,15.264 8.884,15.321 C8.545,15.379 8.152,15.411 7.816,15.499 C7.638,15.546 7.476,15.613 7.346,15.708 C7.321,15.694 7.295,15.682 7.278,15.649 C7.231,15.559 7.221,15.394 7.243,15.216 C7.266,15.037 7.321,14.846 7.389,14.698 C7.423,14.624 7.458,14.562 7.494,14.518 C7.515,14.493 7.531,14.489 7.55,14.477 C7.667,14.433 7.792,14.395 7.934,14.371 C8.267,14.315 8.649,14.302 8.996,14.247 C9.167,14.219 9.331,14.181 9.476,14.122 L9.476,14.122 Z M23.377,14.72 C23.374,14.884 23.269,14.999 23.132,15.05 C23.06,15.077 22.985,15.082 22.912,15.069 C22.902,15.067 22.892,15.063 22.881,15.06 C22.861,15.054 22.847,15.037 22.829,15.029 C22.972,15.028 23.094,14.991 23.166,14.916 C23.217,14.864 23.25,14.803 23.271,14.751 C23.274,14.746 23.273,14.744 23.275,14.739 C23.308,14.739 23.343,14.727 23.377,14.72 L23.377,14.72 Z M9.584,15.418 C9.706,15.565 9.781,15.696 9.81,15.808 C9.841,15.926 9.83,16.022 9.785,16.113 C9.695,16.295 9.46,16.448 9.16,16.58 C8.86,16.712 8.5,16.828 8.169,16.948 C7.988,17.014 7.82,17.084 7.671,17.16 C7.5,17.123 7.384,17.03 7.312,16.898 C7.235,16.759 7.208,16.579 7.216,16.406 C7.223,16.233 7.268,16.066 7.333,15.951 C7.341,15.937 7.35,15.932 7.358,15.92 C7.515,15.822 7.721,15.764 7.956,15.727 C8.298,15.672 8.691,15.66 9.039,15.599 C9.242,15.563 9.429,15.506 9.584,15.418 L9.584,15.418 Z M2.835,15.901 C2.889,15.919 2.945,15.944 3.002,15.97 C2.937,16.079 2.836,16.228 2.686,16.225 C2.667,16.223 2.647,16.231 2.637,16.247 C2.626,16.263 2.627,16.287 2.637,16.303 C2.647,16.319 2.667,16.327 2.686,16.325 C2.88,16.328 3.047,16.162 3.154,16.051 C3.221,16.09 3.279,16.128 3.324,16.169 C3.142,16.335 2.729,16.611 2.315,16.213 C2.582,16.242 2.752,16.034 2.835,15.901 L2.835,15.901 Z M19.011,16.365 C19.011,16.54 18.902,16.689 18.761,16.77 C18.692,16.81 18.568,16.819 18.59,16.811 C18.675,16.78 18.735,16.721 18.779,16.658 C18.823,16.595 18.85,16.527 18.866,16.468 C18.873,16.444 18.871,16.432 18.875,16.412 C18.927,16.405 18.968,16.384 19.011,16.365 L19.011,16.365 Z M24.538,16.4 C24.876,16.384 25.197,16.549 25.281,16.777 C25.28,16.791 25.279,16.805 25.278,16.826 C25.274,16.884 25.268,16.964 25.262,17.06 C25.25,17.252 25.232,17.504 25.216,17.755 C25.186,18.207 25.162,18.57 25.157,18.655 C24.723,18.981 24.351,18.671 24.228,18.412 C24.212,18.326 24.147,17.987 24.067,17.559 C24.023,17.319 23.98,17.077 23.946,16.895 C23.933,16.821 23.921,16.765 23.912,16.714 C24.08,16.505 24.31,16.41 24.538,16.4 L24.538,16.4 Z M23.179,16.496 C23.36,16.5 23.536,16.574 23.665,16.739 C23.674,16.793 23.687,16.859 23.702,16.942 C23.735,17.124 23.781,17.365 23.826,17.605 C23.907,18.045 23.974,18.41 23.987,18.481 C23.86,18.694 23.204,18.853 22.965,18.531 C22.964,18.524 22.97,18.518 22.968,18.512 L22.532,16.752 C22.627,16.626 22.901,16.491 23.179,16.496 L23.179,16.496 Z M9.726,16.583 C9.967,16.731 10.131,16.869 10.231,16.995 C10.332,17.121 10.369,17.234 10.364,17.337 C10.354,17.545 10.162,17.744 9.875,17.929 C9.588,18.115 9.217,18.286 8.869,18.45 C8.699,18.53 8.543,18.608 8.401,18.687 C8.232,18.718 8.084,18.679 7.959,18.581 C7.824,18.476 7.713,18.31 7.64,18.132 C7.567,17.954 7.53,17.763 7.535,17.605 C7.538,17.499 7.565,17.422 7.603,17.362 C8.208,17.102 8.948,16.972 9.476,16.736 C9.572,16.693 9.646,16.637 9.726,16.583 L9.726,16.583 Z M21.776,16.661 C21.946,16.648 22.126,16.697 22.29,16.82 L22.714,18.512 C22.592,18.827 22.069,18.931 21.857,18.805 L21.219,17.054 C21.195,16.895 21.457,16.687 21.776,16.661 L21.776,16.661 Z M25.804,16.692 C26.161,16.708 26.679,17.074 26.674,17.387 L26.241,19.101 C26.158,19.314 25.523,19.232 25.398,18.774 C25.398,18.773 25.399,18.772 25.398,18.771 C25.398,18.771 25.43,18.276 25.463,17.774 C25.48,17.522 25.497,17.268 25.51,17.076 C25.516,16.98 25.519,16.9 25.522,16.842 C25.523,16.829 25.524,16.822 25.525,16.811 C25.584,16.723 25.685,16.687 25.804,16.692 L25.804,16.692 Z M20.739,17.02 C20.829,17.02 20.904,17.046 20.968,17.085 L21.628,18.895 C21.557,19.121 20.783,19.543 20.572,19.307 L19.915,17.487 C19.94,17.264 20.395,17.019 20.739,17.02 L20.739,17.02 Z M27.188,17.387 C27.547,17.387 27.967,17.71 27.962,18.197 L27.278,19.905 C27.034,20.004 26.449,19.765 26.442,19.31 L26.903,17.484 C26.985,17.424 27.082,17.387 27.188,17.387 L27.188,17.387 Z M19.383,17.499 C19.487,17.496 19.59,17.533 19.689,17.599 L20.327,19.372 C20.25,19.709 19.596,20.106 19.33,19.811 L18.578,18.091 C18.582,18.084 18.585,18.057 18.59,18.067 C18.608,17.929 18.99,17.513 19.383,17.499 L19.383,17.499 Z M10.448,17.792 C10.81,18.017 10.938,18.252 10.925,18.49 C10.911,18.732 10.746,18.991 10.504,19.232 C10.123,19.61 9.592,19.905 9.163,20.104 C9.062,20.104 8.948,20.066 8.832,19.983 C8.697,19.886 8.566,19.747 8.463,19.596 C8.36,19.446 8.287,19.284 8.262,19.154 C8.25,19.089 8.25,19.033 8.262,18.989 C8.272,18.955 8.294,18.934 8.318,18.914 C8.929,18.638 9.681,18.398 10.166,18.06 C10.282,17.98 10.371,17.889 10.448,17.792 L10.448,17.792 Z M18.117,18.104 C18.215,18.09 18.303,18.106 18.38,18.141 L19.16,19.924 C19.175,20.39 18.25,20.824 18.039,20.625 L17.34,18.677 C17.328,18.484 17.755,18.156 18.117,18.104 L18.117,18.104 Z M28.448,18.263 C28.791,18.273 29.257,18.49 29.241,18.808 L28.575,20.612 C28.23,20.873 27.514,20.265 27.494,20.023 L28.176,18.334 C28.24,18.286 28.332,18.259 28.448,18.263 L28.448,18.263 Z M16.773,18.618 C16.884,18.582 17.014,18.615 17.154,18.749 L17.857,20.699 C17.838,20.903 17.066,21.451 16.658,21.21 C16.568,20.988 16.221,20.192 16.138,19.668 C16.181,19.497 16.232,19.33 16.293,19.185 C16.354,19.041 16.418,18.949 16.479,18.83 C16.549,18.759 16.65,18.658 16.773,18.618 L16.773,18.618 Z M24.123,18.877 C24.126,18.88 24.126,18.889 24.129,18.892 C24.147,19.039 25.011,19.204 25.114,19.185 C25.05,19.37 25.603,19.732 25.906,19.849 C25.99,19.958 25.988,20.182 25.977,20.304 C25.949,20.616 26.046,21.013 26.491,21.298 C26.781,21.481 27.759,21.823 27.764,22.612 C27.767,23.18 27.315,23.411 27.111,23.541 C27.289,23.205 27.102,22.859 26.724,22.793 C26.461,22.753 25.798,22.711 25.228,22.765 C25.173,22.77 25.133,22.819 25.138,22.874 C25.143,22.929 25.192,22.97 25.247,22.965 C25.499,23.017 25.622,23.003 25.584,23.223 C25.583,23.23 25.59,23.233 25.59,23.239 C24.684,23.952 22.729,25.79 22.677,26.488 C22.662,26.685 22.865,26.897 23.132,26.875 C23.149,26.873 24.086,26.415 24.482,26.769 C24.266,26.986 24.428,27.49 24.423,27.514 C23.921,27.876 23.336,27.362 22.367,27.355 C21.397,27.347 20.604,27.98 19.977,27.993 C19.895,27.995 19.855,27.979 19.807,27.965 C19.863,27.89 19.908,27.813 19.912,27.813 C19.921,27.812 19.973,27.781 19.984,27.778 C20.003,27.778 20.019,27.766 20.027,27.747 C20.034,27.729 20.031,27.708 20.018,27.694 C20.004,27.68 19.983,27.675 19.965,27.682 C19.971,27.681 19.963,27.681 19.956,27.682 C19.948,27.682 19.937,27.681 19.925,27.682 C19.899,27.683 19.489,27.787 19.374,27.788 C19.142,27.789 18.637,27.96 18.318,28.134 C18.102,28.222 17.686,28.694 17.049,28.551 C17.124,28.281 17.022,27.933 16.819,27.638 C16.856,27.634 16.919,27.546 16.953,27.473 C17.896,27.315 17.798,27.797 18.018,27.445 C18.16,27.217 18.235,27.825 19.405,26.853 C19.421,26.844 19.43,26.828 19.429,26.809 C19.429,26.791 19.418,26.774 19.401,26.766 C19.385,26.757 19.367,26.758 19.352,26.769 C17.948,27.347 18.366,26.946 17.736,26.975 C17.138,27.002 17.299,27.141 16.94,27.137 C16.754,27.134 16.549,26.968 16.504,26.881 C16.653,26.846 16.661,26.369 16.55,26.168 C16.625,26.069 16.85,26.027 17.045,26.027 C17.579,26.027 17.786,26.511 18.349,26.569 C18.752,26.568 19.121,26.236 19.454,26.457 C19.478,26.471 19.509,26.463 19.522,26.439 C19.533,26.419 19.522,26.398 19.507,26.383 C21.948,26.463 23.752,21.126 23.367,20.55 C23.368,20.534 23.361,20.519 23.349,20.509 C23.345,20.506 23.341,20.508 23.336,20.506 C23.288,20.344 23.189,20.129 22.937,20.042 C22.935,20.038 22.936,20.023 22.934,20.02 C22.868,19.944 22.748,19.469 22.25,19.403 C22.277,19.281 22.293,19.191 22.299,19.129 C22.552,19.069 22.824,18.975 22.884,18.898 C23.021,19.083 24.161,19.055 24.123,18.877 L24.123,18.877 Z M29.621,18.967 C29.943,18.969 30.388,19.241 30.426,19.512 L29.875,20.949 C29.622,21.247 28.999,21.03 28.912,20.945 C28.849,20.884 28.825,20.776 28.816,20.665 L29.398,19.048 C29.457,18.998 29.529,18.966 29.621,18.967 L29.621,18.967 Z M10.872,19.126 C10.867,19.199 10.858,19.275 10.853,19.347 C10.828,19.784 10.824,20.176 10.816,20.544 C10.816,20.545 10.813,20.543 10.813,20.544 L10.813,20.547 C10.74,20.812 10.631,20.974 10.507,21.058 C10.382,21.142 10.24,21.151 10.086,21.101 C9.794,21.007 9.473,20.682 9.247,20.251 C9.846,20.048 10.45,19.669 10.816,19.216 C10.84,19.187 10.85,19.156 10.872,19.126 L10.872,19.126 Z M21.953,19.226 C21.903,19.883 20.851,20.666 20.445,20.653 C20.444,20.652 20.442,20.65 20.442,20.649 C20.367,20.586 20.275,20.543 20.213,20.469 C20.058,20.203 21.62,19.315 21.953,19.226 L21.953,19.226 Z M26.203,19.634 C26.207,19.64 26.212,19.646 26.216,19.652 C26.208,19.655 26.2,19.659 26.191,19.662 C26.197,19.649 26.197,19.646 26.203,19.634 L26.203,19.634 Z M22.275,19.674 C22.689,19.712 22.834,20.203 22.702,20.272 C22.72,20.297 22.322,21.2 21.878,21.432 C21.728,21.51 21.525,21.471 21.401,21.453 C21.172,21.36 20.917,21.128 20.838,20.886 C20.952,20.674 21.557,20.475 22.08,19.69 C22.15,19.674 22.215,19.669 22.275,19.674 L22.275,19.674 Z M30.634,19.69 C30.923,19.624 31.498,19.942 31.525,20.375 L31.197,21.276 C30.997,21.423 30.093,21.44 30.083,21.089 L30.603,19.709 C30.615,19.704 30.621,19.693 30.634,19.69 L30.634,19.69 Z M16.039,20.397 C16.215,20.299 16.4,21.029 16.479,21.26 L16.476,21.263 C16.478,21.304 16.163,22.164 15.946,20.936 C15.952,20.863 15.981,20.639 16.005,20.444 C16.016,20.43 16.028,20.403 16.039,20.397 L16.039,20.397 Z M22.959,20.469 C23.01,20.537 23.148,20.544 23.194,20.759 C23.142,21.108 23.046,21.525 22.897,21.983 C22.685,22.068 22.315,21.936 22.095,21.809 C22.054,21.754 22.021,21.692 22.055,21.612 C22.541,21.288 22.778,20.711 22.86,20.503 C22.9,20.471 22.939,20.442 22.959,20.469 L22.959,20.469 Z M31.68,20.618 C31.864,20.593 32.389,20.973 32.448,21.466 L32.46,21.497 C32.373,21.791 31.637,21.726 31.429,21.357 L31.68,20.618 L31.68,20.618 Z M10.798,20.983 C10.793,21.186 10.783,21.341 10.773,21.478 C10.716,21.426 10.675,21.36 10.646,21.285 C10.65,21.28 10.655,21.278 10.658,21.273 C10.711,21.196 10.757,21.098 10.798,20.983 L10.798,20.983 Z M17.686,24.741 C17.825,24.743 17.869,24.771 18.002,24.903 C18.136,25.034 18.23,25.256 18.476,25.504 C18.699,25.728 19.305,26.049 19.662,26.143 C19.537,26.184 19.408,26.212 19.278,26.233 C18.941,26.129 18.537,26.379 17.98,25.903 C17.902,25.838 17.696,25.79 17.491,25.756 C17.375,25.662 17.061,25.422 17.095,25.401 C17.245,25.159 17.414,24.92 17.371,24.85 C17.437,24.763 17.548,24.738 17.686,24.741 L17.686,24.741 Z M16.801,24.806 C16.948,24.775 17.104,24.819 17.222,24.881 C17.205,24.913 17.19,24.944 17.175,24.977 C17.079,24.918 16.96,24.87 16.742,24.921 C16.721,24.924 16.705,24.935 16.699,24.952 C16.693,24.969 16.699,24.99 16.714,25.002 C16.729,25.014 16.751,25.015 16.77,25.008 C16.947,24.967 17.029,25.037 17.11,25.108 C17.094,25.145 17.075,25.173 17.058,25.202 C16.953,25.124 16.561,24.87 16.457,25.267 C16.473,24.977 16.625,24.843 16.801,24.806 L16.801,24.806 Z M30.389,24.999 C30.548,25.014 30.661,25.081 30.733,25.13 C30.739,25.158 30.76,25.184 30.755,25.214 C30.753,25.223 30.745,25.233 30.742,25.242 C30.617,25.165 30.402,25.075 30.154,25.133 C30.133,25.136 30.117,25.147 30.111,25.164 C30.104,25.181 30.108,25.199 30.123,25.211 C30.138,25.223 30.162,25.227 30.182,25.22 C30.398,25.169 30.526,25.34 30.634,25.426 C30.592,25.471 30.545,25.513 30.501,25.541 C30.427,25.476 30.034,25.14 29.714,25.588 C29.901,25.086 30.165,24.978 30.389,24.999 L30.389,24.999 Z M5.621,25.052 C5.776,25.022 5.886,25.142 5.949,25.223 C5.948,25.236 5.937,25.257 5.94,25.261 C5.949,25.271 5.94,25.295 5.934,25.317 C5.839,25.269 5.721,25.246 5.497,25.298 C5.477,25.301 5.46,25.312 5.454,25.329 C5.448,25.346 5.454,25.364 5.469,25.376 C5.485,25.388 5.506,25.392 5.525,25.385 C5.706,25.343 5.771,25.407 5.847,25.476 C5.809,25.529 5.774,25.562 5.745,25.591 C5.624,25.513 5.323,25.348 5.178,25.591 C5.34,25.218 5.492,25.077 5.621,25.052 L5.621,25.052 Z M16.922,25.354 C16.922,25.356 16.926,25.361 16.925,25.361 C16.921,25.36 16.919,25.364 16.915,25.364 C16.917,25.36 16.919,25.357 16.922,25.354 L16.922,25.354 Z M16.234,26.118 C16.246,26.118 16.246,26.12 16.256,26.121 C16.28,26.137 16.328,26.154 16.343,26.168 C16.366,26.19 16.372,26.226 16.386,26.255 C16.247,26.242 16.075,26.25 15.925,26.373 C15.908,26.383 15.901,26.401 15.903,26.42 C15.905,26.439 15.919,26.457 15.937,26.464 C15.955,26.47 15.973,26.465 15.987,26.451 C16.137,26.328 16.303,26.424 16.429,26.473 C16.427,26.527 16.417,26.568 16.405,26.622 C16.287,26.524 15.994,26.363 15.751,26.641 C15.717,26.171 16.05,26.113 16.234,26.118 L16.234,26.118 Z M29.798,26.551 C29.838,26.552 29.842,26.557 29.872,26.56 C29.886,26.621 29.886,26.685 29.878,26.753 C29.737,26.735 29.549,26.738 29.386,26.872 C29.37,26.882 29.362,26.902 29.364,26.922 C29.367,26.941 29.377,26.956 29.395,26.962 C29.413,26.968 29.435,26.963 29.448,26.95 C29.573,26.847 29.704,26.899 29.82,26.946 C29.808,26.981 29.799,27.013 29.785,27.043 C29.644,26.99 29.261,26.885 29.194,27.414 C28.914,26.623 29.48,26.539 29.798,26.551 L29.798,26.551 Z M24.686,26.884 C24.687,26.885 24.685,26.899 24.686,26.9 C25.045,26.908 25.713,27.371 24.897,27.875 C25.169,27.525 24.665,27.399 24.606,27.392 C24.603,27.382 24.608,27.368 24.606,27.358 C24.725,27.361 24.842,27.301 25.061,27.52 C25.074,27.533 25.082,27.551 25.101,27.554 C25.12,27.557 25.137,27.548 25.148,27.532 C25.158,27.516 25.159,27.497 25.151,27.479 C25.05,27.255 24.765,27.148 24.615,27.112 C24.63,27.04 24.652,26.967 24.686,26.884 L24.686,26.884 Z M5.234,26.962 C5.245,27.016 5.244,27.076 5.228,27.143 C5.086,27.121 4.892,27.12 4.723,27.258 C4.707,27.268 4.696,27.286 4.699,27.305 C4.701,27.324 4.715,27.342 4.733,27.348 C4.751,27.355 4.772,27.35 4.785,27.336 C4.911,27.233 5.043,27.285 5.16,27.333 C5.13,27.402 5.107,27.455 5.076,27.507 C4.948,27.451 4.71,27.367 4.497,27.576 C4.582,26.989 4.998,26.941 5.234,26.962 L5.234,26.962 Z M38.386,27.352 C38.545,27.403 39.433,27.745 38.693,28.423 C38.88,27.885 38.361,27.833 38.272,27.825 C38.271,27.802 38.274,27.776 38.275,27.75 C38.408,27.763 38.584,27.763 38.659,27.934 C38.664,27.953 38.68,27.966 38.699,27.968 C38.718,27.971 38.738,27.963 38.748,27.947 C38.759,27.931 38.758,27.91 38.748,27.894 C38.652,27.673 38.445,27.575 38.309,27.538 C38.327,27.469 38.347,27.401 38.386,27.352 L38.386,27.352 Z M30.451,27.825 C30.48,27.877 30.505,27.939 30.525,28.015 C30.392,28.044 30.158,28.145 30.055,28.38 C30.045,28.396 30.044,28.417 30.055,28.433 C30.065,28.449 30.085,28.457 30.104,28.455 C30.123,28.452 30.139,28.439 30.145,28.42 C30.226,28.236 30.428,28.25 30.563,28.233 C30.565,28.259 30.568,28.285 30.569,28.311 C30.452,28.322 29.928,28.383 30.111,28.906 C29.333,28.194 30.37,27.848 30.451,27.825 L30.451,27.825 Z M16.757,27.869 C16.779,27.907 16.8,27.939 16.819,27.987 C16.683,28.03 16.501,28.121 16.411,28.327 C16.401,28.343 16.4,28.364 16.411,28.38 C16.421,28.396 16.441,28.404 16.46,28.402 C16.479,28.399 16.495,28.386 16.501,28.367 C16.576,28.195 16.754,28.196 16.888,28.183 C16.904,28.26 16.91,28.333 16.909,28.405 C16.745,28.373 16.377,28.416 16.262,28.722 C15.943,28.389 16.357,27.957 16.757,27.869 L16.757,27.869 Z M13.34,27.997 C13.703,28.068 14.377,28.381 13.631,29.065 C13.885,28.687 13.366,28.582 13.231,28.56 C13.218,28.521 13.217,28.477 13.216,28.43 C13.361,28.443 13.597,28.438 13.674,28.613 C13.68,28.632 13.695,28.645 13.714,28.648 C13.733,28.65 13.753,28.642 13.764,28.626 C13.774,28.61 13.773,28.589 13.764,28.573 C13.668,28.354 13.398,28.234 13.244,28.19 C13.268,28.107 13.304,28.044 13.34,27.997 L13.34,27.997 Z M5.624,28.754 L5.627,28.754 C5.661,28.812 5.696,28.844 5.723,28.916 C5.593,28.968 5.446,29.057 5.367,29.237 C5.358,29.253 5.36,29.274 5.37,29.29 C5.381,29.306 5.398,29.314 5.417,29.311 C5.436,29.309 5.451,29.295 5.457,29.277 C5.52,29.134 5.651,29.113 5.773,29.103 C5.788,29.178 5.79,29.247 5.779,29.314 C5.609,29.307 5.313,29.337 5.463,29.769 C4.996,29.189 5.362,28.769 5.624,28.754 L5.624,28.754 Z" id="Shape" fill="#D21034"></path>
            </g>
        </g>
    </g>
</svg>